SplineFontDB: 3.0
FontName: PaytoneOne
FullName: Paytone One
FamilyName: Paytone One
Weight: Regular
Copyright: Copyright (c) 2011 by vernon adams. All rights reserved.
Version: 1.000
ItalicAngle: 0
UnderlinePosition: -104
UnderlineWidth: 102
Ascent: 1638
Descent: 410
sfntRevision: 0x00010000
LayerCount: 2
Layer: 0 1 "Back"  1
Layer: 1 1 "Fore"  0
XUID: [1021 759 1887733602 8084105]
FSType: 0
OS2Version: 2
OS2_WeightWidthSlopeOnly: 0
OS2_UseTypoMetrics: 1
CreationTime: 1302188225
ModificationTime: 1304080273
PfmFamily: 33
TTFWeight: 400
TTFWidth: 5
LineGap: 0
VLineGap: 0
Panose: 0 0 0 0 0 0 0 0 0 0
OS2TypoAscent: 2280
OS2TypoAOffset: 0
OS2TypoDescent: -580
OS2TypoDOffset: 0
OS2TypoLinegap: 0
OS2WinAscent: 2280
OS2WinAOffset: 0
OS2WinDescent: 580
OS2WinDOffset: 0
HheadAscent: 2280
HheadAOffset: 0
HheadDescent: -580
HheadDOffset: 0
OS2SubXSize: 1434
OS2SubYSize: 1331
OS2SubXOff: 0
OS2SubYOff: 287
OS2SupXSize: 1434
OS2SupYSize: 1331
OS2SupXOff: 0
OS2SupYOff: 977
OS2StrikeYSize: 102
OS2StrikeYPos: 512
OS2Vendor: 'pyrs'
OS2CodePages: 00000001.00000000
OS2UnicodeRanges: 00000003.08000000.14000000.00000000
Lookup: 258 0 0 "'kern' Horizontal Kerning in Latin lookup 0"  {"'kern' Horizontal Kerning in Latin lookup 0 per glyph data 0"  "'kern' Horizontal Kerning in Latin lookup 0 kerning class 1"  } ['kern' ('latn' <'dflt' > ) ]
MarkAttachClasses: 1
DEI: 91125
KernClass2: 80+ 63 "'kern' Horizontal Kerning in Latin lookup 0 kerning class 1" 
 20 quotedbl quotesingle
 8 asterisk
 5 comma
 20 hyphen endash emdash
 6 period
 5 slash
 4 zero
 3 one
 4 four
 4 five
 5 seven
 5 eight
 4 nine
 9 backslash
 10 registered
 12 questiondown
 22 quoteleft quotedblleft
 24 quoteright quotedblright
 27 quotesinglbase quotedblbase
 27 guillemotleft guilsinglleft
 29 guillemotright guilsinglright
 9 trademark
 9 ampersand
 73 A Agrave Aacute Acircumflex Atilde Adieresis Aring Amacron Abreve Aogonek
 1 B
 47 C Ccedilla Cacute Ccircumflex Cdotaccent Ccaron
 19 D Eth Dcaron Dcroat

StartChar: exclam
Encoding: 33 33 1
Width: 625
GlyphClass: 2
Flags: W
LayerCount: 2
Fore
SplineSet
94 1096 m 1,0,-1
 94 1414 l 1,1,-1
 526 1414 l 1,2,-1
 526 1096 l 1,3,-1
 446 516 l 1,4,-1
 176 516 l 1,5,-1
 94 1096 l 1,0,-1
86 176 m 0,6,7
 86 219 86 219 104.5 256.5 c 128,-1,8
 123 294 123 294 154.5 322 c 128,-1,9
 186 350 186 350 228.5 366 c 128,-1,10
 271 382 271 382 318 382 c 0,11,12
 364 382 364 382 405.5 366 c 128,-1,13
 447 350 447 350 478.5 322 c 128,-1,14
 510 294 510 294 529 256.5 c 128,-1,15
 548 219 548 219 548 176 c 0,16,17
 548 134 548 134 529 96 c 128,-1,18
 510 58 510 58 478.5 29.5 c 128,-1,19
 447 1 447 1 405.5 -15.5 c 128,-1,20
 364 -32 364 -32 318 -32 c 0,21,22
 271 -32 271 -32 228.5 -15.5 c 128,-1,23
 186 1 186 1 154.5 29.5 c 128,-1,24
 123 58 123 58 104.5 96 c 128,-1,25
 86 134 86 134 86 176 c 0,6,7
EndSplineSet
EndChar

StartChar: quotedbl
Encoding: 34 34 2
Width: 792
GlyphClass: 2
Flags: W
LayerCount: 2
Fore
SplineSet
446 1534 m 1,0,-1
 742 1534 l 1,1,-1
 684 1026 l 1,2,-1
 488 1026 l 1,3,-1
 446 1534 l 1,0,-1
60 1534 m 1,4,-1
 354 1534 l 1,5,-1
 296 1026 l 1,6,-1
 100 1026 l 1,7,-1
 60 1534 l 1,4,-1
EndSplineSet
EndChar

StartChar: numbersign
Encoding: 35 35 3
Width: 1068
GlyphClass: 2
Flags: W
LayerCount: 2
Fore
SplineSet
212 502 m 1,0,-1
 56 502 l 1,1,-1
 72 624 l 1,2,-1
 240 624 l 1,3,-1
 278 776 l 1,4,-1
 94 776 l 1,5,-1
 110 902 l 1,6,-1
 308 902 l 1,7,-1
 426 1376 l 1,8,-1
 608 1376 l 1,9,-1
 490 902 l 1,10,-1
 684 902 l 1,11,-1
 800 1376 l 1,12,-1
 982 1376 l 1,13,-1
 866 902 l 1,14,-1
 1012 902 l 1,15,-1
 996 776 l 1,16,-1
 832 776 l 1,17,-1
 796 624 l 1,18,-1
 974 624 l 1,19,-1
 958 502 l 1,20,-1
 764 502 l 1,21,-1
 642 0 l 1,22,-1
 464 0 l 1,23,-1
 586 502 l 1,24,-1
 390 502 l 1,25,-1
 268 0 l 1,26,-1
 90 0 l 1,27,-1
 212 502 l 1,0,-1
616 624 m 1,28,-1
 652 776 l 1,29,-1
 458 776 l 1,30,-1
 420 624 l 1,31,-1
 616 624 l 1,28,-1
EndSplineSet
EndChar

StartChar: dollar
Encoding: 36 36 4
Width: 1159
GlyphClass: 2
Flags: W
LayerCount: 2
Fore
SplineSet
186 334 m 1,0,1
 267 307 267 307 338.5 290 c 128,-1,2
 410 273 410 273 470 270 c 1,3,-1
 470 540 l 1,4,5
 433 549 433 549 388.5 562.5 c 128,-1,6
 344 576 344 576 299 598 c 128,-1,7
 254 620 254 620 211.5 651.5 c 128,-1,8
 169 683 169 683 136.5 728.5 c 128,-1,9
 104 774 104 774 84 835 c 128,-1,10
 64 896 64 896 64 976 c 0,11,12
 64 1084 64 1084 97.5 1160.5 c 128,-1,13
 131 1237 131 1237 187 1288 c 128,-1,14
 243 1339 243 1339 316.5 1366.5 c 128,-1,15
 390 1394 390 1394 470 1404 c 1,16,-1
 470 1576 l 1,17,-1
 676 1576 l 1,18,-1
 676 1410 l 1,19,20
 776 1401 776 1401 863 1369.5 c 128,-1,21
 950 1338 950 1338 1028 1290 c 1,22,-1
 924 1056 l 1,23,-1
 812 1092 l 2,24,25
 777 1103 777 1103 743 1111 c 128,-1,26
 709 1119 709 1119 676 1124 c 1,27,-1
 676 836 l 1,28,29
 814 789 814 789 898.5 734.5 c 128,-1,30
 983 680 983 680 1029.5 620.5 c 128,-1,31
 1076 561 1076 561 1092 498.5 c 128,-1,32
 1108 436 1108 436 1108 374 c 0,33,34
 1108 302 1108 302 1076.5 233.5 c 128,-1,35
 1045 165 1045 165 988 110.5 c 128,-1,36
 931 56 931 56 851.5 21 c 128,-1,37
 772 -14 772 -14 676 -20 c 1,38,-1
 676 -186 l 1,39,-1
 470 -186 l 1,40,-1
 470 -30 l 1,41,42
 426 -26 426 -26 376.5 -17.5 c 128,-1,43
 327 -9 327 -9 276.5 5 c 128,-1,44
 226 19 226 19 176.5 39.5 c 128,-1,45
 127 60 127 60 84 88 c 1,46,-1
 186 334 l 1,0,1
470 1102 m 1,47,48
 434 1084 434 1084 412 1060 c 128,-1,49
 390 1036 390 1036 390 998 c 0,50,51
 390 967 390 967 405 940.5 c 128,-1,52
 420 914 420 914 470 894 c 1,53,-1
 470 1102 l 1,47,48
676 290 m 1,54,55
 718 306 718 306 743 326 c 128,-1,56
 768 346 768 346 768 386 c 0,57,58
 768 410 768 410 744.5 436 c 128,-1,59
 721 462 721 462 676 474 c 1,60,-1
 676 290 l 1,54,55
EndSplineSet
EndChar

StartChar: percent
Encoding: 37 37 5
Width: 1818
GlyphClass: 2
Flags: W
LayerCount: 2
Fore
SplineSet
998 1376 m 1,0,-1
 1140 1376 l 1,1,-1
 800 0 l 1,2,-1
 662 0 l 1,3,-1
 998 1376 l 1,0,-1
1396 -32 m 256,4,5
 1303 -32 1303 -32 1233 2.5 c 128,-1,6
 1163 37 1163 37 1116.5 93 c 128,-1,7
 1070 149 1070 149 1047 221 c 128,-1,8
 1024 293 1024 293 1024 368 c 0,9,10
 1024 442 1024 442 1047.5 514 c 128,-1,11
 1071 586 1071 586 1117.5 643 c 128,-1,12
 1164 700 1164 700 1234 735 c 128,-1,13
 1304 770 1304 770 1396 770 c 0,14,15
 1487 770 1487 770 1557 735 c 128,-1,16
 1627 700 1627 700 1673.5 643 c 128,-1,17
 1720 586 1720 586 1744 514 c 128,-1,18
 1768 442 1768 442 1768 368 c 0,19,20
 1768 293 1768 293 1744.5 221 c 128,-1,21
 1721 149 1721 149 1674.5 93 c 128,-1,22
 1628 37 1628 37 1558.5 2.5 c 128,-1,23
 1489 -32 1489 -32 1396 -32 c 256,4,5
1396 172 m 0,24,25
 1424 172 1424 172 1446 189 c 128,-1,26
 1468 206 1468 206 1483 234 c 128,-1,27
 1498 262 1498 262 1506 297 c 128,-1,28
 1514 332 1514 332 1514 368 c 0,29,30
 1514 405 1514 405 1506 440 c 128,-1,31
 1498 475 1498 475 1483 502 c 128,-1,32
 1468 529 1468 529 1446 545.5 c 128,-1,33
 1424 562 1424 562 1396 562 c 0,34,35
 1367 562 1367 562 1345 545.5 c 128,-1,36
 1323 529 1323 529 1308 502 c 128,-1,37
 1293 475 1293 475 1285.5 440 c 128,-1,38
 1278 405 1278 405 1278 368 c 0,39,40
 1278 332 1278 332 1285.5 297 c 128,-1,41
 1293 262 1293 262 1308 234 c 128,-1,42
 1323 206 1323 206 1345 189 c 128,-1,43
 1367 172 1367 172 1396 172 c 0,24,25
420 614 m 0,44,45
 328 614 328 614 258.5 648 c 128,-1,46
 189 682 189 682 142.5 738 c 128,-1,47
 96 794 96 794 73 866 c 128,-1,48
 50 938 50 938 50 1014 c 256,49,50
 50 1090 50 1090 74 1162 c 128,-1,51
 98 1234 98 1234 145 1290 c 128,-1,52
 192 1346 192 1346 262 1380 c 128,-1,53
 332 1414 332 1414 425 1414 c 0,54,55
 516 1414 516 1414 585 1379 c 128,-1,56
 654 1344 654 1344 700.5 1287 c 128,-1,57
 747 1230 747 1230 770.5 1158.5 c 128,-1,58
 794 1087 794 1087 794 1014 c 0,59,60
 794 938 794 938 770.5 866 c 128,-1,61
 747 794 747 794 700 738 c 128,-1,62
 653 682 653 682 583 648 c 128,-1,63
 513 614 513 614 420 614 c 0,44,45
420 816 m 256,64,65
 449 816 449 816 471.5 833 c 128,-1,66
 494 850 494 850 509 878 c 128,-1,67
 524 906 524 906 532 941.5 c 128,-1,68
 540 977 540 977 540 1014 c 256,69,70
 540 1051 540 1051 532 1086 c 128,-1,71
 524 1121 524 1121 509 1148 c 128,-1,72
 494 1175 494 1175 471.5 1191.5 c 128,-1,73
 449 1208 449 1208 420 1208 c 256,74,75
 391 1208 391 1208 369.5 1191.5 c 128,-1,76
 348 1175 348 1175 333.5 1148 c 128,-1,77
 319 1121 319 1121 311.5 1086 c 128,-1,78
 304 1051 304 1051 304 1014 c 256,79,80
 304 977 304 977 311.5 941.5 c 128,-1,81
 319 906 319 906 333.5 878 c 128,-1,82
 348 850 348 850 369.5 833 c 128,-1,83
 391 816 391 816 420 816 c 256,64,65
EndSplineSet
EndChar

StartChar: ampersand
Encoding: 38 38 6
Width: 1375
GlyphClass: 2
Flags: W
LayerCount: 2
Fore
SplineSet
874 103 m 1,0,1
 841 76 841 76 800 51.5 c 128,-1,2
 759 27 759 27 714 8.5 c 128,-1,3
 669 -10 669 -10 621 -21 c 128,-1,4
 573 -32 573 -32 525 -32 c 0,5,6
 427 -32 427 -32 341.5 -5.5 c 128,-1,7
 256 21 256 21 193 73.5 c 128,-1,8
 130 126 130 126 93.5 204 c 128,-1,9
 57 282 57 282 57 384 c 0,10,11
 57 461 57 461 79 519.5 c 128,-1,12
 101 578 101 578 139 622.5 c 128,-1,13
 177 667 177 667 229 700 c 128,-1,14
 281 733 281 733 341 760 c 1,15,16
 199 917 199 917 199 1056 c 0,17,18
 199 1134 199 1134 237 1199.5 c 128,-1,19
 275 1265 275 1265 339.5 1313 c 128,-1,20
 404 1361 404 1361 488.5 1387.5 c 128,-1,21
 573 1414 573 1414 667 1414 c 0,22,23
 770 1414 770 1414 849 1384.5 c 128,-1,24
 928 1355 928 1355 980.5 1305.5 c 128,-1,25
 1033 1256 1033 1256 1060 1192 c 128,-1,26
 1087 1128 1087 1128 1087 1060 c 0,27,28
 1087 1007 1087 1007 1070 954 c 128,-1,29
 1053 901 1053 901 1019 852.5 c 128,-1,30
 985 804 985 804 935 762.5 c 128,-1,31
 885 721 885 721 819 692 c 1,32,33
 836 672 836 672 850.5 654 c 128,-1,34
 865 636 865 636 880.5 616.5 c 128,-1,35
 896 597 896 597 914.5 574.5 c 128,-1,36
 933 552 933 552 957 524 c 1,37,-1
 1121 700 l 1,38,-1
 1305 504 l 1,39,40
 1292 479 1292 479 1277 452.5 c 128,-1,41
 1262 426 1262 426 1242 397.5 c 128,-1,42
 1222 369 1222 369 1195.5 339 c 128,-1,43
 1169 309 1169 309 1133 278 c 1,44,-1
 1375 0 l 1,45,-1
 963 0 l 1,46,-1
 874 103 l 1,0,1
499 528 m 1,47,48
 457 505 457 505 439 470.5 c 128,-1,49
 421 436 421 436 421 398 c 0,50,51
 421 372 421 372 429 349 c 128,-1,52
 437 326 437 326 452.5 308.5 c 128,-1,53
 468 291 468 291 491 280.5 c 128,-1,54
 514 270 514 270 543 270 c 0,55,56
 591 270 591 270 620.5 283.5 c 128,-1,57
 650 297 650 297 667 314 c 1,58,-1
 499 528 l 1,47,48
663 906 m 1,59,60
 723 933 723 933 744 967 c 128,-1,61
 765 1001 765 1001 765 1052 c 0,62,63
 765 1091 765 1091 741 1118.5 c 128,-1,64
 717 1146 717 1146 669 1146 c 0,65,66
 618 1146 618 1146 590.5 1123 c 128,-1,67
 563 1100 563 1100 563 1052 c 0,68,69
 563 1013 563 1013 589 978.5 c 128,-1,70
 615 944 615 944 663 906 c 1,59,60
EndSplineSet
EndChar

StartChar: quotesingle
Encoding: 39 39 7
Width: 406
GlyphClass: 2
Flags: W
LayerCount: 2
Fore
SplineSet
60 1534 m 1,0,-1
 356 1534 l 1,1,-1
 298 1026 l 1,2,-1
 102 1026 l 1,3,-1
 60 1534 l 1,0,-1
EndSplineSet
EndChar

StartChar: parenleft
Encoding: 40 40 8
Width: 855
GlyphClass: 2
Flags: W
LayerCount: 2
Fore
SplineSet
809 -264 m 1,0,1
 614 -246 614 -246 469.5 -166.5 c 128,-1,2
 325 -87 325 -87 230 38 c 128,-1,3
 135 163 135 163 88 324.5 c 128,-1,4
 41 486 41 486 41 668 c 0,5,6
 41 781 41 781 60.5 889 c 128,-1,7
 80 997 80 997 121 1094.5 c 128,-1,8
 162 1192 162 1192 224 1275 c 128,-1,9
 286 1358 286 1358 371.5 1422 c 128,-1,10
 457 1486 457 1486 566 1527.5 c 128,-1,11
 675 1569 675 1569 809 1582 c 1,12,-1
 809 1322 l 1,13,14
 778 1317 778 1317 743 1302 c 128,-1,15
 708 1287 708 1287 673 1256 c 128,-1,16
 638 1225 638 1225 606.5 1177 c 128,-1,17
 575 1129 575 1129 550.5 1058 c 128,-1,18
 526 987 526 987 511.5 890.5 c 128,-1,19
 497 794 497 794 497 668 c 0,20,21
 497 539 497 539 511 441 c 128,-1,22
 525 343 525 343 549 270.5 c 128,-1,23
 573 198 573 198 604.5 148 c 128,-1,24
 636 98 636 98 670.5 66.5 c 128,-1,25
 705 35 705 35 741 18.5 c 128,-1,26
 777 2 777 2 809 -4 c 1,27,-1
 809 -264 l 1,0,1
EndSplineSet
EndChar

StartChar: parenright
Encoding: 41 41 9
Width: 855
GlyphClass: 2
Flags: W
LayerCount: 2
Fore
SplineSet
46 -4 m 1,0,1
 76 1 76 1 111 16.5 c 128,-1,2
 146 32 146 32 181 62.5 c 128,-1,3
 216 93 216 93 248 142.5 c 128,-1,4
 280 192 280 192 304.5 265 c 128,-1,5
 329 338 329 338 343.5 437.5 c 128,-1,6
 358 537 358 537 358 668 c 0,7,8
 358 794 358 794 343.5 890.5 c 128,-1,9
 329 987 329 987 304.5 1058 c 128,-1,10
 280 1129 280 1129 248.5 1177 c 128,-1,11
 217 1225 217 1225 182 1256 c 128,-1,12
 147 1287 147 1287 112 1302 c 128,-1,13
 77 1317 77 1317 46 1322 c 1,14,-1
 46 1582 l 1,15,16
 180 1569 180 1569 289 1527.5 c 128,-1,17
 398 1486 398 1486 483.5 1422 c 128,-1,18
 569 1358 569 1358 631 1275 c 128,-1,19
 693 1192 693 1192 734 1094.5 c 128,-1,20
 775 997 775 997 794.5 889 c 128,-1,21
 814 781 814 781 814 668 c 0,22,23
 814 486 814 486 767 324.5 c 128,-1,24
 720 163 720 163 625 38 c 128,-1,25
 530 -87 530 -87 385.5 -166.5 c 128,-1,26
 241 -246 241 -246 46 -264 c 1,27,-1
 46 -4 l 1,0,1
EndSplineSet
EndChar

StartChar: asterisk
Encoding: 42 42 10
Width: 1096
GlyphClass: 2
Flags: W
LayerCount: 2
Fore
SplineSet
381 884 m 1,0,-1
 65 1022 l 1,1,-1
 175 1240 l 1,2,-1
 451 1074 l 1,3,-1
 429 1408 l 1,4,-1
 677 1408 l 1,5,-1
 651 1076 l 1,6,-1
 919 1244 l 1,7,-1
 1035 1022 l 1,8,-1
 715 884 l 1,9,-1
 949 638 l 1,10,-1
 741 474 l 1,11,-1
 545 770 l 1,12,-1
 353 474 l 1,13,-1
 147 640 l 1,14,-1
 381 884 l 1,0,-1
EndSplineSet
EndChar

StartChar: plus
Encoding: 43 43 11
Width: 1092
GlyphClass: 2
Flags: W
LayerCount: 2
Fore
SplineSet
488 458 m 1,0,-1
 48 458 l 1,1,-1
 48 572 l 1,2,-1
 488 572 l 1,3,-1
 488 1026 l 1,4,-1
 608 1026 l 1,5,-1
 608 572 l 1,6,-1
 1044 572 l 1,7,-1
 1044 458 l 1,8,-1
 608 458 l 1,9,-1
 608 0 l 1,10,-1
 488 0 l 1,11,-1
 488 458 l 1,0,-1
EndSplineSet
EndChar

StartChar: comma
Encoding: 44 44 12
Width: 604
GlyphClass: 2
Flags: W
LayerCount: 2
Fore
SplineSet
94 -106 m 1,0,1
 166 -106 166 -106 204.5 -103.5 c 128,-1,2
 243 -101 243 -101 261 -90.5 c 128,-1,3
 279 -80 279 -80 281.5 -59 c 128,-1,4
 284 -38 284 -38 284 0 c 1,5,-1
 94 0 l 1,6,-1
 94 382 l 1,7,-1
 514 382 l 1,8,9
 510 218 510 218 506.5 100.5 c 128,-1,10
 503 -17 503 -17 491 -97.5 c 128,-1,11
 479 -178 479 -178 454.5 -227 c 128,-1,12
 430 -276 430 -276 385 -302.5 c 128,-1,13
 340 -329 340 -329 269 -337.5 c 128,-1,14
 198 -346 198 -346 94 -346 c 1,15,-1
 94 -106 l 1,0,1
EndSplineSet
EndChar

StartChar: hyphen
Encoding: 45 45 13
Width: 740
GlyphClass: 2
Flags: W
LayerCount: 2
Fore
SplineSet
95 650 m 1,0,-1
 645 650 l 1,1,-1
 645 408 l 1,2,-1
 95 408 l 1,3,-1
 95 650 l 1,0,-1
EndSplineSet
EndChar

StartChar: period
Encoding: 46 46 14
Width: 574
GlyphClass: 2
Flags: W
LayerCount: 2
Fore
SplineSet
58 176 m 0,0,1
 58 217 58 217 76.5 254.5 c 128,-1,2
 95 292 95 292 126.5 320.5 c 128,-1,3
 158 349 158 349 199.5 365.5 c 128,-1,4
 241 382 241 382 288 382 c 0,5,6
 334 382 334 382 375.5 365.5 c 128,-1,7
 417 349 417 349 448.5 320.5 c 128,-1,8
 480 292 480 292 499 254.5 c 128,-1,9
 518 217 518 217 518 176 c 0,10,11
 518 132 518 132 499 94.5 c 128,-1,12
 480 57 480 57 448.5 28.5 c 128,-1,13
 417 0 417 0 375.5 -16 c 128,-1,14
 334 -32 334 -32 288 -32 c 0,15,16
 241 -32 241 -32 199.5 -16 c 128,-1,17
 158 0 158 0 126.5 28.5 c 128,-1,18
 95 57 95 57 76.5 94.5 c 128,-1,19
 58 132 58 132 58 176 c 0,0,1
EndSplineSet
EndChar

StartChar: slash
Encoding: 47 47 15
Width: 658
GlyphClass: 2
Flags: W
LayerCount: 2
Fore
SplineSet
396 1408 m 1,0,-1
 600 1408 l 1,1,-1
 260 0 l 1,2,-1
 60 0 l 1,3,-1
 396 1408 l 1,0,-1
EndSplineSet
EndChar

StartChar: zero
Encoding: 48 48 16
Width: 1480
GlyphClass: 2
Flags: W
LayerCount: 2
Fore
SplineSet
740 -32 m 0,0,1
 628 -31 628 -31 534.5 -2 c 128,-1,2
 441 27 441 27 366.5 77 c 128,-1,3
 292 127 292 127 236 195.5 c 128,-1,4
 180 264 180 264 142.5 344 c 128,-1,5
 105 424 105 424 86.5 512.5 c 128,-1,6
 68 601 68 601 68 692 c 0,7,8
 68 781 68 781 87 869.5 c 128,-1,9
 106 958 106 958 143.5 1038.5 c 128,-1,10
 181 1119 181 1119 237.5 1187.5 c 128,-1,11
 294 1256 294 1256 368.5 1306.5 c 128,-1,12
 443 1357 443 1357 536 1385.5 c 128,-1,13
 629 1414 629 1414 740 1414 c 256,14,15
 851 1414 851 1414 944 1385.5 c 128,-1,16
 1037 1357 1037 1357 1111.5 1306.5 c 128,-1,17
 1186 1256 1186 1256 1242.5 1187.5 c 128,-1,18
 1299 1119 1299 1119 1336.5 1039 c 128,-1,19
 1374 959 1374 959 1393 870.5 c 128,-1,20
 1412 782 1412 782 1412 692 c 256,21,22
 1412 602 1412 602 1393.5 513.5 c 128,-1,23
 1375 425 1375 425 1337.5 344.5 c 128,-1,24
 1300 264 1300 264 1244 195 c 128,-1,25
 1188 126 1188 126 1113.5 75.5 c 128,-1,26
 1039 25 1039 25 945.5 -3.5 c 128,-1,27
 852 -32 852 -32 740 -32 c 0,0,1
740 338 m 0,28,29
 792 338 792 338 831.5 369 c 128,-1,30
 871 400 871 400 898 450 c 128,-1,31
 925 500 925 500 938.5 563.5 c 128,-1,32
 952 627 952 627 952 692 c 0,33,34
 952 759 952 759 938.5 822.5 c 128,-1,35
 925 886 925 886 898 935.5 c 128,-1,36
 871 985 871 985 831.5 1014.5 c 128,-1,37
 792 1044 792 1044 740 1044 c 0,38,39
 687 1044 687 1044 647 1014.5 c 128,-1,40
 607 985 607 985 580 935.5 c 128,-1,41
 553 886 553 886 539.5 822.5 c 128,-1,42
 526 759 526 759 526 692 c 0,43,44
 526 627 526 627 539.5 563.5 c 128,-1,45
 553 500 553 500 580 450 c 128,-1,46
 607 400 607 400 647 369 c 128,-1,47
 687 338 687 338 740 338 c 0,28,29
EndSplineSet
EndChar

StartChar: one
Encoding: 49 49 17
Width: 926
GlyphClass: 2
Flags: W
LayerCount: 2
Fore
SplineSet
88 302 m 1,0,-1
 260 302 l 1,1,-1
 260 988 l 1,2,-1
 88 976 l 1,3,-1
 88 1242 l 1,4,5
 166 1242 166 1242 237 1263 c 128,-1,6
 308 1284 308 1284 362 1308 c 0,7,8
 395 1323 395 1323 426 1339.5 c 128,-1,9
 457 1356 457 1356 486 1376 c 1,10,-1
 700 1376 l 1,11,-1
 700 302 l 1,12,-1
 872 302 l 1,13,-1
 872 0 l 1,14,-1
 88 0 l 1,15,-1
 88 302 l 1,0,-1
EndSplineSet
EndChar

StartChar: two
Encoding: 50 50 18
Width: 1100
GlyphClass: 2
Flags: W
LayerCount: 2
Fore
SplineSet
82 302 m 1,0,1
 215 427 215 427 308.5 528 c 128,-1,2
 402 629 402 629 461 708 c 128,-1,3
 520 787 520 787 547 844.5 c 128,-1,4
 574 902 574 902 574 940 c 0,5,6
 574 968 574 968 560 988 c 128,-1,7
 546 1008 546 1008 524 1020.5 c 128,-1,8
 502 1033 502 1033 475 1038.5 c 128,-1,9
 448 1044 448 1044 422 1044 c 0,10,11
 389 1044 389 1044 352 1034.5 c 128,-1,12
 315 1025 315 1025 280 1011.5 c 128,-1,13
 245 998 245 998 215 984 c 128,-1,14
 185 970 185 970 166 962 c 1,15,-1
 56 1286 l 1,16,17
 110 1308 110 1308 172.5 1329.5 c 128,-1,18
 235 1351 235 1351 301.5 1367.5 c 128,-1,19
 368 1384 368 1384 436 1394 c 128,-1,20
 504 1404 504 1404 570 1404 c 0,21,22
 669 1404 669 1404 752.5 1371 c 128,-1,23
 836 1338 836 1338 896 1278 c 128,-1,24
 956 1218 956 1218 990 1132.5 c 128,-1,25
 1024 1047 1024 1047 1024 942 c 0,26,27
 1024 879 1024 879 1002.5 805 c 128,-1,28
 981 731 981 731 925.5 651 c 128,-1,29
 870 571 870 571 775.5 486.5 c 128,-1,30
 681 402 681 402 536 318 c 1,31,-1
 982 318 l 1,32,-1
 982 0 l 1,33,-1
 82 0 l 1,34,-1
 82 302 l 1,0,1
EndSplineSet
EndChar

StartChar: three
Encoding: 51 51 19
Width: 1071
GlyphClass: 2
Flags: W
LayerCount: 2
Fore
SplineSet
130 358 m 1,0,1
 157 347 157 347 193 335.5 c 128,-1,2
 229 324 229 324 269.5 314 c 128,-1,3
 310 304 310 304 352 298 c 128,-1,4
 394 292 394 292 434 292 c 0,5,6
 520 292 520 292 559.5 320.5 c 128,-1,7
 599 349 599 349 599 409 c 0,8,9
 599 462 599 462 568.5 495.5 c 128,-1,10
 538 529 538 529 486.5 547.5 c 128,-1,11
 435 566 435 566 367.5 573 c 128,-1,12
 300 580 300 580 226 580 c 1,13,-1
 226 834 l 1,14,15
 328 834 328 834 397.5 846 c 128,-1,16
 467 858 467 858 509 878 c 128,-1,17
 551 898 551 898 569 923 c 128,-1,18
 587 948 587 948 587 974 c 0,19,20
 587 1004 587 1004 577 1022.5 c 128,-1,21
 567 1041 567 1041 550 1051 c 128,-1,22
 533 1061 533 1061 508.5 1064.5 c 128,-1,23
 484 1068 484 1068 456 1068 c 0,24,25
 422 1068 422 1068 382 1063 c 128,-1,26
 342 1058 342 1058 299 1050 c 128,-1,27
 256 1042 256 1042 213 1031 c 128,-1,28
 170 1020 170 1020 130 1008 c 1,29,-1
 60 1296 l 1,30,31
 111 1320 111 1320 168.5 1340 c 128,-1,32
 226 1360 226 1360 285.5 1375 c 128,-1,33
 345 1390 345 1390 405 1398 c 128,-1,34
 465 1406 465 1406 522 1406 c 0,35,36
 616 1406 616 1406 693.5 1377 c 128,-1,37
 771 1348 771 1348 826.5 1301 c 128,-1,38
 882 1254 882 1254 912 1194 c 128,-1,39
 942 1134 942 1134 942 1072 c 0,40,41
 942 863 942 863 748 738 c 1,42,43
 811 711 811 711 854.5 676 c 128,-1,44
 898 641 898 641 926.5 604 c 128,-1,45
 955 567 955 567 970.5 529.5 c 128,-1,46
 986 492 986 492 993.5 459.5 c 128,-1,47
 1001 427 1001 427 1002.5 402.5 c 128,-1,48
 1004 378 1004 378 1004 366 c 0,49,50
 1004 268 1004 268 963 194 c 128,-1,51
 922 120 922 120 852.5 69.5 c 128,-1,52
 783 19 783 19 691.5 -6.5 c 128,-1,53
 600 -32 600 -32 500 -32 c 0,54,55
 448 -32 448 -32 391.5 -24.5 c 128,-1,56
 335 -17 335 -17 278 -5 c 128,-1,57
 221 7 221 7 165 23.5 c 128,-1,58
 109 40 109 40 60 58 c 1,59,-1
 130 358 l 1,0,1
EndSplineSet
EndChar

StartChar: four
Encoding: 52 52 20
Width: 1320
GlyphClass: 2
Flags: W
LayerCount: 2
Fore
SplineSet
36 622 m 1,0,-1
 594 1376 l 1,1,-1
 1080 1376 l 1,2,-1
 1080 622 l 1,3,-1
 1256 622 l 1,4,-1
 1256 326 l 1,5,-1
 1080 326 l 1,6,-1
 1080 0 l 1,7,-1
 614 0 l 1,8,-1
 614 328 l 1,9,-1
 36 328 l 1,10,-1
 36 622 l 1,0,-1
614 622 m 1,11,-1
 614 1006 l 1,12,-1
 354 622 l 1,13,-1
 614 622 l 1,11,-1
EndSplineSet
EndChar

StartChar: five
Encoding: 53 53 21
Width: 1116
GlyphClass: 2
Flags: W
LayerCount: 2
Fore
SplineSet
124 358 m 1,0,1
 178 339 178 339 238 325 c 1,2,3
 289 312 289 312 354 302 c 128,-1,4
 419 292 419 292 487 292 c 0,5,6
 526 292 526 292 555.5 306 c 128,-1,7
 585 320 585 320 604.5 343 c 128,-1,8
 624 366 624 366 633.5 394.5 c 128,-1,9
 643 423 643 423 643 453 c 0,10,11
 643 481 643 481 634.5 507.5 c 128,-1,12
 626 534 626 534 609.5 554.5 c 128,-1,13
 593 575 593 575 568.5 587.5 c 128,-1,14
 544 600 544 600 512 600 c 0,15,16
 431 600 431 600 308 516 c 1,17,-1
 88 612 l 1,18,-1
 142 1376 l 1,19,-1
 952 1376 l 1,20,-1
 922 1072 l 1,21,-1
 428 1072 l 1,22,-1
 404 872 l 1,23,24
 470 893 470 893 522.5 905.5 c 128,-1,25
 575 918 575 918 626 918 c 0,26,27
 705 918 705 918 768.5 897.5 c 128,-1,28
 832 877 832 877 880 842 c 128,-1,29
 928 807 928 807 962 760 c 128,-1,30
 996 713 996 713 1018 661.5 c 128,-1,31
 1040 610 1040 610 1050 556 c 128,-1,32
 1060 502 1060 502 1060 452 c 0,33,34
 1060 336 1060 336 1013.5 246 c 128,-1,35
 967 156 967 156 889 94 c 128,-1,36
 811 32 811 32 708.5 0 c 128,-1,37
 606 -32 606 -32 494 -32 c 0,38,39
 443 -32 443 -32 391 -24.5 c 128,-1,40
 339 -17 339 -17 288 -5 c 128,-1,41
 237 7 237 7 188.5 23.5 c 128,-1,42
 140 40 140 40 96 58 c 1,43,-1
 124 358 l 1,0,1
EndSplineSet
EndChar

StartChar: six
Encoding: 54 54 22
Width: 1363
GlyphClass: 2
Flags: W
LayerCount: 2
Fore
SplineSet
1132 962 m 1,0,1
 1038 1004 1038 1004 954 1030 c 128,-1,2
 870 1056 870 1056 792 1056 c 0,3,4
 747 1056 747 1056 706 1042.5 c 128,-1,5
 665 1029 665 1029 631.5 996 c 128,-1,6
 598 963 598 963 573 908 c 128,-1,7
 548 853 548 853 534 770 c 1,8,9
 589 818 589 818 660 850 c 128,-1,10
 731 882 731 882 824 882 c 0,11,12
 953 882 953 882 1043.5 845 c 128,-1,13
 1134 808 1134 808 1191 746.5 c 128,-1,14
 1248 685 1248 685 1274 606.5 c 128,-1,15
 1300 528 1300 528 1300 446 c 0,16,17
 1300 371 1300 371 1277.5 307 c 128,-1,18
 1255 243 1255 243 1215.5 190 c 128,-1,19
 1176 137 1176 137 1121.5 95.5 c 128,-1,20
 1067 54 1067 54 1003 25.5 c 128,-1,21
 939 -3 939 -3 868 -17.5 c 128,-1,22
 797 -32 797 -32 724 -32 c 0,23,24
 642 -32 642 -32 562 -15 c 128,-1,25
 482 2 482 2 409.5 37.5 c 128,-1,26
 337 73 337 73 275 127.5 c 128,-1,27
 213 182 213 182 167.5 258 c 128,-1,28
 122 334 122 334 96 431.5 c 128,-1,29
 70 529 70 529 70 650 c 0,30,31
 70 819 70 819 121.5 959.5 c 128,-1,32
 173 1100 173 1100 263.5 1201 c 128,-1,33
 354 1302 354 1302 476.5 1358 c 128,-1,34
 599 1414 599 1414 742 1414 c 0,35,36
 863 1414 863 1414 986 1379 c 128,-1,37
 1109 1344 1109 1344 1242 1266 c 1,38,-1
 1132 962 l 1,0,1
536 544 m 1,39,40
 551 426 551 426 591 364 c 128,-1,41
 631 302 631 302 700 302 c 0,42,43
 742 302 742 302 774.5 314.5 c 128,-1,44
 807 327 807 327 828.5 347.5 c 128,-1,45
 850 368 850 368 861 393.5 c 128,-1,46
 872 419 872 419 872 446 c 0,47,48
 872 468 872 468 863 491 c 128,-1,49
 854 514 854 514 835 532.5 c 128,-1,50
 816 551 816 551 787.5 562.5 c 128,-1,51
 759 574 759 574 720 574 c 0,52,53
 663 574 663 574 618.5 566.5 c 128,-1,54
 574 559 574 559 536 544 c 1,39,40
EndSplineSet
EndChar

StartChar: seven
Encoding: 55 55 23
Width: 955
GlyphClass: 2
Flags: W
LayerCount: 2
Fore
SplineSet
492 1078 m 1,0,-1
 54 1078 l 1,1,-1
 54 1376 l 1,2,-1
 912 1376 l 1,3,-1
 912 1038 l 1,4,-1
 478 -34 l 1,5,-1
 98 122 l 1,6,-1
 492 1078 l 1,0,-1
EndSplineSet
EndChar

StartChar: eight
Encoding: 56 56 24
Width: 1304
GlyphClass: 2
Flags: W
LayerCount: 2
Fore
SplineSet
315 702 m 1,0,1
 282 729 282 729 254 762 c 128,-1,2
 226 795 226 795 206 835.5 c 128,-1,3
 186 876 186 876 174.5 924.5 c 128,-1,4
 163 973 163 973 163 1032 c 0,5,6
 163 1129 163 1129 205 1201 c 128,-1,7
 247 1273 247 1273 315.5 1320.5 c 128,-1,8
 384 1368 384 1368 471.5 1391 c 128,-1,9
 559 1414 559 1414 651 1414 c 0,10,11
 742 1414 742 1414 829 1393.5 c 128,-1,12
 916 1373 916 1373 984.5 1331 c 128,-1,13
 1053 1289 1053 1289 1095 1224.5 c 128,-1,14
 1137 1160 1137 1160 1137 1072 c 0,15,16
 1137 1018 1137 1018 1124.5 975.5 c 128,-1,17
 1112 933 1112 933 1090 900 c 128,-1,18
 1068 867 1068 867 1037.5 842 c 128,-1,19
 1007 817 1007 817 971 798 c 1,20,21
 1026 769 1026 769 1075.5 732 c 128,-1,22
 1125 695 1125 695 1161.5 648 c 128,-1,23
 1198 601 1198 601 1219.5 541 c 128,-1,24
 1241 481 1241 481 1241 406 c 0,25,26
 1241 298 1241 298 1197.5 216 c 128,-1,27
 1154 134 1154 134 1076 79 c 128,-1,28
 998 24 998 24 890 -4 c 128,-1,29
 782 -32 782 -32 653 -32 c 0,30,31
 527 -32 527 -32 418.5 -5.5 c 128,-1,32
 310 21 310 21 230.5 73.5 c 128,-1,33
 151 126 151 126 106 204 c 128,-1,34
 61 282 61 282 61 384 c 0,35,36
 61 450 61 450 80.5 500 c 128,-1,37
 100 550 100 550 134.5 587.5 c 128,-1,38
 169 625 169 625 215.5 652.5 c 128,-1,39
 262 680 262 680 315 702 c 1,0,1
547 568 m 1,40,41
 517 538 517 538 500 499 c 128,-1,42
 483 460 483 460 483 406 c 0,43,44
 483 379 483 379 494 353 c 128,-1,45
 505 327 505 327 526.5 306.5 c 128,-1,46
 548 286 548 286 580 274 c 128,-1,47
 612 262 612 262 655 262 c 0,48,49
 697 262 697 262 729 270.5 c 128,-1,50
 761 279 761 279 783 293.5 c 128,-1,51
 805 308 805 308 816 326 c 128,-1,52
 827 344 827 344 827 364 c 0,53,54
 827 401 827 401 804 429.5 c 128,-1,55
 781 458 781 458 742.5 481 c 128,-1,56
 704 504 704 504 653 525 c 128,-1,57
 602 546 602 546 547 568 c 1,40,41
741 878 m 1,58,59
 770 905 770 905 785.5 938.5 c 128,-1,60
 801 972 801 972 801 1020 c 0,61,62
 801 1044 801 1044 794.5 1069 c 128,-1,63
 788 1094 788 1094 771.5 1114.5 c 128,-1,64
 755 1135 755 1135 726.5 1148.5 c 128,-1,65
 698 1162 698 1162 653 1162 c 256,66,67
 608 1162 608 1162 578 1153 c 128,-1,68
 548 1144 548 1144 530.5 1129 c 128,-1,69
 513 1114 513 1114 506 1096 c 128,-1,70
 499 1078 499 1078 499 1060 c 0,71,72
 499 1028 499 1028 517.5 1002 c 128,-1,73
 536 976 536 976 569 954.5 c 128,-1,74
 602 933 602 933 646 914.5 c 128,-1,75
 690 896 690 896 741 878 c 1,58,59
EndSplineSet
EndChar

StartChar: nine
Encoding: 57 57 25
Width: 1361
GlyphClass: 2
Flags: W
LayerCount: 2
Fore
SplineSet
229 422 m 1,0,1
 323 380 323 380 408.5 354 c 128,-1,2
 494 328 494 328 569 328 c 0,3,4
 617 328 617 328 659 341.5 c 128,-1,5
 701 355 701 355 734.5 386.5 c 128,-1,6
 768 418 768 418 791.5 468.5 c 128,-1,7
 815 519 815 519 827 594 c 1,8,9
 776 552 776 552 711.5 527 c 128,-1,10
 647 502 647 502 559 502 c 0,11,12
 424 502 424 502 329 539 c 128,-1,13
 234 576 234 576 175 637 c 128,-1,14
 116 698 116 698 89 776.5 c 128,-1,15
 62 855 62 855 62 938 c 0,16,17
 62 1028 62 1028 99 1113.5 c 128,-1,18
 136 1199 136 1199 210 1266 c 128,-1,19
 284 1333 284 1333 396.5 1373.5 c 128,-1,20
 509 1414 509 1414 661 1414 c 0,21,22
 765 1414 765 1414 852 1387.5 c 128,-1,23
 939 1361 939 1361 1009 1313 c 128,-1,24
 1079 1265 1079 1265 1132 1198.5 c 128,-1,25
 1185 1132 1185 1132 1220 1051.5 c 128,-1,26
 1255 971 1255 971 1273 880 c 128,-1,27
 1291 789 1291 789 1291 692 c 0,28,29
 1291 524 1291 524 1239 390 c 128,-1,30
 1187 256 1187 256 1097 162 c 128,-1,31
 1007 68 1007 68 884.5 18 c 128,-1,32
 762 -32 762 -32 621 -32 c 0,33,34
 500 -32 500 -32 376.5 4 c 128,-1,35
 253 40 253 40 121 118 c 1,36,-1
 229 422 l 1,0,1
825 818 m 1,37,38
 810 948 810 948 770 1014 c 128,-1,39
 730 1080 730 1080 661 1080 c 0,40,41
 617 1080 617 1080 584.5 1067.5 c 128,-1,42
 552 1055 552 1055 531 1035 c 128,-1,43
 510 1015 510 1015 499.5 989.5 c 128,-1,44
 489 964 489 964 489 938 c 0,45,46
 489 911 489 911 498.5 884 c 128,-1,47
 508 857 508 857 527.5 836 c 128,-1,48
 547 815 547 815 575 801.5 c 128,-1,49
 603 788 603 788 641 788 c 0,50,51
 698 788 698 788 742.5 796 c 128,-1,52
 787 804 787 804 825 818 c 1,37,38
EndSplineSet
EndChar

StartChar: colon
Encoding: 58 58 26
Width: 634
GlyphClass: 2
Flags: W
LayerCount: 2
Fore
SplineSet
87 206 m 0,0,1
 87 248 87 248 105.5 285.5 c 128,-1,2
 124 323 124 323 155.5 351.5 c 128,-1,3
 187 380 187 380 229.5 397 c 128,-1,4
 272 414 272 414 319 414 c 0,5,6
 365 414 365 414 406 397 c 128,-1,7
 447 380 447 380 478.5 351.5 c 128,-1,8
 510 323 510 323 528.5 285.5 c 128,-1,9
 547 248 547 248 547 206 c 0,10,11
 547 163 547 163 528.5 125.5 c 128,-1,12
 510 88 510 88 478.5 60 c 128,-1,13
 447 32 447 32 406 16 c 128,-1,14
 365 0 365 0 319 0 c 0,15,16
 272 0 272 0 229.5 16 c 128,-1,17
 187 32 187 32 155.5 60 c 128,-1,18
 124 88 124 88 105.5 125.5 c 128,-1,19
 87 163 87 163 87 206 c 0,0,1
87 820 m 0,20,21
 87 862 87 862 105.5 899.5 c 128,-1,22
 124 937 124 937 155.5 965.5 c 128,-1,23
 187 994 187 994 229.5 1011 c 128,-1,24
 272 1028 272 1028 319 1028 c 0,25,26
 365 1028 365 1028 406 1011 c 128,-1,27
 447 994 447 994 478.5 965.5 c 128,-1,28
 510 937 510 937 528.5 899.5 c 128,-1,29
 547 862 547 862 547 820 c 0,30,31
 547 777 547 777 528.5 739.5 c 128,-1,32
 510 702 510 702 478.5 674 c 128,-1,33
 447 646 447 646 406 630 c 128,-1,34
 365 614 365 614 319 614 c 0,35,36
 272 614 272 614 229.5 630 c 128,-1,37
 187 646 187 646 155.5 674 c 128,-1,38
 124 702 124 702 105.5 739.5 c 128,-1,39
 87 777 87 777 87 820 c 0,20,21
EndSplineSet
EndChar

StartChar: semicolon
Encoding: 59 59 27
Width: 612
GlyphClass: 2
Flags: W
LayerCount: 2
Fore
SplineSet
104 -106 m 1,0,1
 176 -106 176 -106 215 -103.5 c 128,-1,2
 254 -101 254 -101 272 -90.5 c 128,-1,3
 290 -80 290 -80 293 -59 c 128,-1,4
 296 -38 296 -38 296 0 c 1,5,-1
 104 0 l 1,6,-1
 104 382 l 1,7,-1
 524 382 l 1,8,9
 520 218 520 218 516.5 100.5 c 128,-1,10
 513 -17 513 -17 501 -97.5 c 128,-1,11
 489 -178 489 -178 464.5 -227 c 128,-1,12
 440 -276 440 -276 395 -302.5 c 128,-1,13
 350 -329 350 -329 279 -337.5 c 128,-1,14
 208 -346 208 -346 104 -346 c 1,15,-1
 104 -106 l 1,0,1
78 820 m 0,16,17
 78 862 78 862 96.5 899.5 c 128,-1,18
 115 937 115 937 146.5 965.5 c 128,-1,19
 178 994 178 994 220.5 1011 c 128,-1,20
 263 1028 263 1028 310 1028 c 0,21,22
 356 1028 356 1028 397 1011 c 128,-1,23
 438 994 438 994 469.5 965.5 c 128,-1,24
 501 937 501 937 519.5 899.5 c 128,-1,25
 538 862 538 862 538 820 c 0,26,27
 538 777 538 777 519.5 739.5 c 128,-1,28
 501 702 501 702 469.5 674 c 128,-1,29
 438 646 438 646 397 630 c 128,-1,30
 356 614 356 614 310 614 c 0,31,32
 263 614 263 614 220.5 630 c 128,-1,33
 178 646 178 646 146.5 674 c 128,-1,34
 115 702 115 702 96.5 739.5 c 128,-1,35
 78 777 78 777 78 820 c 0,16,17
EndSplineSet
EndChar

StartChar: less
Encoding: 60 60 28
Width: 938
GlyphClass: 2
Flags: W
LayerCount: 2
Fore
SplineSet
55 804 m 1,0,-1
 835 1232 l 1,1,-1
 835 924 l 1,2,-1
 227 620 l 1,3,-1
 835 332 l 1,4,-1
 835 0 l 1,5,-1
 55 456 l 1,6,-1
 55 804 l 1,0,-1
EndSplineSet
EndChar

StartChar: equal
Encoding: 61 61 29
Width: 838
GlyphClass: 2
Flags: W
LayerCount: 2
Fore
SplineSet
107 442 m 1,0,-1
 731 442 l 1,1,-1
 731 318 l 1,2,-1
 107 318 l 1,3,-1
 107 442 l 1,0,-1
107 720 m 1,4,-1
 731 720 l 1,5,-1
 731 594 l 1,6,-1
 107 594 l 1,7,-1
 107 720 l 1,4,-1
EndSplineSet
EndChar

StartChar: greater
Encoding: 62 62 30
Width: 938
GlyphClass: 2
Flags: W
LayerCount: 2
Fore
SplineSet
103 332 m 1,0,-1
 711 620 l 1,1,-1
 103 924 l 1,2,-1
 103 1232 l 1,3,-1
 883 804 l 1,4,-1
 883 456 l 1,5,-1
 103 0 l 1,6,-1
 103 332 l 1,0,-1
EndSplineSet
EndChar

StartChar: question
Encoding: 63 63 31
Width: 1035
GlyphClass: 2
Flags: W
LayerCount: 2
Fore
SplineSet
78 1350 m 1,0,1
 297 1440 297 1440 490 1440 c 0,2,3
 588 1440 588 1440 678 1415 c 128,-1,4
 768 1390 768 1390 836.5 1342 c 128,-1,5
 905 1294 905 1294 945.5 1222.5 c 128,-1,6
 986 1151 986 1151 986 1058 c 0,7,8
 986 993 986 993 966.5 944.5 c 128,-1,9
 947 896 947 896 914.5 858.5 c 128,-1,10
 882 821 882 821 841 794 c 128,-1,11
 800 767 800 767 757 745 c 128,-1,12
 714 723 714 723 673 705.5 c 128,-1,13
 632 688 632 688 599.5 670.5 c 128,-1,14
 567 653 567 653 547.5 633 c 128,-1,15
 528 613 528 613 528 588 c 0,16,17
 528 579 528 579 527 568.5 c 128,-1,18
 526 558 526 558 526 546 c 2,19,-1
 526 520 l 1,20,-1
 240 520 l 1,21,22
 228 562 228 562 216 601.5 c 128,-1,23
 204 641 204 641 204 680 c 0,24,25
 204 742 204 742 228.5 786 c 128,-1,26
 253 830 253 830 289.5 861 c 128,-1,27
 326 892 326 892 369 913.5 c 128,-1,28
 412 935 412 935 448.5 953 c 128,-1,29
 485 971 485 971 509.5 987.5 c 128,-1,30
 534 1004 534 1004 534 1026 c 0,31,32
 534 1047 534 1047 516.5 1060 c 128,-1,33
 499 1073 499 1073 473.5 1080 c 128,-1,34
 448 1087 448 1087 420 1089.5 c 128,-1,35
 392 1092 392 1092 372 1092 c 0,36,37
 336 1092 336 1092 296 1086.5 c 128,-1,38
 256 1081 256 1081 219 1073 c 128,-1,39
 182 1065 182 1065 152 1055.5 c 128,-1,40
 122 1046 122 1046 106 1038 c 1,41,-1
 78 1350 l 1,0,1
148 176 m 0,42,43
 148 217 148 217 167 254.5 c 128,-1,44
 186 292 186 292 217.5 320.5 c 128,-1,45
 249 349 249 349 291 365.5 c 128,-1,46
 333 382 333 382 380 382 c 0,47,48
 426 382 426 382 467.5 365.5 c 128,-1,49
 509 349 509 349 540.5 320.5 c 128,-1,50
 572 292 572 292 591 254.5 c 128,-1,51
 610 217 610 217 610 176 c 0,52,53
 610 132 610 132 591 94.5 c 128,-1,54
 572 57 572 57 540.5 28.5 c 128,-1,55
 509 0 509 0 467.5 -16 c 128,-1,56
 426 -32 426 -32 380 -32 c 0,57,58
 333 -32 333 -32 291 -16 c 128,-1,59
 249 0 249 0 217.5 28.5 c 128,-1,60
 186 57 186 57 167 94.5 c 128,-1,61
 148 132 148 132 148 176 c 0,42,43
EndSplineSet
EndChar

StartChar: at
Encoding: 64 64 32
Width: 1769
Flags: W
LayerCount: 2
Fore
SplineSet
1052 528 m 1,0,1
 1012 451 1012 451 945.5 415 c 128,-1,2
 879 379 879 379 804 379 c 0,3,4
 742 379 742 379 681.5 405.5 c 128,-1,5
 621 432 621 432 573.5 480.5 c 128,-1,6
 526 529 526 529 496.5 597.5 c 128,-1,7
 467 666 467 666 467 750 c 0,8,9
 467 832 467 832 497.5 898.5 c 128,-1,10
 528 965 528 965 576.5 1012 c 128,-1,11
 625 1059 625 1059 685.5 1085 c 128,-1,12
 746 1111 746 1111 806 1111 c 0,13,14
 886 1111 886 1111 966.5 1108 c 128,-1,15
 1047 1105 1047 1105 1113 1101 c 0,16,17
 1190 1097 1190 1097 1261 1091 c 1,18,-1
 1261 622 l 1,19,20
 1282 600 1282 600 1301.5 590.5 c 128,-1,21
 1321 581 1321 581 1336 581 c 0,22,23
 1367 581 1367 581 1390 603 c 128,-1,24
 1413 625 1413 625 1427.5 660.5 c 128,-1,25
 1442 696 1442 696 1449 741.5 c 128,-1,26
 1456 787 1456 787 1456 835 c 0,27,28
 1456 1053 1456 1053 1319.5 1165 c 128,-1,29
 1183 1277 1183 1277 910 1277 c 0,30,31
 763 1277 763 1277 653 1230.5 c 128,-1,32
 543 1184 543 1184 469 1108 c 128,-1,33
 395 1032 395 1032 358 935 c 128,-1,34
 321 838 321 838 321 737 c 0,35,36
 321 638 321 638 357 544 c 128,-1,37
 393 450 393 450 465 376.5 c 128,-1,38
 537 303 537 303 645.5 258 c 128,-1,39
 754 213 754 213 900 213 c 0,40,41
 1004 213 1004 213 1106.5 234.5 c 128,-1,42
 1209 256 1209 256 1310 307 c 1,43,-1
 1430 103 l 1,44,45
 1302 28 1302 28 1173 -2 c 128,-1,46
 1044 -32 1044 -32 900 -32 c 0,47,48
 760 -32 760 -32 643.5 -2 c 128,-1,49
 527 28 527 28 434 81.5 c 128,-1,50
 341 135 341 135 271.5 207.5 c 128,-1,51
 202 280 202 280 155.5 365.5 c 128,-1,52
 109 451 109 451 86 545.5 c 128,-1,53
 63 640 63 640 63 736 c 0,54,55
 63 833 63 833 86.5 928.5 c 128,-1,56
 110 1024 110 1024 157 1111 c 128,-1,57
 204 1198 204 1198 274.5 1272 c 128,-1,58
 345 1346 345 1346 439 1400 c 128,-1,59
 533 1454 533 1454 650.5 1485 c 128,-1,60
 768 1516 768 1516 908 1516 c 0,61,62
 1083 1516 1083 1516 1231 1473 c 128,-1,63
 1379 1430 1379 1430 1487 1345.5 c 128,-1,64
 1595 1261 1595 1261 1655.5 1134 c 128,-1,65
 1716 1007 1716 1007 1716 839 c 0,66,67
 1716 732 1716 732 1692 646.5 c 128,-1,68
 1668 561 1668 561 1623 501 c 128,-1,69
 1578 441 1578 441 1512 409 c 128,-1,70
 1446 377 1446 377 1362 377 c 0,71,72
 1341 377 1341 377 1303 379.5 c 128,-1,73
 1265 382 1265 382 1221 396 c 128,-1,74
 1177 410 1177 410 1132 440.5 c 128,-1,75
 1087 471 1087 471 1052 528 c 1,0,1
1012 902 m 1,76,-1
 876 902 l 2,77,78
 848 902 848 902 822.5 889.5 c 128,-1,79
 797 877 797 877 778 855.5 c 128,-1,80
 759 834 759 834 748 805.5 c 128,-1,81
 737 777 737 777 737 745 c 0,82,83
 737 717 737 717 748 692 c 128,-1,84
 759 667 759 667 778 648 c 128,-1,85
 797 629 797 629 822.5 618 c 128,-1,86
 848 607 848 607 876 607 c 0,87,88
 903 607 903 607 927.5 617.5 c 128,-1,89
 952 628 952 628 970.5 646 c 128,-1,90
 989 664 989 664 1000.5 688 c 128,-1,91
 1012 712 1012 712 1012 739 c 2,92,-1
 1012 902 l 1,76,-1
EndSplineSet
EndChar

StartChar: A
Encoding: 65 65 33
Width: 1431
GlyphClass: 2
Flags: W
LayerCount: 2
Fore
SplineSet
400 1408 m 1,0,-1
 1022 1408 l 1,1,-1
 1430 0 l 1,2,-1
 948 0 l 1,3,-1
 894 270 l 1,4,-1
 530 270 l 1,5,-1
 472 0 l 1,6,-1
 10 0 l 1,7,-1
 400 1408 l 1,0,-1
846 522 m 1,8,-1
 712 1138 l 1,9,-1
 574 522 l 1,10,-1
 846 522 l 1,8,-1
EndSplineSet
EndChar

StartChar: B
Encoding: 66 66 34
Width: 1476
GlyphClass: 2
Flags: W
LayerCount: 2
Fore
SplineSet
134 1408 m 1,0,-1
 838 1408 l 2,1,2
 967 1408 967 1408 1065 1380 c 128,-1,3
 1163 1352 1163 1352 1229 1305 c 128,-1,4
 1295 1258 1295 1258 1328.5 1196 c 128,-1,5
 1362 1134 1362 1134 1362 1066 c 0,6,7
 1362 1027 1362 1027 1354 979.5 c 128,-1,8
 1346 932 1346 932 1322 888 c 128,-1,9
 1298 844 1298 844 1254 810.5 c 128,-1,10
 1210 777 1210 777 1138 766 c 1,11,12
 1200 760 1200 760 1245 740.5 c 128,-1,13
 1290 721 1290 721 1322 693 c 128,-1,14
 1354 665 1354 665 1374.5 630.5 c 128,-1,15
 1395 596 1395 596 1406.5 560.5 c 128,-1,16
 1418 525 1418 525 1422 490.5 c 128,-1,17
 1426 456 1426 456 1426 428 c 0,18,19
 1426 347 1426 347 1387.5 265 c 128,-1,20
 1349 183 1349 183 1274 117 c 128,-1,21
 1199 51 1199 51 1087.5 9.5 c 128,-1,22
 976 -32 976 -32 830 -32 c 0,23,24
 646 -32 646 -32 475.5 -22.5 c 128,-1,25
 305 -13 305 -13 134 -2 c 1,26,-1
 134 1408 l 1,0,-1
588 297 m 1,27,28
 635 296 635 296 675 296 c 2,29,-1
 790 296 l 2,30,31
 835 296 835 296 869.5 310 c 128,-1,32
 904 324 904 324 928 346.5 c 128,-1,33
 952 369 952 369 964 397.5 c 128,-1,34
 976 426 976 426 976 456 c 0,35,36
 976 492 976 492 962.5 523 c 128,-1,37
 949 554 949 554 922.5 577 c 128,-1,38
 896 600 896 600 856 613 c 128,-1,39
 816 626 816 626 764 626 c 2,40,-1
 588 626 l 1,41,-1
 588 297 l 1,27,28
752 852 m 2,42,43
 799 852 799 852 834 864.5 c 128,-1,44
 869 877 869 877 891.5 897 c 128,-1,45
 914 917 914 917 925 942 c 128,-1,46
 936 967 936 967 936 992 c 0,47,48
 936 1014 936 1014 929.5 1039.5 c 128,-1,49
 923 1065 923 1065 903.5 1086.5 c 128,-1,50
 884 1108 884 1108 849 1122 c 128,-1,51
 814 1136 814 1136 756 1136 c 2,52,-1
 590 1136 l 1,53,-1
 590 852 l 1,54,-1
 752 852 l 2,42,43
EndSplineSet
EndChar

StartChar: C
Encoding: 67 67 35
Width: 1237
GlyphClass: 2
Flags: W
LayerCount: 2
Fore
SplineSet
1185 71 m 1,0,1
 1091 17 1091 17 994 -7.5 c 128,-1,2
 897 -32 897 -32 797 -32 c 0,3,4
 701 -32 701 -32 609.5 -8.5 c 128,-1,5
 518 15 518 15 437 59 c 128,-1,6
 356 103 356 103 287.5 167.5 c 128,-1,7
 219 232 219 232 169.5 314 c 128,-1,8
 120 396 120 396 92 494.5 c 128,-1,9
 64 593 64 593 63 705 c 1,10,11
 63 873 63 873 122 1009 c 128,-1,12
 181 1145 181 1145 280.5 1240.5 c 128,-1,13
 380 1336 380 1336 511 1387.5 c 128,-1,14
 642 1439 642 1439 785 1439 c 0,15,16
 885 1439 885 1439 984 1416.5 c 128,-1,17
 1083 1394 1083 1394 1183 1337 c 1,18,-1
 1129 1019 l 1,19,20
 1057 1047 1057 1047 993 1061 c 128,-1,21
 929 1075 929 1075 863 1075 c 0,22,23
 789 1075 789 1075 726.5 1053.5 c 128,-1,24
 664 1032 664 1032 619 987 c 128,-1,25
 574 942 574 942 548.5 872.5 c 128,-1,26
 523 803 523 803 523 707 c 0,27,28
 523 612 523 612 550 543 c 128,-1,29
 577 474 577 474 624.5 428 c 128,-1,30
 672 382 672 382 736.5 360 c 128,-1,31
 801 338 801 338 875 338 c 0,32,33
 938 338 938 338 999 353.5 c 128,-1,34
 1060 369 1060 369 1129 396 c 1,35,-1
 1185 71 l 1,0,1
EndSplineSet
EndChar

StartChar: D
Encoding: 68 68 36
Width: 1565
GlyphClass: 2
Flags: W
LayerCount: 2
Fore
SplineSet
134 1408 m 1,0,-1
 746 1408 l 2,1,2
 872 1408 872 1408 976.5 1381 c 128,-1,3
 1081 1354 1081 1354 1165 1306.5 c 128,-1,4
 1249 1259 1249 1259 1311.5 1194 c 128,-1,5
 1374 1129 1374 1129 1416 1052 c 128,-1,6
 1458 975 1458 975 1479 889 c 128,-1,7
 1500 803 1500 803 1500 714 c 0,8,9
 1500 568 1500 568 1451 438.5 c 128,-1,10
 1402 309 1402 309 1307 211.5 c 128,-1,11
 1212 114 1212 114 1071 57 c 128,-1,12
 930 0 930 0 746 0 c 2,13,-1
 134 0 l 1,14,-1
 134 1408 l 1,0,-1
746 368 m 2,15,16
 819 368 819 368 874.5 400 c 128,-1,17
 930 432 930 432 966.5 482 c 128,-1,18
 1003 532 1003 532 1021.5 594.5 c 128,-1,19
 1040 657 1040 657 1040 718 c 0,20,21
 1040 777 1040 777 1022 835 c 128,-1,22
 1004 893 1004 893 967.5 938.5 c 128,-1,23
 931 984 931 984 876 1012 c 128,-1,24
 821 1040 821 1040 746 1040 c 2,25,-1
 586 1040 l 1,26,-1
 586 368 l 1,27,-1
 746 368 l 2,15,16
EndSplineSet
EndChar

StartChar: E
Encoding: 69 69 37
Width: 1218
GlyphClass: 2
Flags: W
LayerCount: 2
Fore
SplineSet
134 1408 m 1,0,-1
 1122 1408 l 1,1,-1
 1122 1098 l 1,2,-1
 630 1098 l 1,3,-1
 630 842 l 1,4,-1
 1080 842 l 1,5,-1
 1080 584 l 1,6,-1
 630 584 l 1,7,-1
 630 308 l 1,8,-1
 1122 308 l 1,9,-1
 1122 0 l 1,10,-1
 134 0 l 1,11,-1
 134 1408 l 1,0,-1
EndSplineSet
EndChar

StartChar: F
Encoding: 70 70 38
Width: 1168
GlyphClass: 2
Flags: W
LayerCount: 2
Fore
SplineSet
134 1408 m 1,0,-1
 1104 1408 l 1,1,-1
 1104 1098 l 1,2,-1
 574 1098 l 1,3,-1
 574 814 l 1,4,-1
 1064 814 l 1,5,-1
 1064 554 l 1,6,-1
 574 554 l 1,7,-1
 574 0 l 1,8,-1
 134 0 l 1,9,-1
 134 1408 l 1,0,-1
EndSplineSet
EndChar

StartChar: G
Encoding: 71 71 39
Width: 1349
GlyphClass: 2
Flags: W
LayerCount: 2
Fore
SplineSet
907 674 m 1,0,-1
 1261 714 l 1,1,-1
 1261 74 l 1,2,3
 1131 17 1131 17 1010.5 -7.5 c 128,-1,4
 890 -32 890 -32 769 -32 c 0,5,6
 671 -32 671 -32 580.5 -5.5 c 128,-1,7
 490 21 490 21 411.5 69.5 c 128,-1,8
 333 118 333 118 268.5 186 c 128,-1,9
 204 254 204 254 158 337 c 128,-1,10
 112 420 112 420 86.5 516 c 128,-1,11
 61 612 61 612 61 716 c 0,12,13
 61 817 61 817 87 910 c 128,-1,14
 113 1003 113 1003 160 1083.5 c 128,-1,15
 207 1164 207 1164 272.5 1230 c 128,-1,16
 338 1296 338 1296 416 1342.5 c 128,-1,17
 494 1389 494 1389 583 1414.5 c 128,-1,18
 672 1440 672 1440 767 1440 c 0,19,20
 885 1440 885 1440 1004 1417.5 c 128,-1,21
 1123 1395 1123 1395 1241 1338 c 1,22,-1
 1105 1020 l 1,23,24
 1033 1043 1033 1043 960.5 1060.5 c 128,-1,25
 888 1078 888 1078 825 1078 c 0,26,27
 748 1078 748 1078 690 1045.5 c 128,-1,28
 632 1013 632 1013 593.5 961 c 128,-1,29
 555 909 555 909 536 843 c 128,-1,30
 517 777 517 777 517 711 c 0,31,32
 517 642 517 642 537.5 574.5 c 128,-1,33
 558 507 558 507 597 454 c 128,-1,34
 636 401 636 401 693.5 368.5 c 128,-1,35
 751 336 751 336 825 336 c 0,36,37
 862 336 862 336 907 342 c 1,38,-1
 907 674 l 1,0,-1
EndSplineSet
EndChar

StartChar: H
Encoding: 72 72 40
Width: 1626
GlyphClass: 2
Flags: W
LayerCount: 2
Fore
SplineSet
134 1408 m 1,0,-1
 594 1408 l 1,1,-1
 594 848 l 1,2,-1
 1030 848 l 1,3,-1
 1030 1408 l 1,4,-1
 1492 1408 l 1,5,-1
 1492 0 l 1,6,-1
 1030 0 l 1,7,-1
 1030 552 l 1,8,-1
 594 552 l 1,9,-1
 594 0 l 1,10,-1
 134 0 l 1,11,-1
 134 1408 l 1,0,-1
EndSplineSet
EndChar

StartChar: I
Encoding: 73 73 41
Width: 740
GlyphClass: 2
Flags: W
LayerCount: 2
Fore
SplineSet
134 1408 m 1,0,-1
 606 1408 l 1,1,-1
 606 0 l 1,2,-1
 134 0 l 1,3,-1
 134 1408 l 1,0,-1
EndSplineSet
EndChar

StartChar: J
Encoding: 74 74 42
Width: 934
GlyphClass: 2
Flags: W
LayerCount: 2
Fore
SplineSet
94 270 m 1,0,1
 130 258 130 258 164.5 250 c 128,-1,2
 199 242 199 242 234 242 c 0,3,4
 262 242 262 242 287 250.5 c 128,-1,5
 312 259 312 259 330.5 278.5 c 128,-1,6
 349 298 349 298 359.5 330.5 c 128,-1,7
 370 363 370 363 370 412 c 2,8,-1
 370 1408 l 1,9,-1
 810 1408 l 1,10,-1
 810 412 l 2,11,12
 810 277 810 277 771.5 181.5 c 128,-1,13
 733 86 733 86 668.5 25 c 128,-1,14
 604 -36 604 -36 521 -64 c 128,-1,15
 438 -92 438 -92 350 -92 c 0,16,17
 160 -92 160 -92 -2 16 c 1,18,-1
 94 270 l 1,0,1
EndSplineSet
EndChar

StartChar: K
Encoding: 75 75 43
Width: 1570
GlyphClass: 2
Flags: W
LayerCount: 2
Fore
SplineSet
134 1408 m 1,0,-1
 608 1408 l 1,1,-1
 608 834 l 1,2,-1
 756 834 l 1,3,-1
 1028 1408 l 1,4,-1
 1502 1408 l 1,5,-1
 1502 1316 l 1,6,-1
 1178 710 l 1,7,-1
 1548 92 l 1,8,-1
 1548 0 l 1,9,-1
 1050 0 l 1,10,-1
 748 560 l 1,11,-1
 608 560 l 1,12,-1
 608 0 l 1,13,-1
 134 0 l 1,14,-1
 134 1408 l 1,0,-1
EndSplineSet
EndChar

StartChar: L
Encoding: 76 76 44
Width: 1102
GlyphClass: 2
Flags: W
LayerCount: 2
Fore
SplineSet
134 1408 m 1,0,-1
 576 1408 l 1,1,-1
 576 302 l 1,2,-1
 1064 302 l 1,3,-1
 1064 0 l 1,4,-1
 134 0 l 1,5,-1
 134 1408 l 1,0,-1
EndSplineSet
EndChar

StartChar: M
Encoding: 77 77 45
Width: 1816
GlyphClass: 2
Flags: W
LayerCount: 2
Fore
SplineSet
134 1408 m 1,0,-1
 560 1408 l 1,1,-1
 912 724 l 1,2,-1
 1256 1408 l 1,3,-1
 1682 1408 l 1,4,-1
 1682 0 l 1,5,-1
 1256 0 l 1,6,-1
 1256 752 l 1,7,-1
 996 260 l 1,8,-1
 822 260 l 1,9,-1
 560 752 l 1,10,-1
 560 0 l 1,11,-1
 134 0 l 1,12,-1
 134 1408 l 1,0,-1
EndSplineSet
EndChar

StartChar: N
Encoding: 78 78 46
Width: 1606
GlyphClass: 2
Flags: W
LayerCount: 2
Fore
SplineSet
134 1408 m 1,0,-1
 544 1408 l 1,1,-1
 1106 650 l 1,2,-1
 1106 1408 l 1,3,-1
 1472 1408 l 1,4,-1
 1472 0 l 1,5,-1
 1062 0 l 1,6,-1
 498 734 l 1,7,-1
 498 0 l 1,8,-1
 134 0 l 1,9,-1
 134 1408 l 1,0,-1
EndSplineSet
EndChar

StartChar: O
Encoding: 79 79 47
Width: 1634
GlyphClass: 2
Flags: W
LayerCount: 2
Fore
SplineSet
64 702 m 0,0,1
 64 799 64 799 86 891.5 c 128,-1,2
 108 984 108 984 151 1066 c 128,-1,3
 194 1148 194 1148 258 1216.5 c 128,-1,4
 322 1285 322 1285 406 1334.5 c 128,-1,5
 490 1384 490 1384 593 1411.5 c 128,-1,6
 696 1439 696 1439 818 1439 c 256,7,8
 940 1439 940 1439 1043.5 1411 c 128,-1,9
 1147 1383 1147 1383 1230.5 1333.5 c 128,-1,10
 1314 1284 1314 1284 1377.5 1215.5 c 128,-1,11
 1441 1147 1441 1147 1484 1065 c 128,-1,12
 1527 983 1527 983 1548.5 890.5 c 128,-1,13
 1570 798 1570 798 1570 702 c 0,14,15
 1570 611 1570 611 1549 521.5 c 128,-1,16
 1528 432 1528 432 1486.5 350.5 c 128,-1,17
 1445 269 1445 269 1382.5 199 c 128,-1,18
 1320 129 1320 129 1236.5 77.5 c 128,-1,19
 1153 26 1153 26 1048 -3 c 128,-1,20
 943 -32 943 -32 818 -32 c 0,21,22
 692 -32 692 -32 587.5 -3 c 128,-1,23
 483 26 483 26 399.5 77.5 c 128,-1,24
 316 129 316 129 253 199 c 128,-1,25
 190 269 190 269 148 350.5 c 128,-1,26
 106 432 106 432 85 521.5 c 128,-1,27
 64 611 64 611 64 702 c 0,0,1
818 340 m 0,28,29
 891 340 891 340 946.5 371 c 128,-1,30
 1002 402 1002 402 1038.5 453 c 128,-1,31
 1075 504 1075 504 1093.5 569.5 c 128,-1,32
 1112 635 1112 635 1112 704 c 0,33,34
 1112 775 1112 775 1094 841.5 c 128,-1,35
 1076 908 1076 908 1039.5 960 c 128,-1,36
 1003 1012 1003 1012 947.5 1044.5 c 128,-1,37
 892 1077 892 1077 818 1080 c 1,38,39
 743 1079 743 1079 687.5 1046.5 c 128,-1,40
 632 1014 632 1014 595 961.5 c 128,-1,41
 558 909 558 909 540 841.5 c 128,-1,42
 522 774 522 774 522 704 c 0,43,44
 522 635 522 635 540.5 569.5 c 128,-1,45
 559 504 559 504 596 453 c 128,-1,46
 633 402 633 402 688.5 371 c 128,-1,47
 744 340 744 340 818 340 c 0,28,29
EndSplineSet
EndChar

StartChar: P
Encoding: 80 80 48
Width: 1330
GlyphClass: 2
Flags: W
LayerCount: 2
Fore
SplineSet
134 1408 m 1,0,-1
 642 1408 l 2,1,2
 827 1408 827 1408 953.5 1369 c 128,-1,3
 1080 1330 1080 1330 1157.5 1265 c 128,-1,4
 1235 1200 1235 1200 1268.5 1116 c 128,-1,5
 1302 1032 1302 1032 1302 942 c 0,6,7
 1302 856 1302 856 1262 773 c 128,-1,8
 1222 690 1222 690 1142 625.5 c 128,-1,9
 1062 561 1062 561 942 521.5 c 128,-1,10
 822 482 822 482 662 482 c 2,11,-1
 576 482 l 1,12,-1
 576 0 l 1,13,-1
 134 0 l 1,14,-1
 134 1408 l 1,0,-1
576 770 m 1,15,16
 597 767 597 767 620 766.5 c 128,-1,17
 643 766 643 766 664 766 c 0,18,19
 776 766 776 766 833 813.5 c 128,-1,20
 890 861 890 861 890 942 c 0,21,22
 890 976 890 976 876 1007 c 128,-1,23
 862 1038 862 1038 833.5 1062 c 128,-1,24
 805 1086 805 1086 762.5 1100 c 128,-1,25
 720 1114 720 1114 664 1114 c 2,26,-1
 576 1114 l 1,27,-1
 576 770 l 1,15,16
EndSplineSet
EndChar

StartChar: Q
Encoding: 81 81 49
Width: 1634
GlyphClass: 2
Flags: W
LayerCount: 2
Fore
SplineSet
1570 -124 m 1,0,-1
 1312 -326 l 1,1,-1
 860 -28 l 1,2,3
 840 -32 840 -32 816 -32 c 0,4,5
 690 -32 690 -32 585.5 -2.5 c 128,-1,6
 481 27 481 27 397.5 78.5 c 128,-1,7
 314 130 314 130 251 200 c 128,-1,8
 188 270 188 270 146 352 c 128,-1,9
 104 434 104 434 83 524.5 c 128,-1,10
 62 615 62 615 62 706 c 0,11,12
 62 796 62 796 83 885.5 c 128,-1,13
 104 975 104 975 146 1056.5 c 128,-1,14
 188 1138 188 1138 251.5 1208 c 128,-1,15
 315 1278 315 1278 398.5 1329.5 c 128,-1,16
 482 1381 482 1381 586.5 1410 c 128,-1,17
 691 1439 691 1439 816 1439 c 256,18,19
 941 1439 941 1439 1046 1410 c 128,-1,20
 1151 1381 1151 1381 1234.5 1329.5 c 128,-1,21
 1318 1278 1318 1278 1381 1208 c 128,-1,22
 1444 1138 1444 1138 1486 1056.5 c 128,-1,23
 1528 975 1528 975 1549 885.5 c 128,-1,24
 1570 796 1570 796 1570 706 c 0,25,26
 1570 626 1570 626 1554 545 c 128,-1,27
 1538 464 1538 464 1505 388.5 c 128,-1,28
 1472 313 1472 313 1423 245.5 c 128,-1,29
 1374 178 1374 178 1308 124 c 1,30,-1
 1570 -47 l 1,31,-1
 1570 -124 l 1,0,-1
816 338 m 256,32,33
 890 338 890 338 945.5 370.5 c 128,-1,34
 1001 403 1001 403 1037.5 455.5 c 128,-1,35
 1074 508 1074 508 1092 573.5 c 128,-1,36
 1110 639 1110 639 1110 706 c 0,37,38
 1110 775 1110 775 1092 841.5 c 128,-1,39
 1074 908 1074 908 1037.5 960 c 128,-1,40
 1001 1012 1001 1012 945.5 1043.5 c 128,-1,41
 890 1075 890 1075 816 1075 c 256,42,43
 742 1075 742 1075 687 1043.5 c 128,-1,44
 632 1012 632 1012 595.5 960 c 128,-1,45
 559 908 559 908 540.5 841.5 c 128,-1,46
 522 775 522 775 522 706 c 0,47,48
 522 639 522 639 540.5 573.5 c 128,-1,49
 559 508 559 508 595.5 455.5 c 128,-1,50
 632 403 632 403 687 370.5 c 128,-1,51
 742 338 742 338 816 338 c 256,32,33
EndSplineSet
EndChar

StartChar: R
Encoding: 82 82 50
Width: 1429
GlyphClass: 2
Flags: W
LayerCount: 2
Fore
SplineSet
134 1408 m 1,0,-1
 760 1408 l 2,1,2
 908 1408 908 1408 1018.5 1373 c 128,-1,3
 1129 1338 1129 1338 1201.5 1280 c 128,-1,4
 1274 1222 1274 1222 1310 1147.5 c 128,-1,5
 1346 1073 1346 1073 1346 994 c 0,6,7
 1346 936 1346 936 1332.5 881.5 c 128,-1,8
 1319 827 1319 827 1287.5 778 c 128,-1,9
 1256 729 1256 729 1204 686.5 c 128,-1,10
 1152 644 1152 644 1074 610 c 1,11,12
 1091 532 1091 532 1104.5 478.5 c 128,-1,13
 1118 425 1118 425 1142 392 c 128,-1,14
 1166 359 1166 359 1206.5 344.5 c 128,-1,15
 1247 330 1247 330 1318 330 c 0,16,17
 1328 330 1328 330 1341 331.5 c 128,-1,18
 1354 333 1354 333 1389 338 c 1,19,-1
 1389 4 l 1,20,21
 1338 -10 1338 -10 1288.5 -21 c 128,-1,22
 1239 -32 1239 -32 1200 -32 c 0,23,24
 1090 -32 1090 -32 1011 -4.5 c 128,-1,25
 932 23 932 23 876.5 69.5 c 128,-1,26
 821 116 821 116 787 177 c 128,-1,27
 753 238 753 238 734 306 c 1,28,-1
 678 534 l 1,29,-1
 582 534 l 1,30,-1
 582 0 l 1,31,-1
 134 0 l 1,32,-1
 134 1408 l 1,0,-1
582 822 m 1,33,34
 646 822 646 822 709 825 c 128,-1,35
 772 828 772 828 822.5 842.5 c 128,-1,36
 873 857 873 857 904.5 887.5 c 128,-1,37
 936 918 936 918 936 974 c 0,38,39
 936 999 936 999 927.5 1022.5 c 128,-1,40
 919 1046 919 1046 895 1064 c 128,-1,41
 871 1082 871 1082 829.5 1093 c 128,-1,42
 788 1104 788 1104 722 1104 c 2,43,-1
 582 1104 l 1,44,-1
 582 822 l 1,33,34
EndSplineSet
EndChar

StartChar: S
Encoding: 83 83 51
Width: 1213
GlyphClass: 2
Flags: W
LayerCount: 2
Fore
SplineSet
184 388 m 1,0,1
 234 376 234 376 287 362.5 c 128,-1,2
 340 349 340 349 390 338 c 128,-1,3
 440 327 440 327 484.5 319.5 c 128,-1,4
 529 312 529 312 562 312 c 0,5,6
 658 312 658 312 697 334.5 c 128,-1,7
 736 357 736 357 736 398 c 0,8,9
 736 431 736 431 708.5 453.5 c 128,-1,10
 681 476 681 476 635 493.5 c 128,-1,11
 589 511 589 511 528.5 528 c 128,-1,12
 468 545 468 545 402 568 c 1,13,14
 343 586 343 586 284 619.5 c 128,-1,15
 225 653 225 653 177.5 704 c 128,-1,16
 130 755 130 755 100 824.5 c 128,-1,17
 70 894 70 894 70 984 c 0,18,19
 70 1077 70 1077 91.5 1146.5 c 128,-1,20
 113 1216 113 1216 151 1267 c 128,-1,21
 189 1318 189 1318 241 1351 c 128,-1,22
 293 1384 293 1384 354 1404 c 128,-1,23
 415 1424 415 1424 482 1432 c 128,-1,24
 549 1440 549 1440 618 1440 c 0,25,26
 760 1440 760 1440 878 1411.5 c 128,-1,27
 996 1383 996 1383 1102 1332 c 1,28,29
 1075 1256 1075 1256 1058 1210 c 128,-1,30
 1041 1164 1041 1164 1030 1133 c 128,-1,31
 1019 1102 1019 1102 1010.5 1079 c 128,-1,32
 1002 1056 1002 1056 992 1026 c 1,33,34
 958 1035 958 1035 914 1047.5 c 128,-1,35
 870 1060 870 1060 823.5 1071 c 128,-1,36
 777 1082 777 1082 732 1090 c 128,-1,37
 687 1098 687 1098 652 1098 c 0,38,39
 605 1098 605 1098 574.5 1097 c 128,-1,40
 544 1096 544 1096 525.5 1089.5 c 128,-1,41
 507 1083 507 1083 499.5 1069 c 128,-1,42
 492 1055 492 1055 492 1030 c 0,43,44
 492 1000 492 1000 520 975 c 128,-1,45
 548 950 548 950 602 934 c 1,46,47
 758 898 758 898 863.5 845.5 c 128,-1,48
 969 793 969 793 1033 730.5 c 128,-1,49
 1097 668 1097 668 1124.5 598.5 c 128,-1,50
 1152 529 1152 529 1152 460 c 0,51,52
 1152 330 1152 330 1111 237 c 128,-1,53
 1070 144 1070 144 995.5 84 c 128,-1,54
 921 24 921 24 817.5 -4 c 128,-1,55
 714 -32 714 -32 590 -32 c 0,56,57
 542 -32 542 -32 478.5 -26.5 c 128,-1,58
 415 -21 415 -21 346 -8.5 c 128,-1,59
 277 4 277 4 207 24.5 c 128,-1,60
 137 45 137 45 76 74 c 1,61,62
 107 153 107 153 125.5 206.5 c 128,-1,63
 144 260 144 260 155 295.5 c 128,-1,64
 166 331 166 331 172 352 c 128,-1,65
 178 373 178 373 184 388 c 1,0,1
EndSplineSet
EndChar

StartChar: T
Encoding: 84 84 52
Width: 1182
GlyphClass: 2
Flags: W
LayerCount: 2
Fore
SplineSet
352 1110 m 1,0,-1
 60 1110 l 1,1,-1
 60 1408 l 1,2,-1
 1122 1408 l 1,3,-1
 1122 1110 l 1,4,-1
 830 1110 l 1,5,-1
 830 0 l 1,6,-1
 352 0 l 1,7,-1
 352 1110 l 1,0,-1
EndSplineSet
EndChar

StartChar: U
Encoding: 85 85 53
Width: 1634
GlyphClass: 2
Flags: W
LayerCount: 2
Fore
SplineSet
121 1408 m 1,0,-1
 583 1408 l 1,1,-1
 583 584 l 2,2,3
 583 513 583 513 601.5 465.5 c 128,-1,4
 620 418 620 418 652 389.5 c 128,-1,5
 684 361 684 361 726.5 349.5 c 128,-1,6
 769 338 769 338 817 338 c 0,7,8
 862 338 862 338 904 349.5 c 128,-1,9
 946 361 946 361 979 389.5 c 128,-1,10
 1012 418 1012 418 1031.5 465.5 c 128,-1,11
 1051 513 1051 513 1051 584 c 2,12,-1
 1051 1408 l 1,13,-1
 1513 1408 l 1,14,-1
 1513 584 l 2,15,16
 1513 483 1513 483 1486.5 398 c 128,-1,17
 1460 313 1460 313 1412.5 244.5 c 128,-1,18
 1365 176 1365 176 1299.5 124.5 c 128,-1,19
 1234 73 1234 73 1156.5 38 c 128,-1,20
 1079 3 1079 3 992.5 -14.5 c 128,-1,21
 906 -32 906 -32 817 -32 c 0,22,23
 727 -32 727 -32 641 -14.5 c 128,-1,24
 555 3 555 3 477.5 38 c 128,-1,25
 400 73 400 73 334.5 124.5 c 128,-1,26
 269 176 269 176 221.5 244.5 c 128,-1,27
 174 313 174 313 147.5 398 c 128,-1,28
 121 483 121 483 121 584 c 2,29,-1
 121 1408 l 1,0,-1
EndSplineSet
EndChar

StartChar: V
Encoding: 86 86 54
Width: 1377
GlyphClass: 2
Flags: W
LayerCount: 2
Fore
SplineSet
4 1408 m 1,0,-1
 466 1408 l 1,1,-1
 684 530 l 1,2,-1
 902 1408 l 1,3,-1
 1384 1408 l 1,4,-1
 944 0 l 1,5,-1
 422 0 l 1,6,-1
 4 1408 l 1,0,-1
EndSplineSet
EndChar

StartChar: W
Encoding: 87 87 55
Width: 2028
GlyphClass: 2
Flags: W
LayerCount: 2
Fore
SplineSet
43 1408 m 1,0,-1
 503 1408 l 1,1,-1
 637 510 l 1,2,-1
 775 1170 l 1,3,-1
 1251 1170 l 1,4,-1
 1391 510 l 1,5,-1
 1523 1408 l 1,6,-1
 1985 1408 l 1,7,-1
 1665 0 l 1,8,-1
 1187 0 l 1,9,-1
 1013 758 l 1,10,-1
 839 0 l 1,11,-1
 363 0 l 1,12,-1
 43 1408 l 1,0,-1
EndSplineSet
EndChar

StartChar: X
Encoding: 88 88 56
Width: 1296
GlyphClass: 2
Flags: W
LayerCount: 2
Fore
SplineSet
391 700 m 1,0,-1
 13 1408 l 1,1,-1
 477 1408 l 1,2,-1
 643 1052 l 1,3,-1
 809 1408 l 1,4,-1
 1283 1408 l 1,5,-1
 901 700 l 1,6,-1
 1295 0 l 1,7,-1
 821 0 l 1,8,-1
 643 350 l 1,9,-1
 465 0 l 1,10,-1
 1 0 l 1,11,-1
 391 700 l 1,0,-1
EndSplineSet
EndChar

StartChar: Y
Encoding: 89 89 57
Width: 1253
GlyphClass: 2
Flags: W
LayerCount: 2
Fore
SplineSet
400 392 m 1,0,-1
 -6 1408 l 1,1,-1
 422 1408 l 1,2,-1
 620 776 l 1,3,-1
 816 1408 l 1,4,-1
 1266 1408 l 1,5,-1
 840 392 l 1,6,-1
 840 0 l 1,7,-1
 400 0 l 1,8,-1
 400 392 l 1,0,-1
EndSplineSet
EndChar

StartChar: Z
Encoding: 90 90 58
Width: 1107
GlyphClass: 2
Flags: W
LayerCount: 2
Fore
SplineSet
73 296 m 1,0,-1
 555 1110 l 1,1,-1
 93 1110 l 1,2,-1
 93 1408 l 1,3,-1
 1013 1408 l 1,4,-1
 1013 1110 l 1,5,-1
 543 296 l 1,6,-1
 1034 296 l 1,7,-1
 1034 0 l 1,8,-1
 73 0 l 1,9,-1
 73 296 l 1,0,-1
EndSplineSet
EndChar

StartChar: bracketleft
Encoding: 91 91 59
Width: 915
GlyphClass: 2
Flags: W
LayerCount: 2
Fore
SplineSet
119 1408 m 1,0,-1
 845 1408 l 1,1,-1
 845 1104 l 1,2,-1
 559 1104 l 1,3,-1
 559 302 l 1,4,-1
 845 302 l 1,5,-1
 845 0 l 1,6,-1
 119 0 l 1,7,-1
 119 1408 l 1,0,-1
EndSplineSet
EndChar

StartChar: backslash
Encoding: 92 92 60
Width: 656
GlyphClass: 2
Flags: W
LayerCount: 2
Fore
SplineSet
597 0 m 1,0,-1
 397 0 l 1,1,-1
 57 1408 l 1,2,-1
 261 1408 l 1,3,-1
 597 0 l 1,0,-1
EndSplineSet
EndChar

StartChar: bracketright
Encoding: 93 93 61
Width: 915
GlyphClass: 2
Flags: W
LayerCount: 2
Fore
SplineSet
70 302 m 1,0,-1
 356 302 l 1,1,-1
 356 1104 l 1,2,-1
 70 1104 l 1,3,-1
 70 1408 l 1,4,-1
 796 1408 l 1,5,-1
 796 0 l 1,6,-1
 70 0 l 1,7,-1
 70 302 l 1,0,-1
EndSplineSet
EndChar

StartChar: asciicircum
Encoding: 94 94 62
Width: 1204
GlyphClass: 2
Flags: W
LayerCount: 2
Fore
SplineSet
418 1376 m 1,0,-1
 784 1376 l 1,1,-1
 1134 350 l 1,2,-1
 830 350 l 1,3,-1
 604 1184 l 1,4,-1
 382 350 l 1,5,-1
 72 350 l 1,6,-1
 418 1376 l 1,0,-1
EndSplineSet
EndChar

StartChar: underscore
Encoding: 95 95 63
Width: 844
GlyphClass: 2
Flags: W
LayerCount: 2
Fore
SplineSet
82 142 m 1,0,-1
 762 142 l 1,1,-1
 762 -32 l 1,2,-1
 82 -32 l 1,3,-1
 82 142 l 1,0,-1
EndSplineSet
EndChar

StartChar: grave
Encoding: 96 96 64
Width: 864
GlyphClass: 2
Flags: W
LayerCount: 2
Fore
SplineSet
238 1790 m 1,0,-1
 838 1370 l 1,1,-1
 712 1150 l 1,2,-1
 30 1424 l 1,3,-1
 238 1790 l 1,0,-1
EndSplineSet
EndChar

StartChar: a
Encoding: 97 97 65
Width: 1425
GlyphClass: 2
Flags: W
LayerCount: 2
Fore
SplineSet
890 190 m 1,0,1
 863 133 863 133 826 91 c 128,-1,2
 789 49 789 49 745 22 c 128,-1,3
 701 -5 701 -5 652 -18.5 c 128,-1,4
 603 -32 603 -32 552 -32 c 0,5,6
 460 -32 460 -32 370.5 7.5 c 128,-1,7
 281 47 281 47 210 119 c 128,-1,8
 139 191 139 191 95.5 292.5 c 128,-1,9
 52 394 52 394 52 519 c 0,10,11
 52 600 52 600 73 671.5 c 128,-1,12
 94 743 94 743 130 802.5 c 128,-1,13
 166 862 166 862 214.5 909 c 128,-1,14
 263 956 263 956 319 989 c 128,-1,15
 375 1022 375 1022 435 1039 c 128,-1,16
 495 1056 495 1056 554 1056 c 0,17,18
 605 1056 605 1056 655.5 1038 c 128,-1,19
 706 1020 706 1020 751 987 c 128,-1,20
 796 954 796 954 832 907 c 128,-1,21
 868 860 868 860 890 802 c 1,22,-1
 890 1056 l 1,23,-1
 1320 1026 l 1,24,-1
 1320 0 l 1,25,-1
 890 -32 l 1,26,-1
 890 190 l 1,0,1
890 520 m 1,27,28
 888 559 888 559 871 594.5 c 128,-1,29
 854 630 854 630 826.5 657 c 128,-1,30
 799 684 799 684 763 700 c 128,-1,31
 727 716 727 716 688 716 c 0,32,33
 646 716 646 716 608.5 700 c 128,-1,34
 571 684 571 684 543 656 c 128,-1,35
 515 628 515 628 498.5 591 c 128,-1,36
 482 554 482 554 482 512 c 0,37,38
 482 471 482 471 498.5 434 c 128,-1,39
 515 397 515 397 543 369 c 128,-1,40
 571 341 571 341 608.5 324.5 c 128,-1,41
 646 308 646 308 688 308 c 0,42,43
 727 308 727 308 763 323.5 c 128,-1,44
 799 339 799 339 826.5 365.5 c 128,-1,45
 854 392 854 392 871 427.5 c 128,-1,46
 888 463 888 463 890 504 c 1,47,-1
 890 520 l 1,27,28
EndSplineSet
EndChar

StartChar: b
Encoding: 98 98 66
Width: 1428
GlyphClass: 2
Flags: W
LayerCount: 2
Fore
SplineSet
107 1350 m 1,0,-1
 541 1414 l 1,1,-1
 541 834 l 1,2,3
 568 892 568 892 604 934 c 128,-1,4
 640 976 640 976 683 1003 c 128,-1,5
 726 1030 726 1030 774 1043 c 128,-1,6
 822 1056 822 1056 873 1056 c 0,7,8
 965 1056 965 1056 1055 1017.5 c 128,-1,9
 1145 979 1145 979 1216 907.5 c 128,-1,10
 1287 836 1287 836 1331 735.5 c 128,-1,11
 1375 635 1375 635 1375 512 c 256,12,13
 1375 389 1375 389 1331.5 288.5 c 128,-1,14
 1288 188 1288 188 1217 117 c 128,-1,15
 1146 46 1146 46 1056.5 7 c 128,-1,16
 967 -32 967 -32 875 -32 c 0,17,18
 771 -32 771 -32 683 22 c 128,-1,19
 595 76 595 76 541 190 c 1,20,-1
 541 0 l 1,21,-1
 107 0 l 1,22,-1
 107 1350 l 1,0,-1
541 512 m 2,23,24
 541 471 541 471 557 434 c 128,-1,25
 573 397 573 397 600.5 369 c 128,-1,26
 628 341 628 341 665 324.5 c 128,-1,27
 702 308 702 308 743 308 c 0,28,29
 785 308 785 308 822 324.5 c 128,-1,30
 859 341 859 341 887 369 c 128,-1,31
 915 397 915 397 931 434 c 128,-1,32
 947 471 947 471 947 512 c 0,33,34
 947 554 947 554 931 591 c 128,-1,35
 915 628 915 628 887 656 c 128,-1,36
 859 684 859 684 822 700 c 128,-1,37
 785 716 785 716 743 716 c 0,38,39
 702 716 702 716 666 700 c 128,-1,40
 630 684 630 684 602.5 657 c 128,-1,41
 575 630 575 630 558.5 594.5 c 128,-1,42
 542 559 542 559 541 520 c 1,43,-1
 541 512 l 2,23,24
EndSplineSet
EndChar

StartChar: c
Encoding: 99 99 67
Width: 966
GlyphClass: 2
Flags: W
LayerCount: 2
Fore
SplineSet
918 50 m 1,0,1
 878 30 878 30 840.5 15 c 128,-1,2
 803 0 803 0 765.5 -10.5 c 128,-1,3
 728 -21 728 -21 689 -26.5 c 128,-1,4
 650 -32 650 -32 608 -32 c 0,5,6
 499 -32 499 -32 398.5 5 c 128,-1,7
 298 42 298 42 221 112 c 128,-1,8
 144 182 144 182 98 283 c 128,-1,9
 52 384 52 384 52 512 c 0,10,11
 52 633 52 633 96.5 733 c 128,-1,12
 141 833 141 833 217.5 905 c 128,-1,13
 294 977 294 977 394.5 1016.5 c 128,-1,14
 495 1056 495 1056 608 1056 c 0,15,16
 692 1056 692 1056 765 1032.5 c 128,-1,17
 838 1009 838 1009 922 958 c 1,18,-1
 882 686 l 1,19,20
 822 704 822 704 774.5 712 c 128,-1,21
 727 720 727 720 682 720 c 0,22,23
 636 720 636 720 598.5 704.5 c 128,-1,24
 561 689 561 689 534 661.5 c 128,-1,25
 507 634 507 634 492.5 595.5 c 128,-1,26
 478 557 478 557 478 512 c 256,27,28
 478 467 478 467 493 428.5 c 128,-1,29
 508 390 508 390 535 362 c 128,-1,30
 562 334 562 334 600.5 318 c 128,-1,31
 639 302 639 302 686 302 c 0,32,33
 773 302 773 302 878 336 c 1,34,-1
 918 50 l 1,0,1
EndSplineSet
EndChar

StartChar: d
Encoding: 100 100 68
Width: 1428
GlyphClass: 2
Flags: W
LayerCount: 2
Fore
SplineSet
889 190 m 1,0,1
 862 133 862 133 825 91 c 128,-1,2
 788 49 788 49 744.5 22 c 128,-1,3
 701 -5 701 -5 652 -18.5 c 128,-1,4
 603 -32 603 -32 551 -32 c 0,5,6
 461 -32 461 -32 372 7 c 128,-1,7
 283 46 283 46 212 117 c 128,-1,8
 141 188 141 188 97 288.5 c 128,-1,9
 53 389 53 389 53 512 c 0,10,11
 53 636 53 636 97 736.5 c 128,-1,12
 141 837 141 837 212 908 c 128,-1,13
 283 979 283 979 372.5 1017.5 c 128,-1,14
 462 1056 462 1056 553 1056 c 0,15,16
 605 1056 605 1056 653.5 1043 c 128,-1,17
 702 1030 702 1030 745.5 1003 c 128,-1,18
 789 976 789 976 825.5 934 c 128,-1,19
 862 892 862 892 889 834 c 1,20,-1
 889 1350 l 1,21,-1
 1321 1414 l 1,22,-1
 1321 0 l 1,23,-1
 889 0 l 1,24,-1
 889 190 l 1,0,1
889 520 m 1,25,26
 887 559 887 559 870 594.5 c 128,-1,27
 853 630 853 630 825.5 657 c 128,-1,28
 798 684 798 684 762 700 c 128,-1,29
 726 716 726 716 687 716 c 0,30,31
 645 716 645 716 608 700 c 128,-1,32
 571 684 571 684 543 656 c 128,-1,33
 515 628 515 628 499 591 c 128,-1,34
 483 554 483 554 483 512 c 0,35,36
 483 471 483 471 499 434 c 128,-1,37
 515 397 515 397 543 369 c 128,-1,38
 571 341 571 341 608 324.5 c 128,-1,39
 645 308 645 308 687 308 c 0,40,41
 728 308 728 308 765 324.5 c 128,-1,42
 802 341 802 341 829.5 369 c 128,-1,43
 857 397 857 397 873 434 c 128,-1,44
 889 471 889 471 889 512 c 2,45,-1
 889 520 l 1,25,26
EndSplineSet
EndChar

StartChar: e
Encoding: 101 101 69
Width: 1138
GlyphClass: 2
Flags: W
LayerCount: 2
Fore
SplineSet
1050 52 m 1,0,1
 864 -32 864 -32 632 -32 c 0,2,3
 558 -32 558 -32 486 -15.5 c 128,-1,4
 414 1 414 1 349.5 33 c 128,-1,5
 285 65 285 65 230.5 112 c 128,-1,6
 176 159 176 159 136.5 219.5 c 128,-1,7
 97 280 97 280 74.5 353.5 c 128,-1,8
 52 427 52 427 52 512 c 0,9,10
 52 641 52 641 101 742.5 c 128,-1,11
 150 844 150 844 230 913.5 c 128,-1,12
 310 983 310 983 411.5 1019.5 c 128,-1,13
 513 1056 513 1056 618 1056 c 0,14,15
 709 1056 709 1056 794.5 1024.5 c 128,-1,16
 880 993 880 993 946 929 c 128,-1,17
 1012 865 1012 865 1052 767.5 c 128,-1,18
 1092 670 1092 670 1092 538 c 0,19,20
 1092 528 1092 528 1091 513 c 128,-1,21
 1090 498 1090 498 1088 486 c 1,22,-1
 474 406 l 1,23,24
 488 364 488 364 510.5 336 c 128,-1,25
 533 308 533 308 562 291.5 c 128,-1,26
 591 275 591 275 625.5 268.5 c 128,-1,27
 660 262 660 262 698 262 c 0,28,29
 737 262 737 262 779 268.5 c 128,-1,30
 821 275 821 275 861 285.5 c 128,-1,31
 901 296 901 296 937 309 c 128,-1,32
 973 322 973 322 1000 334 c 1,33,-1
 1050 52 l 1,0,1
774 664 m 1,34,35
 765 698 765 698 749 722.5 c 128,-1,36
 733 747 733 747 712 762.5 c 128,-1,37
 691 778 691 778 667 785 c 128,-1,38
 643 792 643 792 618 792 c 0,39,40
 591 792 591 792 563 781 c 128,-1,41
 535 770 535 770 511.5 746 c 128,-1,42
 488 722 488 722 473 684.5 c 128,-1,43
 458 647 458 647 456 594 c 1,44,-1
 774 664 l 1,34,35
EndSplineSet
EndChar

StartChar: f
Encoding: 102 102 70
Width: 890
GlyphClass: 2
Flags: W
LayerCount: 2
Fore
SplineSet
180 772 m 1,0,-1
 52 772 l 1,1,-1
 52 1026 l 1,2,-1
 180 1026 l 1,3,4
 180 1187 180 1187 206 1292.5 c 128,-1,5
 232 1398 232 1398 280 1460 c 128,-1,6
 328 1522 328 1522 397.5 1547 c 128,-1,7
 467 1572 467 1572 554 1572 c 0,8,9
 639 1572 639 1572 723 1551 c 128,-1,10
 807 1530 807 1530 888 1494 c 1,11,-1
 874 1216 l 1,12,13
 823 1237 823 1237 772 1250.5 c 128,-1,14
 721 1264 721 1264 676 1264 c 0,15,16
 613 1264 613 1264 581 1233 c 128,-1,17
 549 1202 549 1202 549 1148 c 256,18,19
 549 1094 549 1094 584 1026 c 1,20,-1
 870 1026 l 1,21,-1
 870 772 l 1,22,-1
 612 772 l 1,23,-1
 612 0 l 1,24,-1
 180 0 l 1,25,-1
 180 772 l 1,0,-1
EndSplineSet
EndChar

StartChar: g
Encoding: 103 103 71
Width: 1423
GlyphClass: 2
Flags: W
LayerCount: 2
Fore
SplineSet
499 -144 m 1,0,1
 541 -149 541 -149 574 -152.5 c 128,-1,2
 607 -156 607 -156 639 -156 c 0,3,4
 713 -156 713 -156 761.5 -133 c 128,-1,5
 810 -110 810 -110 841 -67.5 c 128,-1,6
 872 -25 872 -25 889 35.5 c 128,-1,7
 906 96 906 96 917 170 c 1,8,9
 884 123 884 123 842.5 90.5 c 128,-1,10
 801 58 801 58 753.5 38 c 128,-1,11
 706 18 706 18 654 9 c 128,-1,12
 602 0 602 0 549 0 c 0,13,14
 488 0 488 0 427.5 16 c 128,-1,15
 367 32 367 32 312 63 c 128,-1,16
 257 94 257 94 209.5 139 c 128,-1,17
 162 184 162 184 127.5 241.5 c 128,-1,18
 93 299 93 299 73.5 369 c 128,-1,19
 54 439 54 439 54 519 c 0,20,21
 54 600 54 600 74 671.5 c 128,-1,22
 94 743 94 743 128.5 802.5 c 128,-1,23
 163 862 163 862 210.5 909 c 128,-1,24
 258 956 258 956 312.5 989 c 128,-1,25
 367 1022 367 1022 426.5 1039 c 128,-1,26
 486 1056 486 1056 545 1056 c 0,27,28
 594 1056 594 1056 647 1040.5 c 128,-1,29
 700 1025 700 1025 747.5 993.5 c 128,-1,30
 795 962 795 962 832 914 c 128,-1,31
 869 866 869 866 887 802 c 1,32,-1
 887 1056 l 1,33,-1
 1319 1024 l 1,34,-1
 1319 260 l 2,35,36
 1319 63 1319 63 1271 -76 c 128,-1,37
 1223 -215 1223 -215 1137.5 -302.5 c 128,-1,38
 1052 -390 1052 -390 935.5 -430 c 128,-1,39
 819 -470 819 -470 683 -470 c 0,40,41
 629 -470 629 -470 575 -464.5 c 128,-1,42
 521 -459 521 -459 467 -450 c 1,43,-1
 499 -144 l 1,0,1
887 520 m 1,44,45
 885 559 885 559 867.5 594.5 c 128,-1,46
 850 630 850 630 822 657 c 128,-1,47
 794 684 794 684 758 700 c 128,-1,48
 722 716 722 716 683 716 c 0,49,50
 641 716 641 716 604 700 c 128,-1,51
 567 684 567 684 539 656 c 128,-1,52
 511 628 511 628 495 591 c 128,-1,53
 479 554 479 554 479 512 c 0,54,55
 479 471 479 471 495 434 c 128,-1,56
 511 397 511 397 539 369 c 128,-1,57
 567 341 567 341 604 324.5 c 128,-1,58
 641 308 641 308 683 308 c 0,59,60
 722 308 722 308 758 323.5 c 128,-1,61
 794 339 794 339 822 365.5 c 128,-1,62
 850 392 850 392 867.5 427.5 c 128,-1,63
 885 463 885 463 887 504 c 1,64,-1
 887 520 l 1,44,45
EndSplineSet
EndChar

StartChar: h
Encoding: 104 104 72
Width: 1413
GlyphClass: 2
Flags: W
LayerCount: 2
Fore
SplineSet
107 1350 m 1,0,-1
 539 1414 l 1,1,-1
 539 798 l 1,2,3
 567 865 567 865 604.5 914 c 128,-1,4
 642 963 642 963 686 994.5 c 128,-1,5
 730 1026 730 1026 778.5 1041 c 128,-1,6
 827 1056 827 1056 877 1056 c 0,7,8
 959 1056 959 1056 1038 1021 c 128,-1,9
 1117 986 1117 986 1179 918 c 128,-1,10
 1241 850 1241 850 1279 750 c 128,-1,11
 1317 650 1317 650 1317 520 c 2,12,-1
 1317 0 l 1,13,-1
 887 0 l 1,14,-1
 887 512 l 2,15,16
 887 553 887 553 875.5 590 c 128,-1,17
 864 627 864 627 844.5 655 c 128,-1,18
 825 683 825 683 799 699.5 c 128,-1,19
 773 716 773 716 743 716 c 0,20,21
 699 716 699 716 662 698 c 128,-1,22
 625 680 625 680 597.5 650 c 128,-1,23
 570 620 570 620 554.5 580.5 c 128,-1,24
 539 541 539 541 539 498 c 2,25,-1
 539 0 l 1,26,-1
 107 0 l 1,27,-1
 107 1350 l 1,0,-1
EndSplineSet
EndChar

StartChar: i
Encoding: 105 105 73
Width: 748
GlyphClass: 2
Flags: W
LayerCount: 2
Fore
SplineSet
91 1366 m 0,0,1
 91 1408 91 1408 109.5 1445.5 c 128,-1,2
 128 1483 128 1483 159.5 1511 c 128,-1,3
 191 1539 191 1539 233.5 1555.5 c 128,-1,4
 276 1572 276 1572 323 1572 c 0,5,6
 369 1572 369 1572 410.5 1555.5 c 128,-1,7
 452 1539 452 1539 483.5 1511 c 128,-1,8
 515 1483 515 1483 534 1445.5 c 128,-1,9
 553 1408 553 1408 553 1366 c 0,10,11
 553 1322 553 1322 534 1284.5 c 128,-1,12
 515 1247 515 1247 483.5 1218.5 c 128,-1,13
 452 1190 452 1190 410.5 1174 c 128,-1,14
 369 1158 369 1158 323 1158 c 0,15,16
 276 1158 276 1158 233.5 1174 c 128,-1,17
 191 1190 191 1190 159.5 1218.5 c 128,-1,18
 128 1247 128 1247 109.5 1284.5 c 128,-1,19
 91 1322 91 1322 91 1366 c 0,0,1
99 1026 m 1,20,-1
 533 1026 l 1,21,-1
 533 408 l 2,22,23
 533 349 533 349 559 324.5 c 128,-1,24
 585 300 585 300 621 300 c 0,25,26
 664 300 664 300 709 324 c 1,27,-1
 731 38 l 1,28,29
 668 2 668 2 600 -15 c 128,-1,30
 532 -32 532 -32 463 -32 c 0,31,32
 391 -32 391 -32 325 -8.5 c 128,-1,33
 259 15 259 15 209 64.5 c 128,-1,34
 159 114 159 114 129 191.5 c 128,-1,35
 99 269 99 269 99 378 c 2,36,-1
 99 1026 l 1,20,-1
EndSplineSet
EndChar

StartChar: j
Encoding: 106 106 74
Width: 646
GlyphClass: 2
Flags: W
LayerCount: 2
Fore
SplineSet
-171 -80 m 1,0,1
 -133 -92 -133 -92 -98.5 -101 c 128,-1,2
 -64 -110 -64 -110 -29 -110 c 0,3,4
 0 -110 0 -110 25 -101 c 128,-1,5
 50 -92 50 -92 68 -72 c 128,-1,6
 86 -52 86 -52 96.5 -19.5 c 128,-1,7
 107 13 107 13 107 60 c 2,8,-1
 107 1026 l 1,9,-1
 539 1026 l 1,10,-1
 539 60 l 2,11,12
 539 -74 539 -74 501 -169.5 c 128,-1,13
 463 -265 463 -265 400 -325.5 c 128,-1,14
 337 -386 337 -386 255 -414 c 128,-1,15
 173 -442 173 -442 85 -442 c 0,16,17
 -103 -442 -103 -442 -265 -334 c 1,18,-1
 -171 -80 l 1,0,1
85 1366 m 0,19,20
 85 1407 85 1407 104 1444.5 c 128,-1,21
 123 1482 123 1482 154.5 1510.5 c 128,-1,22
 186 1539 186 1539 227.5 1555.5 c 128,-1,23
 269 1572 269 1572 315 1572 c 0,24,25
 362 1572 362 1572 404.5 1555.5 c 128,-1,26
 447 1539 447 1539 478.5 1510.5 c 128,-1,27
 510 1482 510 1482 528.5 1444.5 c 128,-1,28
 547 1407 547 1407 547 1366 c 0,29,30
 547 1322 547 1322 528.5 1284.5 c 128,-1,31
 510 1247 510 1247 478.5 1218.5 c 128,-1,32
 447 1190 447 1190 404.5 1174 c 128,-1,33
 362 1158 362 1158 315 1158 c 0,34,35
 269 1158 269 1158 227.5 1174 c 128,-1,36
 186 1190 186 1190 154.5 1218.5 c 128,-1,37
 123 1247 123 1247 104 1284.5 c 128,-1,38
 85 1322 85 1322 85 1366 c 0,19,20
EndSplineSet
EndChar

StartChar: k
Encoding: 107 107 75
Width: 1314
GlyphClass: 2
Flags: W
LayerCount: 2
Fore
SplineSet
107 1350 m 1,0,-1
 541 1414 l 1,1,-1
 541 712 l 1,2,-1
 1067 1142 l 1,3,-1
 1303 822 l 1,4,-1
 973 592 l 1,5,6
 985 526 985 526 998.5 474.5 c 128,-1,7
 1012 423 1012 423 1034 387 c 128,-1,8
 1056 351 1056 351 1090.5 332.5 c 128,-1,9
 1125 314 1125 314 1179 314 c 0,10,11
 1200 314 1200 314 1221.5 317.5 c 128,-1,12
 1243 321 1243 321 1267 326 c 1,13,-1
 1227 -24 l 1,14,15
 1164 -30 1164 -30 1113 -30 c 0,16,17
 998 -30 998 -30 922.5 -2 c 128,-1,18
 847 26 847 26 797 78.5 c 128,-1,19
 747 131 747 131 716.5 207 c 128,-1,20
 686 283 686 283 661 378 c 1,21,-1
 541 282 l 1,22,-1
 541 0 l 1,23,-1
 107 0 l 1,24,-1
 107 1350 l 1,0,-1
EndSplineSet
EndChar

StartChar: l
Encoding: 108 108 76
Width: 774
GlyphClass: 2
Flags: W
LayerCount: 2
Fore
SplineSet
99 378 m 2,0,-1
 99 1350 l 1,1,-1
 531 1414 l 1,2,-1
 531 408 l 2,3,4
 531 378 531 378 541.5 357.5 c 128,-1,5
 552 337 552 337 570 324 c 128,-1,6
 588 311 588 311 611.5 305.5 c 128,-1,7
 635 300 635 300 661 300 c 0,8,9
 707 300 707 300 755 324 c 1,10,-1
 771 38 l 1,11,12
 699 2 699 2 620 -15 c 128,-1,13
 541 -32 541 -32 463 -32 c 0,14,15
 389 -32 389 -32 323 -8.5 c 128,-1,16
 257 15 257 15 207.5 64.5 c 128,-1,17
 158 114 158 114 128.5 191.5 c 128,-1,18
 99 269 99 269 99 378 c 2,0,-1
EndSplineSet
EndChar

StartChar: m
Encoding: 109 109 77
Width: 2100
GlyphClass: 2
Flags: W
LayerCount: 2
Fore
SplineSet
102 990 m 1,0,-1
 534 1056 l 1,1,-1
 534 802 l 1,2,3
 564 869 564 869 603.5 917 c 128,-1,4
 643 965 643 965 688 996 c 128,-1,5
 733 1027 733 1027 783 1041.5 c 128,-1,6
 833 1056 833 1056 884 1056 c 0,7,8
 940 1056 940 1056 993.5 1038 c 128,-1,9
 1047 1020 1047 1020 1094 985.5 c 128,-1,10
 1141 951 1141 951 1178.5 900.5 c 128,-1,11
 1216 850 1216 850 1240 786 c 1,12,13
 1265 861 1265 861 1305.5 912.5 c 128,-1,14
 1346 964 1346 964 1396 996 c 128,-1,15
 1446 1028 1446 1028 1502.5 1042 c 128,-1,16
 1559 1056 1559 1056 1616 1056 c 0,17,18
 1692 1056 1692 1056 1762.5 1019.5 c 128,-1,19
 1833 983 1833 983 1886.5 913 c 128,-1,20
 1940 843 1940 843 1972 742 c 128,-1,21
 2004 641 2004 641 2004 512 c 2,22,-1
 2004 0 l 1,23,-1
 1572 0 l 1,24,-1
 1572 512 l 2,25,26
 1572 563 1572 563 1560 600.5 c 128,-1,27
 1548 638 1548 638 1528.5 663 c 128,-1,28
 1509 688 1509 688 1484 700 c 128,-1,29
 1459 712 1459 712 1432 712 c 0,30,31
 1402 712 1402 712 1372.5 698 c 128,-1,32
 1343 684 1343 684 1320 658.5 c 128,-1,33
 1297 633 1297 633 1282.5 595.5 c 128,-1,34
 1268 558 1268 558 1268 512 c 2,35,-1
 1268 0 l 1,36,-1
 840 0 l 1,37,-1
 840 512 l 2,38,39
 840 563 840 563 827.5 601 c 128,-1,40
 815 639 815 639 794.5 663.5 c 128,-1,41
 774 688 774 688 748 700 c 128,-1,42
 722 712 722 712 696 712 c 0,43,44
 665 712 665 712 636.5 698.5 c 128,-1,45
 608 685 608 685 585.5 659.5 c 128,-1,46
 563 634 563 634 549 598.5 c 128,-1,47
 535 563 535 563 534 520 c 1,48,-1
 534 0 l 1,49,-1
 102 0 l 1,50,-1
 102 990 l 1,0,-1
EndSplineSet
EndChar

StartChar: n
Encoding: 110 110 78
Width: 1407
GlyphClass: 2
Flags: W
LayerCount: 2
Fore
SplineSet
102 990 m 1,0,-1
 534 1056 l 1,1,-1
 534 802 l 1,2,3
 564 867 564 867 604 915 c 128,-1,4
 644 963 644 963 690.5 994.5 c 128,-1,5
 737 1026 737 1026 788 1041 c 128,-1,6
 839 1056 839 1056 890 1056 c 0,7,8
 966 1056 966 1056 1041.5 1019.5 c 128,-1,9
 1117 983 1117 983 1176.5 913 c 128,-1,10
 1236 843 1236 843 1273 742 c 128,-1,11
 1310 641 1310 641 1310 512 c 2,12,-1
 1310 0 l 1,13,-1
 880 0 l 1,14,-1
 880 512 l 2,15,16
 880 553 880 553 868.5 590 c 128,-1,17
 857 627 857 627 837.5 655 c 128,-1,18
 818 683 818 683 792 699.5 c 128,-1,19
 766 716 766 716 736 716 c 0,20,21
 695 716 695 716 659 700 c 128,-1,22
 623 684 623 684 595.5 657 c 128,-1,23
 568 630 568 630 551.5 594.5 c 128,-1,24
 535 559 535 559 534 520 c 1,25,-1
 534 0 l 1,26,-1
 102 0 l 1,27,-1
 102 990 l 1,0,-1
EndSplineSet
EndChar

StartChar: o
Encoding: 111 111 79
Width: 1284
GlyphClass: 2
Flags: W
LayerCount: 2
Fore
SplineSet
644 310 m 0,0,1
 680 310 680 310 713 326.5 c 128,-1,2
 746 343 746 343 771.5 371 c 128,-1,3
 797 399 797 399 812.5 436 c 128,-1,4
 828 473 828 473 828 514 c 0,5,6
 828 556 828 556 812.5 593 c 128,-1,7
 797 630 797 630 771.5 658 c 128,-1,8
 746 686 746 686 713 702 c 128,-1,9
 680 718 680 718 644 718 c 0,10,11
 605 718 605 718 571.5 701.5 c 128,-1,12
 538 685 538 685 513.5 657.5 c 128,-1,13
 489 630 489 630 475.5 593 c 128,-1,14
 462 556 462 556 462 514 c 0,15,16
 462 473 462 473 476 436 c 128,-1,17
 490 399 490 399 514.5 371 c 128,-1,18
 539 343 539 343 572.5 326.5 c 128,-1,19
 606 310 606 310 644 310 c 0,0,1
52 514 m 0,20,21
 53 647 53 647 103.5 748 c 128,-1,22
 154 849 154 849 237 917.5 c 128,-1,23
 320 986 320 986 426 1021 c 128,-1,24
 532 1056 532 1056 644 1056 c 0,25,26
 716 1056 716 1056 787.5 1040.5 c 128,-1,27
 859 1025 859 1025 924.5 994 c 128,-1,28
 990 963 990 963 1046 917.5 c 128,-1,29
 1102 872 1102 872 1143.5 812 c 128,-1,30
 1185 752 1185 752 1208.5 677 c 128,-1,31
 1232 602 1232 602 1232 514 c 0,32,33
 1232 425 1232 425 1208.5 350 c 128,-1,34
 1185 275 1185 275 1144 214.5 c 128,-1,35
 1103 154 1103 154 1047 107.5 c 128,-1,36
 991 61 991 61 925.5 30 c 128,-1,37
 860 -1 860 -1 787.5 -16.5 c 128,-1,38
 715 -32 715 -32 642 -32 c 0,39,40
 567 -32 567 -32 494.5 -16.5 c 128,-1,41
 422 -1 422 -1 356.5 30 c 128,-1,42
 291 61 291 61 235 107 c 128,-1,43
 179 153 179 153 138.5 213.5 c 128,-1,44
 98 274 98 274 75 349.5 c 128,-1,45
 52 425 52 425 52 514 c 0,20,21
EndSplineSet
EndChar

StartChar: p
Encoding: 112 112 80
Width: 1423
GlyphClass: 2
Flags: W
LayerCount: 2
Fore
SplineSet
102 990 m 1,0,-1
 534 1056 l 1,1,-1
 534 834 l 1,2,3
 590 950 590 950 678 1003 c 128,-1,4
 766 1056 766 1056 868 1056 c 0,5,6
 929 1056 929 1056 990 1038.5 c 128,-1,7
 1051 1021 1051 1021 1106.5 988 c 128,-1,8
 1162 955 1162 955 1210.5 907.5 c 128,-1,9
 1259 860 1259 860 1294.5 799.5 c 128,-1,10
 1330 739 1330 739 1350 666.5 c 128,-1,11
 1370 594 1370 594 1370 512 c 0,12,13
 1370 389 1370 389 1326 288.5 c 128,-1,14
 1282 188 1282 188 1211 117 c 128,-1,15
 1140 46 1140 46 1050.5 7 c 128,-1,16
 961 -32 961 -32 870 -32 c 0,17,18
 764 -32 764 -32 677.5 21.5 c 128,-1,19
 591 75 591 75 534 190 c 1,20,-1
 534 -266 l 1,21,-1
 102 -348 l 1,22,-1
 102 990 l 1,0,-1
534 512 m 2,23,24
 534 471 534 471 550.5 434 c 128,-1,25
 567 397 567 397 594.5 369 c 128,-1,26
 622 341 622 341 658.5 324.5 c 128,-1,27
 695 308 695 308 736 308 c 0,28,29
 779 308 779 308 816.5 324.5 c 128,-1,30
 854 341 854 341 882 369 c 128,-1,31
 910 397 910 397 926 434 c 128,-1,32
 942 471 942 471 942 512 c 0,33,34
 942 554 942 554 926 591 c 128,-1,35
 910 628 910 628 882 656 c 128,-1,36
 854 684 854 684 816.5 700 c 128,-1,37
 779 716 779 716 736 716 c 0,38,39
 695 716 695 716 659.5 700 c 128,-1,40
 624 684 624 684 597 657 c 128,-1,41
 570 630 570 630 553.5 594.5 c 128,-1,42
 537 559 537 559 534 520 c 1,43,-1
 534 512 l 2,23,24
EndSplineSet
EndChar

StartChar: q
Encoding: 113 113 81
Width: 1425
GlyphClass: 2
Flags: W
LayerCount: 2
Fore
SplineSet
891 190 m 1,0,1
 834 75 834 75 746.5 21.5 c 128,-1,2
 659 -32 659 -32 553 -32 c 0,3,4
 463 -32 463 -32 373.5 7 c 128,-1,5
 284 46 284 46 213 117 c 128,-1,6
 142 188 142 188 97.5 288.5 c 128,-1,7
 53 389 53 389 53 512 c 0,8,9
 53 636 53 636 97 736.5 c 128,-1,10
 141 837 141 837 212.5 908 c 128,-1,11
 284 979 284 979 373.5 1017.5 c 128,-1,12
 463 1056 463 1056 555 1056 c 0,13,14
 658 1056 658 1056 746 1003.5 c 128,-1,15
 834 951 834 951 891 834 c 1,16,-1
 891 1056 l 1,17,-1
 1323 990 l 1,18,-1
 1323 -266 l 1,19,-1
 891 -348 l 1,20,-1
 891 190 l 1,0,1
891 520 m 1,21,22
 889 559 889 559 871.5 594.5 c 128,-1,23
 854 630 854 630 826.5 657 c 128,-1,24
 799 684 799 684 763.5 700 c 128,-1,25
 728 716 728 716 689 716 c 0,26,27
 647 716 647 716 609.5 700 c 128,-1,28
 572 684 572 684 544 656 c 128,-1,29
 516 628 516 628 499.5 591 c 128,-1,30
 483 554 483 554 483 512 c 0,31,32
 483 471 483 471 499.5 434 c 128,-1,33
 516 397 516 397 544 369 c 128,-1,34
 572 341 572 341 609.5 324.5 c 128,-1,35
 647 308 647 308 689 308 c 0,36,37
 728 308 728 308 763.5 323.5 c 128,-1,38
 799 339 799 339 826.5 365.5 c 128,-1,39
 854 392 854 392 871.5 427.5 c 128,-1,40
 889 463 889 463 891 504 c 1,41,-1
 891 520 l 1,21,22
EndSplineSet
EndChar

StartChar: r
Encoding: 114 114 82
Width: 914
GlyphClass: 2
Flags: W
LayerCount: 2
Fore
SplineSet
102 990 m 1,0,-1
 534 1056 l 1,1,-1
 534 802 l 1,2,3
 561 869 561 869 597 917.5 c 128,-1,4
 633 966 633 966 674 996.5 c 128,-1,5
 715 1027 715 1027 760 1041.5 c 128,-1,6
 805 1056 805 1056 850 1056 c 1,7,-1
 912 706 l 1,8,9
 808 706 808 706 736 694 c 128,-1,10
 664 682 664 682 619 659.5 c 128,-1,11
 574 637 574 637 554 604.5 c 128,-1,12
 534 572 534 572 534 532 c 2,13,-1
 534 0 l 1,14,-1
 102 0 l 1,15,-1
 102 990 l 1,0,-1
EndSplineSet
EndChar

StartChar: s
Encoding: 115 115 83
Width: 947
GlyphClass: 2
Flags: W
LayerCount: 2
Fore
SplineSet
126 284 m 1,0,1
 214 260 214 260 287 246 c 128,-1,2
 360 232 360 232 414 232 c 0,3,4
 450 232 450 232 470 238 c 128,-1,5
 490 244 490 244 500.5 252 c 128,-1,6
 511 260 511 260 513.5 268 c 128,-1,7
 516 276 516 276 516 280 c 0,8,9
 516 288 516 288 511 299.5 c 128,-1,10
 506 311 506 311 491 323 c 128,-1,11
 476 335 476 335 448 347 c 128,-1,12
 420 359 420 359 374 368 c 0,13,14
 211 399 211 399 133.5 479.5 c 128,-1,15
 56 560 56 560 56 706 c 1,16,17
 60 801 60 801 98 867.5 c 128,-1,18
 136 934 136 934 196.5 976 c 128,-1,19
 257 1018 257 1018 334 1037 c 128,-1,20
 411 1056 411 1056 494 1056 c 0,21,22
 585 1056 585 1056 674 1038 c 128,-1,23
 763 1020 763 1020 838 984 c 1,24,-1
 794 740 l 1,25,26
 767 748 767 748 734.5 756.5 c 128,-1,27
 702 765 702 765 668.5 771.5 c 128,-1,28
 635 778 635 778 603.5 782 c 128,-1,29
 572 786 572 786 546 786 c 0,30,31
 489 786 489 786 456.5 775 c 128,-1,32
 424 764 424 764 424 744 c 0,33,34
 424 736 424 736 430 725 c 128,-1,35
 436 714 436 714 448.5 702.5 c 128,-1,36
 461 691 461 691 480 682 c 128,-1,37
 499 673 499 673 526 670 c 1,38,39
 632 653 632 653 703.5 619 c 128,-1,40
 775 585 775 585 817.5 540 c 128,-1,41
 860 495 860 495 878 440 c 128,-1,42
 896 385 896 385 896 326 c 0,43,44
 896 260 896 260 872.5 196 c 128,-1,45
 849 132 849 132 801.5 81 c 128,-1,46
 754 30 754 30 683 -1 c 128,-1,47
 612 -32 612 -32 518 -32 c 0,48,49
 471 -32 471 -32 417 -28.5 c 128,-1,50
 363 -25 363 -25 306 -16 c 128,-1,51
 249 -7 249 -7 191 8.5 c 128,-1,52
 133 24 133 24 80 48 c 1,53,-1
 126 284 l 1,0,1
EndSplineSet
EndChar

StartChar: t
Encoding: 116 116 84
Width: 890
GlyphClass: 2
Flags: W
LayerCount: 2
Fore
SplineSet
169 772 m 1,0,-1
 39 772 l 1,1,-1
 39 1026 l 1,2,-1
 201 1026 l 1,3,-1
 391 1414 l 1,4,-1
 599 1414 l 1,5,-1
 599 1026 l 1,6,-1
 835 1026 l 1,7,-1
 835 772 l 1,8,-1
 599 772 l 1,9,-1
 599 408 l 2,10,11
 599 379 599 379 609.5 358.5 c 128,-1,12
 620 338 620 338 638 325 c 128,-1,13
 656 312 656 312 679.5 306 c 128,-1,14
 703 300 703 300 729 300 c 0,15,16
 776 300 776 300 823 324 c 1,17,-1
 839 38 l 1,18,19
 767 2 767 2 688 -15 c 128,-1,20
 609 -32 609 -32 531 -32 c 0,21,22
 457 -32 457 -32 391 -8.5 c 128,-1,23
 325 15 325 15 275.5 64.5 c 128,-1,24
 226 114 226 114 196.5 191.5 c 128,-1,25
 167 269 167 269 167 378 c 2,26,-1
 169 772 l 1,0,-1
EndSplineSet
EndChar

StartChar: u
Encoding: 117 117 85
Width: 1286
GlyphClass: 2
Flags: W
LayerCount: 2
Fore
SplineSet
94 1026 m 1,0,-1
 516 1026 l 1,1,-1
 516 426 l 2,2,3
 516 397 516 397 528 374.5 c 128,-1,4
 540 352 540 352 559.5 336.5 c 128,-1,5
 579 321 579 321 602.5 312.5 c 128,-1,6
 626 304 626 304 650 304 c 0,7,8
 671 304 671 304 693 312.5 c 128,-1,9
 715 321 715 321 733.5 336.5 c 128,-1,10
 752 352 752 352 764 374.5 c 128,-1,11
 776 397 776 397 776 426 c 2,12,-1
 776 1026 l 1,13,-1
 1190 1026 l 1,14,-1
 1190 440 l 2,15,16
 1190 322 1190 322 1144 233.5 c 128,-1,17
 1098 145 1098 145 1022 86 c 128,-1,18
 946 27 946 27 848.5 -2.5 c 128,-1,19
 751 -32 751 -32 648 -32 c 256,20,21
 545 -32 545 -32 445.5 -2 c 128,-1,22
 346 28 346 28 268 87.5 c 128,-1,23
 190 147 190 147 142 235.5 c 128,-1,24
 94 324 94 324 94 440 c 2,25,-1
 94 1026 l 1,0,-1
EndSplineSet
EndChar

StartChar: v
Encoding: 118 118 86
Width: 1168
GlyphClass: 2
Flags: W
LayerCount: 2
Fore
SplineSet
2 1026 m 1,0,-1
 478 1026 l 1,1,-1
 640 396 l 1,2,-1
 666 536 l 1,3,-1
 788 1026 l 1,4,-1
 1164 1026 l 1,5,-1
 838 0 l 1,6,-1
 340 0 l 1,7,-1
 2 1026 l 1,0,-1
EndSplineSet
EndChar

StartChar: w
Encoding: 119 119 87
Width: 1707
GlyphClass: 2
Flags: W
LayerCount: 2
Fore
SplineSet
41 1026 m 1,0,-1
 459 1026 l 1,1,-1
 575 360 l 1,2,-1
 617 544 l 1,3,-1
 717 1026 l 1,4,-1
 1069 1026 l 1,5,-1
 1171 544 l 1,6,-1
 1209 344 l 1,7,-1
 1249 544 l 1,8,-1
 1329 1026 l 1,9,-1
 1665 1026 l 1,10,-1
 1453 0 l 1,11,-1
 957 0 l 1,12,-1
 847 542 l 1,13,-1
 739 0 l 1,14,-1
 267 0 l 1,15,-1
 41 1026 l 1,0,-1
EndSplineSet
EndChar

StartChar: x
Encoding: 120 120 88
Width: 1136
GlyphClass: 2
Flags: W
LayerCount: 2
Fore
SplineSet
316 532 m 1,0,-1
 24 1026 l 1,1,-1
 456 1026 l 1,2,-1
 572 784 l 1,3,-1
 690 1026 l 1,4,-1
 1110 1026 l 1,5,-1
 824 532 l 1,6,-1
 1130 0 l 1,7,-1
 710 0 l 1,8,-1
 572 262 l 1,9,-1
 436 0 l 1,10,-1
 4 0 l 1,11,-1
 316 532 l 1,0,-1
EndSplineSet
EndChar

StartChar: y
Encoding: 121 121 89
Width: 1369
GlyphClass: 2
Flags: W
LayerCount: 2
Fore
SplineSet
556 -124 m 1,0,1
 604 -136 604 -136 646 -136 c 0,2,3
 702 -136 702 -136 738 -114.5 c 128,-1,4
 774 -93 774 -93 797 -53 c 128,-1,5
 820 -13 820 -13 832 43.5 c 128,-1,6
 844 100 844 100 852 170 c 1,7,8
 826 123 826 123 792.5 91 c 128,-1,9
 759 59 759 59 720.5 38.5 c 128,-1,10
 682 18 682 18 640 9 c 128,-1,11
 598 0 598 0 556 0 c 0,12,13
 474 0 474 0 392.5 30 c 128,-1,14
 311 60 311 60 245.5 116 c 128,-1,15
 180 172 180 172 139 252.5 c 128,-1,16
 98 333 98 333 98 434 c 2,17,-1
 98 1026 l 1,18,-1
 528 1026 l 1,19,-1
 528 454 l 2,20,21
 528 425 528 425 540.5 398.5 c 128,-1,22
 553 372 553 372 572.5 352 c 128,-1,23
 592 332 592 332 617 320 c 128,-1,24
 642 308 642 308 668 308 c 0,25,26
 704 308 704 308 734 322 c 128,-1,27
 764 336 764 336 786 360 c 128,-1,28
 808 384 808 384 820 415.5 c 128,-1,29
 832 447 832 447 832 482 c 2,30,-1
 832 1026 l 1,31,-1
 1264 1026 l 1,32,-1
 1264 260 l 2,33,34
 1264 60 1264 60 1220 -81 c 128,-1,35
 1176 -222 1176 -222 1099 -310.5 c 128,-1,36
 1022 -399 1022 -399 917 -439.5 c 128,-1,37
 812 -480 812 -480 690 -480 c 0,38,39
 645 -480 645 -480 601 -474 c 128,-1,40
 557 -468 557 -468 512 -460 c 1,41,-1
 556 -124 l 1,0,1
EndSplineSet
EndChar

StartChar: z
Encoding: 122 122 90
Width: 1003
GlyphClass: 2
Flags: W
LayerCount: 2
Fore
SplineSet
63 220 m 1,0,-1
 423 764 l 1,1,-1
 77 764 l 1,2,-1
 77 1026 l 1,3,-1
 929 1026 l 1,4,-1
 929 804 l 1,5,-1
 611 262 l 1,6,-1
 939 262 l 1,7,-1
 939 0 l 1,8,-1
 63 0 l 1,9,-1
 63 220 l 1,0,-1
EndSplineSet
EndChar

StartChar: braceleft
Encoding: 123 123 91
Width: 728
GlyphClass: 2
Flags: W
LayerCount: 2
Fore
SplineSet
12 772 m 1,0,1
 31 774 31 774 53 780.5 c 128,-1,2
 75 787 75 787 94 800.5 c 128,-1,3
 113 814 113 814 125.5 836.5 c 128,-1,4
 138 859 138 859 138 894 c 0,5,6
 138 1007 138 1007 171 1105.5 c 128,-1,7
 204 1204 204 1204 269.5 1279 c 128,-1,8
 335 1354 335 1354 432.5 1401 c 128,-1,9
 530 1448 530 1448 660 1458 c 1,10,-1
 660 1280 l 1,11,12
 641 1273 641 1273 619 1253 c 128,-1,13
 597 1233 597 1233 578 1189.5 c 128,-1,14
 559 1146 559 1146 546.5 1074.5 c 128,-1,15
 534 1003 534 1003 534 894 c 0,16,17
 534 837 534 837 496.5 785.5 c 128,-1,18
 459 734 459 734 378 692 c 1,19,20
 459 650 459 650 496.5 599 c 128,-1,21
 534 548 534 548 534 488 c 0,22,23
 534 379 534 379 546.5 308 c 128,-1,24
 559 237 559 237 578 194 c 128,-1,25
 597 151 597 151 619 131 c 128,-1,26
 641 111 641 111 660 104 c 1,27,-1
 660 -74 l 1,28,29
 530 -64 530 -64 432.5 -17 c 128,-1,30
 335 30 335 30 269.5 105 c 128,-1,31
 204 180 204 180 171 278 c 128,-1,32
 138 376 138 376 138 488 c 0,33,34
 138 522 138 522 125.5 545 c 128,-1,35
 113 568 113 568 94 582 c 128,-1,36
 75 596 75 596 53 603 c 128,-1,37
 31 610 31 610 12 612 c 1,38,-1
 12 772 l 1,0,1
EndSplineSet
EndChar

StartChar: bar
Encoding: 124 124 92
Width: 434
GlyphClass: 2
Flags: W
LayerCount: 2
Fore
SplineSet
119 1408 m 1,0,-1
 315 1408 l 1,1,-1
 315 0 l 1,2,-1
 119 0 l 1,3,-1
 119 1408 l 1,0,-1
EndSplineSet
EndChar

StartChar: braceright
Encoding: 125 125 93
Width: 728
GlyphClass: 2
Flags: W
LayerCount: 2
Fore
SplineSet
68 104 m 1,0,1
 87 111 87 111 109 131 c 128,-1,2
 131 151 131 151 150 194 c 128,-1,3
 169 237 169 237 181.5 308 c 128,-1,4
 194 379 194 379 194 488 c 0,5,6
 194 548 194 548 231.5 599 c 128,-1,7
 269 650 269 650 350 692 c 1,8,9
 269 734 269 734 231.5 785.5 c 128,-1,10
 194 837 194 837 194 894 c 0,11,12
 194 1003 194 1003 181.5 1074.5 c 128,-1,13
 169 1146 169 1146 150 1189.5 c 128,-1,14
 131 1233 131 1233 109 1253 c 128,-1,15
 87 1273 87 1273 68 1280 c 1,16,-1
 68 1458 l 1,17,18
 198 1447 198 1447 296 1400 c 128,-1,19
 394 1353 394 1353 459.5 1278 c 128,-1,20
 525 1203 525 1203 557.5 1105 c 128,-1,21
 590 1007 590 1007 590 894 c 0,22,23
 590 859 590 859 602.5 836.5 c 128,-1,24
 615 814 615 814 634 800.5 c 128,-1,25
 653 787 653 787 675 780.5 c 128,-1,26
 697 774 697 774 716 772 c 1,27,-1
 716 612 l 1,28,29
 697 610 697 610 675 603 c 128,-1,30
 653 596 653 596 634 582 c 128,-1,31
 615 568 615 568 602.5 545 c 128,-1,32
 590 522 590 522 590 488 c 0,33,34
 590 376 590 376 557.5 278 c 128,-1,35
 525 180 525 180 459.5 105 c 128,-1,36
 394 30 394 30 296 -17 c 128,-1,37
 198 -64 198 -64 68 -74 c 1,38,-1
 68 104 l 1,0,1
EndSplineSet
EndChar

StartChar: asciitilde
Encoding: 126 126 94
Width: 1188
GlyphClass: 2
Flags: W
LayerCount: 2
Fore
SplineSet
42 702 m 1,0,1
 75 797 75 797 117 864.5 c 128,-1,2
 159 932 159 932 205 974.5 c 128,-1,3
 251 1017 251 1017 299 1036.5 c 128,-1,4
 347 1056 347 1056 392 1056 c 0,5,6
 459 1056 459 1056 514 1038.5 c 128,-1,7
 569 1021 569 1021 618 1000 c 128,-1,8
 667 979 667 979 714 961.5 c 128,-1,9
 761 944 761 944 814 944 c 0,10,11
 835 944 835 944 851.5 951.5 c 128,-1,12
 868 959 868 959 880.5 972 c 128,-1,13
 893 985 893 985 902 1001.5 c 128,-1,14
 911 1018 911 1018 918 1036 c 1,15,-1
 1156 938 l 1,16,17
 1126 849 1126 849 1089.5 784.5 c 128,-1,18
 1053 720 1053 720 1011 678.5 c 128,-1,19
 969 637 969 637 921.5 617.5 c 128,-1,20
 874 598 874 598 822 598 c 0,21,22
 741 598 741 598 683 615.5 c 128,-1,23
 625 633 625 633 577 654 c 128,-1,24
 529 675 529 675 485.5 692.5 c 128,-1,25
 442 710 442 710 390 710 c 0,26,27
 368 710 368 710 351.5 700 c 128,-1,28
 335 690 335 690 322 675 c 128,-1,29
 309 660 309 660 300 641 c 128,-1,30
 291 622 291 622 284 604 c 1,31,-1
 42 702 l 1,0,1
EndSplineSet
EndChar

StartChar: cent
Encoding: 162 162 97
Width: 1008
GlyphClass: 2
Flags: W
LayerCount: 2
Fore
SplineSet
624 -32 m 1,0,-1
 606 -32 l 2,1,2
 497 -32 497 -32 397 5 c 128,-1,3
 297 42 297 42 220.5 112 c 128,-1,4
 144 182 144 182 98 283 c 128,-1,5
 52 384 52 384 52 512 c 0,6,7
 52 633 52 633 96.5 733 c 128,-1,8
 141 833 141 833 216.5 905 c 128,-1,9
 292 977 292 977 392.5 1016.5 c 128,-1,10
 493 1056 493 1056 606 1056 c 2,11,-1
 624 1056 l 1,12,-1
 624 1190 l 1,13,-1
 758 1190 l 1,14,-1
 758 1034 l 1,15,-1
 764 1032 l 2,16,17
 800 1021 800 1021 840 1002.5 c 128,-1,18
 880 984 880 984 922 958 c 1,19,-1
 880 686 l 1,20,21
 851 695 851 695 824.5 702 c 128,-1,22
 798 709 798 709 774 712 c 2,23,-1
 758 714 l 1,24,-1
 758 308 l 1,25,26
 815 314 815 314 876 336 c 1,27,-1
 918 50 l 1,28,29
 876 30 876 30 839 15.5 c 128,-1,30
 802 1 802 1 764 -10 c 1,31,-1
 758 -12 l 1,32,-1
 758 -186 l 1,33,-1
 624 -186 l 1,34,-1
 624 -32 l 1,0,-1
534 360 m 1,35,36
 554 342 554 342 576 329 c 128,-1,37
 598 316 598 316 624 310 c 1,38,-1
 624 714 l 1,39,40
 592 706 592 706 565.5 688 c 128,-1,41
 539 670 539 670 519.5 644 c 128,-1,42
 500 618 500 618 489 584.5 c 128,-1,43
 478 551 478 551 478 512 c 0,44,45
 478 419 478 419 534 360 c 1,35,36
EndSplineSet
EndChar

StartChar: sterling
Encoding: 163 163 98
Width: 1074
GlyphClass: 2
Flags: W
LayerCount: 2
Fore
SplineSet
74 790 m 1,0,-1
 204 790 l 1,1,-1
 204 894 l 2,2,3
 204 1055 204 1055 235 1160.5 c 128,-1,4
 266 1266 266 1266 323.5 1328 c 128,-1,5
 381 1390 381 1390 463.5 1415 c 128,-1,6
 546 1440 546 1440 649 1440 c 0,7,8
 738 1440 738 1440 827.5 1419 c 128,-1,9
 917 1398 917 1398 1003 1362 c 1,10,-1
 969 1084 l 1,11,12
 918 1105 918 1105 867 1118.5 c 128,-1,13
 816 1132 816 1132 771 1132 c 0,14,15
 708 1132 708 1132 676 1101 c 128,-1,16
 644 1070 644 1070 644 1016 c 2,17,-1
 644 790 l 1,18,-1
 900 790 l 1,19,-1
 900 616 l 1,20,-1
 644 616 l 1,21,-1
 644 300 l 1,22,-1
 988 300 l 1,23,-1
 988 0 l 1,24,-1
 74 0 l 1,25,-1
 74 128 l 1,26,27
 110 130 110 130 139 149 c 0,28,29
 163 165 163 165 183.5 200 c 128,-1,30
 204 235 204 235 204 300 c 2,31,-1
 204 616 l 1,32,-1
 74 616 l 1,33,-1
 74 790 l 1,0,-1
EndSplineSet
EndChar

StartChar: yen
Encoding: 165 165 99
Width: 1172
GlyphClass: 2
Flags: W
LayerCount: 2
Fore
SplineSet
158 298 m 1,0,-1
 466 298 l 1,1,-1
 466 388 l 1,2,-1
 158 388 l 1,3,-1
 158 516 l 1,4,-1
 414 516 l 1,5,-1
 48 1376 l 1,6,-1
 316 1376 l 1,7,-1
 586 632 l 1,8,-1
 852 1376 l 1,9,-1
 1120 1376 l 1,10,-1
 756 516 l 1,11,-1
 1028 516 l 1,12,-1
 1028 388 l 1,13,-1
 702 388 l 1,14,-1
 702 298 l 1,15,-1
 1028 298 l 1,16,-1
 1028 176 l 1,17,-1
 702 176 l 1,18,-1
 702 0 l 1,19,-1
 466 0 l 1,20,-1
 466 176 l 1,21,-1
 158 176 l 1,22,-1
 158 298 l 1,0,-1
EndSplineSet
EndChar

StartChar: brokenbar
Encoding: 166 166 100
Width: 438
GlyphClass: 2
Flags: W
LayerCount: 2
Fore
SplineSet
121 552 m 1,0,-1
 317 552 l 1,1,-1
 317 0 l 1,2,-1
 121 0 l 1,3,-1
 121 552 l 1,0,-1
121 1408 m 1,4,-1
 317 1408 l 1,5,-1
 317 856 l 1,6,-1
 121 856 l 1,7,-1
 121 1408 l 1,4,-1
EndSplineSet
EndChar

StartChar: section
Encoding: 167 167 101
Width: 1091
GlyphClass: 2
Flags: W
LayerCount: 2
Fore
SplineSet
155 292 m 1,0,1
 180 284 180 284 220.5 273.5 c 128,-1,2
 261 263 261 263 308.5 254 c 128,-1,3
 356 245 356 245 405 238.5 c 128,-1,4
 454 232 454 232 495 232 c 0,5,6
 537 232 537 232 563 243 c 128,-1,7
 589 254 589 254 589 278 c 0,8,9
 589 294 589 294 567.5 307.5 c 128,-1,10
 546 321 546 321 510.5 334.5 c 128,-1,11
 475 348 475 348 429.5 362.5 c 128,-1,12
 384 377 384 377 337 396 c 128,-1,13
 290 415 290 415 244.5 439.5 c 128,-1,14
 199 464 199 464 163.5 497 c 128,-1,15
 128 530 128 530 106.5 572.5 c 128,-1,16
 85 615 85 615 85 670 c 0,17,18
 85 736 85 736 114 802 c 128,-1,19
 143 868 143 868 209 916 c 1,20,21
 85 995 85 995 85 1152 c 1,22,23
 89 1232 89 1232 130 1287 c 128,-1,24
 171 1342 171 1342 235 1376 c 128,-1,25
 299 1410 299 1410 380.5 1425 c 128,-1,26
 462 1440 462 1440 547 1440 c 0,27,28
 602 1440 602 1440 657.5 1435 c 128,-1,29
 713 1430 713 1430 764.5 1420 c 128,-1,30
 816 1410 816 1410 863 1396 c 128,-1,31
 910 1382 910 1382 949 1364 c 1,32,-1
 905 1136 l 1,33,34
 888 1142 888 1142 852.5 1150 c 128,-1,35
 817 1158 817 1158 772.5 1165.5 c 128,-1,36
 728 1173 728 1173 679 1178.5 c 128,-1,37
 630 1184 630 1184 587 1184 c 0,38,39
 545 1184 545 1184 518 1175.5 c 128,-1,40
 491 1167 491 1167 491 1144 c 0,41,42
 491 1123 491 1123 529.5 1105.5 c 128,-1,43
 568 1088 568 1088 626 1068 c 128,-1,44
 684 1048 684 1048 751 1023.5 c 128,-1,45
 818 999 818 999 876 963.5 c 128,-1,46
 934 928 934 928 972.5 879.5 c 128,-1,47
 1011 831 1011 831 1011 764 c 0,48,49
 1011 737 1011 737 1005 703.5 c 128,-1,50
 999 670 999 670 984.5 636.5 c 128,-1,51
 970 603 970 603 945.5 571.5 c 128,-1,52
 921 540 921 540 883 516 c 1,53,54
 952 471 952 471 979.5 409.5 c 128,-1,55
 1007 348 1007 348 1007 282 c 0,56,57
 1007 202 1007 202 970 143 c 128,-1,58
 933 84 933 84 869.5 45 c 128,-1,59
 806 6 806 6 720 -13 c 128,-1,60
 634 -32 634 -32 537 -32 c 0,61,62
 431 -32 431 -32 324 -13.5 c 128,-1,63
 217 5 217 5 111 44 c 1,64,-1
 155 292 l 1,0,1
575 606 m 1,65,66
 605 606 605 606 625 615 c 128,-1,67
 645 624 645 624 656.5 637.5 c 128,-1,68
 668 651 668 651 672.5 666 c 128,-1,69
 677 681 677 681 677 694 c 0,70,71
 677 706 677 706 669 718.5 c 128,-1,72
 661 731 661 731 640 744.5 c 128,-1,73
 619 758 619 758 583 773 c 128,-1,74
 547 788 547 788 491 804 c 1,75,76
 452 801 452 801 427.5 777.5 c 128,-1,77
 403 754 403 754 403 712 c 0,78,79
 403 703 403 703 412 690.5 c 128,-1,80
 421 678 421 678 441 663.5 c 128,-1,81
 461 649 461 649 494 634 c 128,-1,82
 527 619 527 619 575 606 c 1,65,66
EndSplineSet
EndChar

StartChar: dieresis
Encoding: 168 168 102
Width: 1246
GlyphClass: 2
Flags: W
LayerCount: 2
Fore
SplineSet
702 1328 m 0,0,1
 702 1370 702 1370 720.5 1407.5 c 128,-1,2
 739 1445 739 1445 770.5 1473.5 c 128,-1,3
 802 1502 802 1502 844.5 1519 c 128,-1,4
 887 1536 887 1536 934 1536 c 0,5,6
 980 1536 980 1536 1021 1519 c 128,-1,7
 1062 1502 1062 1502 1093.5 1473.5 c 128,-1,8
 1125 1445 1125 1445 1143.5 1407.5 c 128,-1,9
 1162 1370 1162 1370 1162 1328 c 0,10,11
 1162 1285 1162 1285 1143.5 1247.5 c 128,-1,12
 1125 1210 1125 1210 1093.5 1182 c 128,-1,13
 1062 1154 1062 1154 1021 1138 c 128,-1,14
 980 1122 980 1122 934 1122 c 0,15,16
 887 1122 887 1122 844.5 1138 c 128,-1,17
 802 1154 802 1154 770.5 1182 c 128,-1,18
 739 1210 739 1210 720.5 1247.5 c 128,-1,19
 702 1285 702 1285 702 1328 c 0,0,1
84 1328 m 0,20,21
 84 1370 84 1370 102.5 1407.5 c 128,-1,22
 121 1445 121 1445 152.5 1473.5 c 128,-1,23
 184 1502 184 1502 225.5 1519 c 128,-1,24
 267 1536 267 1536 314 1536 c 0,25,26
 360 1536 360 1536 401.5 1519 c 128,-1,27
 443 1502 443 1502 474.5 1473.5 c 128,-1,28
 506 1445 506 1445 525 1407.5 c 128,-1,29
 544 1370 544 1370 544 1328 c 0,30,31
 544 1285 544 1285 525 1247.5 c 128,-1,32
 506 1210 506 1210 474.5 1182 c 128,-1,33
 443 1154 443 1154 401.5 1138 c 128,-1,34
 360 1122 360 1122 314 1122 c 0,35,36
 267 1122 267 1122 225.5 1138 c 128,-1,37
 184 1154 184 1154 152.5 1182 c 128,-1,38
 121 1210 121 1210 102.5 1247.5 c 128,-1,39
 84 1285 84 1285 84 1328 c 0,20,21
EndSplineSet
EndChar

StartChar: copyright
Encoding: 169 169 103
Width: 1426
GlyphClass: 2
Flags: W
LayerCount: 2
Fore
SplineSet
711 90 m 256,0,1
 815 90 815 90 906.5 131 c 128,-1,2
 998 172 998 172 1066 243 c 128,-1,3
 1134 314 1134 314 1173.5 409 c 128,-1,4
 1213 504 1213 504 1213 612 c 0,5,6
 1213 719 1213 719 1173.5 814 c 128,-1,7
 1134 909 1134 909 1066 980 c 128,-1,8
 998 1051 998 1051 906.5 1092.5 c 128,-1,9
 815 1134 815 1134 711 1134 c 256,10,11
 607 1134 607 1134 516 1092.5 c 128,-1,12
 425 1051 425 1051 356.5 980 c 128,-1,13
 288 909 288 909 248.5 814 c 128,-1,14
 209 719 209 719 209 612 c 0,15,16
 209 504 209 504 248.5 409 c 128,-1,17
 288 314 288 314 356.5 243 c 128,-1,18
 425 172 425 172 516 131 c 128,-1,19
 607 90 607 90 711 90 c 256,0,1
711 -32 m 256,20,21
 622 -32 622 -32 540 -8.5 c 128,-1,22
 458 15 458 15 386.5 57.5 c 128,-1,23
 315 100 315 100 257 159.5 c 128,-1,24
 199 219 199 219 157.5 291.5 c 128,-1,25
 116 364 116 364 93.5 447 c 128,-1,26
 71 530 71 530 71 619 c 0,27,28
 71 752 71 752 122.5 867.5 c 128,-1,29
 174 983 174 983 262.5 1068.5 c 128,-1,30
 351 1154 351 1154 468.5 1203 c 128,-1,31
 586 1252 586 1252 718 1252 c 0,32,33
 806 1252 806 1252 887.5 1229 c 128,-1,34
 969 1206 969 1206 1039.5 1163.5 c 128,-1,35
 1110 1121 1110 1121 1168.5 1062.5 c 128,-1,36
 1227 1004 1227 1004 1268.5 932.5 c 128,-1,37
 1310 861 1310 861 1332.5 780 c 128,-1,38
 1355 699 1355 699 1355 612 c 0,39,40
 1355 523 1355 523 1332 441 c 128,-1,41
 1309 359 1309 359 1267 287.5 c 128,-1,42
 1225 216 1225 216 1166.5 157 c 128,-1,43
 1108 98 1108 98 1036.5 56 c 128,-1,44
 965 14 965 14 882.5 -9 c 128,-1,45
 800 -32 800 -32 711 -32 c 256,20,21
959 282 m 1,46,47
 905 255 905 255 848.5 242.5 c 128,-1,48
 792 230 792 230 735 230 c 0,49,50
 656 231 656 231 585.5 255 c 128,-1,51
 515 279 515 279 461.5 326 c 128,-1,52
 408 373 408 373 376 444 c 128,-1,53
 344 515 344 515 343 610 c 0,54,55
 343 698 343 698 375 768.5 c 128,-1,56
 407 839 407 839 461 888.5 c 128,-1,57
 515 938 515 938 584.5 964 c 128,-1,58
 654 990 654 990 729 990 c 0,59,60
 789 990 789 990 848 975.5 c 128,-1,61
 907 961 907 961 961 928 c 1,62,-1
 943 814 l 1,63,64
 892 840 892 840 844 851 c 128,-1,65
 796 862 796 862 751 862 c 0,66,67
 701 862 701 862 656.5 847 c 128,-1,68
 612 832 612 832 578 801 c 128,-1,69
 544 770 544 770 524.5 722.5 c 128,-1,70
 505 675 505 675 505 610 c 0,71,72
 505 553 505 553 521.5 506.5 c 128,-1,73
 538 460 538 460 569.5 427.5 c 128,-1,74
 601 395 601 395 646 377.5 c 128,-1,75
 691 360 691 360 749 360 c 0,76,77
 831 360 831 360 939 402 c 1,78,-1
 959 282 l 1,46,47
EndSplineSet
EndChar

StartChar: guillemotleft
Encoding: 171 171 105
Width: 1109
GlyphClass: 2
Flags: W
LayerCount: 2
Fore
SplineSet
585 810 m 1,0,-1
 1015 1116 l 1,1,-1
 1015 744 l 1,2,-1
 817 626 l 1,3,-1
 1015 502 l 1,4,-1
 1015 128 l 1,5,-1
 585 442 l 1,6,-1
 585 810 l 1,0,-1
53 810 m 1,7,-1
 483 1116 l 1,8,-1
 483 744 l 1,9,-1
 287 626 l 1,10,-1
 483 502 l 1,11,-1
 483 128 l 1,12,-1
 53 442 l 1,13,-1
 53 810 l 1,7,-1
EndSplineSet
EndChar

StartChar: logicalnot
Encoding: 172 172 106
Width: 1094
GlyphClass: 2
Flags: W
LayerCount: 2
Fore
SplineSet
982 852 m 1,0,-1
 982 174 l 1,1,-1
 762 174 l 1,2,-1
 762 530 l 1,3,-1
 80 530 l 1,4,-1
 80 852 l 1,5,-1
 982 852 l 1,0,-1
EndSplineSet
EndChar

StartChar: registered
Encoding: 174 174 107
Width: 1426
GlyphClass: 2
Flags: W
LayerCount: 2
Fore
SplineSet
467 994 m 1,0,-1
 723 994 l 2,1,2
 804 994 804 994 858 977.5 c 128,-1,3
 912 961 912 961 944 934 c 128,-1,4
 976 907 976 907 989.5 871 c 128,-1,5
 1003 835 1003 835 1003 796 c 0,6,7
 1003 767 1003 767 996 736 c 128,-1,8
 989 705 989 705 969.5 677.5 c 128,-1,9
 950 650 950 650 915 629.5 c 128,-1,10
 880 609 880 609 825 602 c 1,11,12
 835 555 835 555 844 510.5 c 128,-1,13
 853 466 853 466 871.5 431 c 128,-1,14
 890 396 890 396 922.5 374.5 c 128,-1,15
 955 353 955 353 1012 353 c 0,16,17
 1025 353 1025 353 1037 358 c 1,18,-1
 1011 256 l 1,19,20
 924 256 924 256 875 279.5 c 128,-1,21
 826 303 826 303 797.5 346.5 c 128,-1,22
 769 390 769 390 752.5 453 c 128,-1,23
 736 516 736 516 715 596 c 1,24,-1
 583 596 l 1,25,-1
 583 272 l 1,26,-1
 467 272 l 1,27,-1
 467 994 l 1,0,-1
703 690 m 1,28,29
 761 691 761 691 795.5 697 c 128,-1,30
 830 703 830 703 848 715.5 c 128,-1,31
 866 728 866 728 871.5 747.5 c 128,-1,32
 877 767 877 767 877 796 c 0,33,34
 877 820 877 820 871.5 839 c 128,-1,35
 866 858 866 858 849 871 c 128,-1,36
 832 884 832 884 799.5 891 c 128,-1,37
 767 898 767 898 713 898 c 2,38,-1
 583 898 l 1,39,-1
 583 690 l 1,40,-1
 703 690 l 1,28,29
711 90 m 256,41,42
 815 90 815 90 906.5 131 c 128,-1,43
 998 172 998 172 1066 243 c 128,-1,44
 1134 314 1134 314 1173.5 409 c 128,-1,45
 1213 504 1213 504 1213 612 c 0,46,47
 1213 719 1213 719 1173.5 814 c 128,-1,48
 1134 909 1134 909 1066 980 c 128,-1,49
 998 1051 998 1051 906.5 1092.5 c 128,-1,50
 815 1134 815 1134 711 1134 c 256,51,52
 607 1134 607 1134 516 1092.5 c 128,-1,53
 425 1051 425 1051 356.5 980 c 128,-1,54
 288 909 288 909 248.5 814 c 128,-1,55
 209 719 209 719 209 612 c 0,56,57
 209 504 209 504 248.5 409 c 128,-1,58
 288 314 288 314 356.5 243 c 128,-1,59
 425 172 425 172 516 131 c 128,-1,60
 607 90 607 90 711 90 c 256,41,42
711 -32 m 256,61,62
 622 -32 622 -32 540 -8.5 c 128,-1,63
 458 15 458 15 386.5 57.5 c 128,-1,64
 315 100 315 100 257 159.5 c 128,-1,65
 199 219 199 219 157.5 291.5 c 128,-1,66
 116 364 116 364 93.5 447 c 128,-1,67
 71 530 71 530 71 619 c 0,68,69
 71 752 71 752 122.5 867.5 c 128,-1,70
 174 983 174 983 262.5 1068.5 c 128,-1,71
 351 1154 351 1154 468.5 1203 c 128,-1,72
 586 1252 586 1252 718 1252 c 0,73,74
 806 1252 806 1252 887.5 1229 c 128,-1,75
 969 1206 969 1206 1039.5 1163.5 c 128,-1,76
 1110 1121 1110 1121 1168.5 1062.5 c 128,-1,77
 1227 1004 1227 1004 1268.5 932.5 c 128,-1,78
 1310 861 1310 861 1332.5 780 c 128,-1,79
 1355 699 1355 699 1355 612 c 0,80,81
 1355 523 1355 523 1332 441 c 128,-1,82
 1309 359 1309 359 1267 287.5 c 128,-1,83
 1225 216 1225 216 1166.5 157 c 128,-1,84
 1108 98 1108 98 1036.5 56 c 128,-1,85
 965 14 965 14 882.5 -9 c 128,-1,86
 800 -32 800 -32 711 -32 c 256,61,62
EndSplineSet
EndChar

StartChar: degree
Encoding: 176 176 109
Width: 1278
GlyphClass: 2
Flags: W
LayerCount: 2
Fore
SplineSet
909 878 m 256,0,1
 909 950 909 950 886 1004 c 128,-1,2
 863 1058 863 1058 825.5 1094 c 128,-1,3
 788 1130 788 1130 739.5 1148 c 128,-1,4
 691 1166 691 1166 641 1166 c 256,5,6
 591 1166 591 1166 542.5 1148 c 128,-1,7
 494 1130 494 1130 456 1094 c 128,-1,8
 418 1058 418 1058 395 1004 c 128,-1,9
 372 950 372 950 372 878 c 256,10,11
 372 806 372 806 395 751.5 c 128,-1,12
 418 697 418 697 456 661 c 128,-1,13
 494 625 494 625 542 607 c 128,-1,14
 590 589 590 589 641 589 c 0,15,16
 691 589 691 589 739.5 607 c 128,-1,17
 788 625 788 625 825.5 661 c 128,-1,18
 863 697 863 697 886 751.5 c 128,-1,19
 909 806 909 806 909 878 c 256,0,1
641 1421 m 2,20,-1
 662 1421 l 2,21,22
 798 1421 798 1421 900.5 1375 c 128,-1,23
 1003 1329 1003 1329 1071.5 1253.5 c 128,-1,24
 1140 1178 1140 1178 1174 1081.5 c 128,-1,25
 1208 985 1208 985 1208 884 c 0,26,27
 1208 781 1208 781 1172.5 681.5 c 128,-1,28
 1137 582 1137 582 1065.5 504 c 128,-1,29
 994 426 994 426 887.5 378.5 c 128,-1,30
 781 331 781 331 639 331 c 0,31,32
 496 331 496 331 389.5 378 c 128,-1,33
 283 425 283 425 211.5 501.5 c 128,-1,34
 140 578 140 578 104.5 676 c 128,-1,35
 69 774 69 774 69 876 c 256,36,37
 69 978 69 978 104.5 1076 c 128,-1,38
 140 1174 140 1174 211.5 1250.5 c 128,-1,39
 283 1327 283 1327 390.5 1374 c 128,-1,40
 498 1421 498 1421 641 1421 c 2,20,-1
EndSplineSet
EndChar

StartChar: plusminus
Encoding: 177 177 110
Width: 1140
GlyphClass: 2
Flags: W
LayerCount: 2
Fore
SplineSet
512 644 m 1,0,-1
 72 644 l 1,1,-1
 72 760 l 1,2,-1
 512 760 l 1,3,-1
 512 1212 l 1,4,-1
 632 1212 l 1,5,-1
 632 760 l 1,6,-1
 1068 760 l 1,7,-1
 1068 644 l 1,8,-1
 632 644 l 1,9,-1
 632 186 l 1,10,-1
 512 186 l 1,11,-1
 512 644 l 1,0,-1
72 114 m 1,12,-1
 1068 114 l 1,13,-1
 1068 0 l 1,14,-1
 72 0 l 1,15,-1
 72 114 l 1,12,-1
EndSplineSet
EndChar

StartChar: twosuperior
Encoding: 178 178 111
Width: 666
GlyphClass: 2
Flags: W
LayerCount: 2
Fore
SplineSet
84 848 m 1,0,1
 155 914 155 914 205.5 968 c 128,-1,2
 256 1022 256 1022 288 1064.5 c 128,-1,3
 320 1107 320 1107 335 1138 c 128,-1,4
 350 1169 350 1169 350 1190 c 0,5,6
 350 1206 350 1206 343 1216.5 c 128,-1,7
 336 1227 336 1227 324 1233.5 c 128,-1,8
 312 1240 312 1240 297.5 1243 c 128,-1,9
 283 1246 283 1246 268 1246 c 0,10,11
 250 1246 250 1246 230 1241 c 128,-1,12
 210 1236 210 1236 191 1229 c 128,-1,13
 172 1222 172 1222 156 1214.5 c 128,-1,14
 140 1207 140 1207 130 1202 c 1,15,-1
 70 1376 l 1,16,17
 130 1402 130 1402 203 1421 c 128,-1,18
 276 1440 276 1440 348 1440 c 0,19,20
 401 1440 401 1440 445.5 1422.5 c 128,-1,21
 490 1405 490 1405 522 1373 c 128,-1,22
 554 1341 554 1341 572 1295 c 128,-1,23
 590 1249 590 1249 590 1192 c 0,24,25
 590 1158 590 1158 578.5 1118.5 c 128,-1,26
 567 1079 567 1079 537.5 1036 c 128,-1,27
 508 993 508 993 457.5 947.5 c 128,-1,28
 407 902 407 902 328 856 c 1,29,-1
 568 856 l 1,30,-1
 568 686 l 1,31,-1
 84 686 l 1,32,-1
 84 848 l 1,0,1
EndSplineSet
EndChar

StartChar: threesuperior
Encoding: 179 179 112
Width: 644
GlyphClass: 2
Flags: W
LayerCount: 2
Fore
SplineSet
106 868 m 1,0,1
 121 863 121 863 141.5 856.5 c 128,-1,2
 162 850 162 850 185 844.5 c 128,-1,3
 208 839 208 839 232 835.5 c 128,-1,4
 256 832 256 832 278 832 c 0,5,6
 317 832 317 832 339.5 846 c 128,-1,7
 362 860 362 860 362 884 c 0,8,9
 362 917 362 917 343 937.5 c 128,-1,10
 324 958 324 958 294 970 c 128,-1,11
 264 982 264 982 228.5 986 c 128,-1,12
 193 990 193 990 160 990 c 1,13,-1
 160 1128 l 1,14,15
 218 1128 218 1128 256 1135 c 128,-1,16
 294 1142 294 1142 316.5 1154 c 128,-1,17
 339 1166 339 1166 347.5 1180.5 c 128,-1,18
 356 1195 356 1195 356 1210 c 0,19,20
 356 1233 356 1233 339 1244.5 c 128,-1,21
 322 1256 322 1256 296 1256 c 0,22,23
 254 1256 254 1256 204 1246 c 128,-1,24
 154 1236 154 1236 106 1222 c 1,25,-1
 68 1380 l 1,26,27
 125 1406 125 1406 191 1423 c 128,-1,28
 257 1440 257 1440 320 1440 c 0,29,30
 372 1440 372 1440 414.5 1424.5 c 128,-1,31
 457 1409 457 1409 487 1383.5 c 128,-1,32
 517 1358 517 1358 533.5 1325 c 128,-1,33
 550 1292 550 1292 550 1258 c 0,34,35
 550 1146 550 1146 444 1076 c 1,36,37
 496 1053 496 1053 524 1021.5 c 128,-1,38
 552 990 552 990 565.5 960 c 128,-1,39
 579 930 579 930 581.5 905.5 c 128,-1,40
 584 881 584 881 584 872 c 0,41,42
 584 819 584 819 561.5 778.5 c 128,-1,43
 539 738 539 738 501.5 711 c 128,-1,44
 464 684 464 684 413.5 670 c 128,-1,45
 363 656 363 656 308 656 c 0,46,47
 248 656 248 656 185 671 c 128,-1,48
 122 686 122 686 68 704 c 1,49,-1
 106 868 l 1,0,1
EndSplineSet
EndChar

StartChar: acute
Encoding: 180 180 113
Width: 818
GlyphClass: 2
Flags: W
LayerCount: 2
Fore
SplineSet
4 1370 m 1,0,-1
 604 1790 l 1,1,-1
 812 1424 l 1,2,-1
 130 1150 l 1,3,-1
 4 1370 l 1,0,-1
EndSplineSet
EndChar

StartChar: mu
Encoding: 956 956 114
AltUni2: 0003bc.ffffffff.0
Width: 1272
GlyphClass: 2
Flags: W
LayerCount: 2
Fore
SplineSet
116 1026 m 1,0,-1
 538 1026 l 1,1,-1
 538 344 l 1,2,3
 561 329 561 329 594.5 316.5 c 128,-1,4
 628 304 628 304 666 304 c 0,5,6
 688 304 688 304 710.5 313 c 128,-1,7
 733 322 733 322 750.5 338 c 128,-1,8
 768 354 768 354 779 376.5 c 128,-1,9
 790 399 790 399 790 426 c 2,10,-1
 790 1026 l 1,11,-1
 1202 1026 l 1,12,-1
 1202 440 l 2,13,14
 1202 338 1202 338 1167.5 251.5 c 128,-1,15
 1133 165 1133 165 1072.5 102 c 128,-1,16
 1012 39 1012 39 930.5 3.5 c 128,-1,17
 849 -32 849 -32 755 -32 c 0,18,19
 698 -32 698 -32 642 -18.5 c 128,-1,20
 586 -5 586 -5 526 24 c 1,21,-1
 526 -270 l 1,22,-1
 116 -300 l 1,23,-1
 116 1026 l 1,0,-1
EndSplineSet
EndChar

StartChar: paragraph
Encoding: 182 182 115
Width: 1138
GlyphClass: 2
Flags: W
LayerCount: 2
Fore
SplineSet
529 728 m 1,0,-1
 443 728 l 2,1,2
 346 728 346 728 272 757.5 c 128,-1,3
 198 787 198 787 148 835 c 128,-1,4
 98 883 98 883 72.5 944 c 128,-1,5
 47 1005 47 1005 47 1068 c 0,6,7
 47 1132 47 1132 75.5 1193 c 128,-1,8
 104 1254 104 1254 163.5 1302 c 128,-1,9
 223 1350 223 1350 313.5 1379 c 128,-1,10
 404 1408 404 1408 529 1408 c 2,11,-1
 987 1408 l 1,12,-1
 987 0 l 1,13,-1
 823 0 l 1,14,-1
 823 1254 l 1,15,-1
 695 1254 l 1,16,-1
 695 0 l 1,17,-1
 529 0 l 1,18,-1
 529 728 l 1,0,-1
EndSplineSet
EndChar

StartChar: cedilla
Encoding: 184 184 116
Width: 560
GlyphClass: 2
Flags: W
LayerCount: 2
Fore
SplineSet
66 -388 m 1,0,1
 87 -394 87 -394 110.5 -398 c 128,-1,2
 134 -402 134 -402 158 -402 c 256,3,4
 182 -402 182 -402 206 -396.5 c 128,-1,5
 230 -391 230 -391 248.5 -377 c 128,-1,6
 267 -363 267 -363 278.5 -338 c 128,-1,7
 290 -313 290 -313 290 -274 c 0,8,9
 290 -256 290 -256 284 -239 c 128,-1,10
 278 -222 278 -222 264 -209 c 128,-1,11
 250 -196 250 -196 227.5 -188 c 128,-1,12
 205 -180 205 -180 172 -180 c 2,13,-1
 168 -180 l 1,14,-1
 228 0 l 1,15,-1
 342 0 l 1,16,-1
 302 -116 l 1,17,18
 357 -122 357 -122 397.5 -137 c 128,-1,19
 438 -152 438 -152 463.5 -173 c 128,-1,20
 489 -194 489 -194 501.5 -220.5 c 128,-1,21
 514 -247 514 -247 514 -276 c 0,22,23
 514 -322 514 -322 490.5 -364 c 128,-1,24
 467 -406 467 -406 426.5 -438 c 128,-1,25
 386 -470 386 -470 332.5 -489 c 128,-1,26
 279 -508 279 -508 218 -508 c 0,27,28
 176 -508 176 -508 131 -498 c 128,-1,29
 86 -488 86 -488 38 -464 c 1,30,-1
 66 -388 l 1,0,1
EndSplineSet
EndChar

StartChar: onesuperior
Encoding: 185 185 117
Width: 560
GlyphClass: 2
Flags: W
LayerCount: 2
Fore
SplineSet
86 842 m 1,0,-1
 176 842 l 1,1,-1
 176 1204 l 1,2,-1
 86 1196 l 1,3,-1
 86 1338 l 1,4,5
 151 1338 151 1338 205 1360 c 128,-1,6
 259 1382 259 1382 294 1408 c 1,7,-1
 408 1408 l 1,8,-1
 408 842 l 1,9,-1
 498 842 l 1,10,-1
 498 682 l 1,11,-1
 86 682 l 1,12,-1
 86 842 l 1,0,-1
EndSplineSet
EndChar

StartChar: guillemotright
Encoding: 187 187 119
Width: 1107
GlyphClass: 2
Flags: W
LayerCount: 2
Fore
SplineSet
624 502 m 1,0,-1
 820 626 l 1,1,-1
 624 744 l 1,2,-1
 624 1116 l 1,3,-1
 1054 810 l 1,4,-1
 1054 442 l 1,5,-1
 624 128 l 1,6,-1
 624 502 l 1,0,-1
94 502 m 1,7,-1
 290 626 l 1,8,-1
 94 744 l 1,9,-1
 94 1116 l 1,10,-1
 524 810 l 1,11,-1
 524 442 l 1,12,-1
 94 128 l 1,13,-1
 94 502 l 1,7,-1
EndSplineSet
EndChar

StartChar: questiondown
Encoding: 191 191 123
Width: 1036
GlyphClass: 2
Flags: W
LayerCount: 2
Fore
SplineSet
957 58 m 1,0,1
 738 -32 738 -32 545 -32 c 0,2,3
 447 -32 447 -32 357 -7 c 128,-1,4
 267 18 267 18 198.5 66 c 128,-1,5
 130 114 130 114 89.5 185.5 c 128,-1,6
 49 257 49 257 49 350 c 0,7,8
 49 414 49 414 68.5 463 c 128,-1,9
 88 512 88 512 120.5 549.5 c 128,-1,10
 153 587 153 587 194 614 c 128,-1,11
 235 641 235 641 278 663 c 128,-1,12
 321 685 321 685 362 702.5 c 128,-1,13
 403 720 403 720 435.5 737.5 c 128,-1,14
 468 755 468 755 487.5 774.5 c 128,-1,15
 507 794 507 794 507 820 c 0,16,17
 507 829 507 829 508 839.5 c 128,-1,18
 509 850 509 850 509 862 c 2,19,-1
 509 888 l 1,20,-1
 795 888 l 1,21,22
 807 846 807 846 819 806.5 c 128,-1,23
 831 767 831 767 831 728 c 0,24,25
 831 666 831 666 806.5 622 c 128,-1,26
 782 578 782 578 745.5 547 c 128,-1,27
 709 516 709 516 666 494.5 c 128,-1,28
 623 473 623 473 586.5 455 c 128,-1,29
 550 437 550 437 525.5 420.5 c 128,-1,30
 501 404 501 404 501 382 c 0,31,32
 501 361 501 361 518.5 348 c 128,-1,33
 536 335 536 335 561.5 328 c 128,-1,34
 587 321 587 321 615 318.5 c 128,-1,35
 643 316 643 316 663 316 c 0,36,37
 699 316 699 316 739 321.5 c 128,-1,38
 779 327 779 327 816 335 c 128,-1,39
 853 343 853 343 883 352.5 c 128,-1,40
 913 362 913 362 929 370 c 1,41,-1
 957 58 l 1,0,1
887 1232 m 0,42,43
 887 1191 887 1191 868 1153.5 c 128,-1,44
 849 1116 849 1116 817.5 1087.5 c 128,-1,45
 786 1059 786 1059 743.5 1042.5 c 128,-1,46
 701 1026 701 1026 655 1026 c 256,47,48
 609 1026 609 1026 567.5 1042.5 c 128,-1,49
 526 1059 526 1059 494.5 1087.5 c 128,-1,50
 463 1116 463 1116 444 1153.5 c 128,-1,51
 425 1191 425 1191 425 1232 c 0,52,53
 425 1275 425 1275 444 1313 c 128,-1,54
 463 1351 463 1351 494.5 1379.5 c 128,-1,55
 526 1408 526 1408 567.5 1424 c 128,-1,56
 609 1440 609 1440 655 1440 c 256,57,58
 701 1440 701 1440 743.5 1424 c 128,-1,59
 786 1408 786 1408 817.5 1379.5 c 128,-1,60
 849 1351 849 1351 868 1313 c 128,-1,61
 887 1275 887 1275 887 1232 c 0,42,43
EndSplineSet
EndChar

StartChar: AE
Encoding: 198 198 130
Width: 1914
GlyphClass: 2
Flags: W
LayerCount: 2
Fore
SplineSet
476 1408 m 1,0,-1
 1652 1408 l 1,1,-1
 1708 1098 l 1,2,-1
 1143 1098 l 1,3,-1
 1192 842 l 1,4,-1
 1702 842 l 1,5,-1
 1752 584 l 1,6,-1
 1254 584 l 1,7,-1
 1314 308 l 1,8,-1
 1842 308 l 1,9,-1
 1898 0 l 1,10,-1
 918 0 l 1,11,-1
 872 270 l 1,12,-1
 526 270 l 1,13,-1
 442 0 l 1,14,-1
 -6 0 l 1,15,-1
 476 1408 l 1,0,-1
824 522 m 1,16,-1
 740 1036 l 1,17,-1
 602 522 l 1,18,-1
 824 522 l 1,16,-1
EndSplineSet
EndChar

StartChar: Eth
Encoding: 208 208 140
Width: 1618
GlyphClass: 2
Flags: W
LayerCount: 2
Fore
SplineSet
3 618 m 1,0,-1
 3 792 l 1,1,-1
 187 792 l 1,2,-1
 187 1376 l 1,3,-1
 799 1376 l 2,4,5
 924 1376 924 1376 1028 1349.5 c 128,-1,6
 1132 1323 1132 1323 1216 1275.5 c 128,-1,7
 1300 1228 1300 1228 1363 1163.5 c 128,-1,8
 1426 1099 1426 1099 1468.5 1024 c 128,-1,9
 1511 949 1511 949 1532 865.5 c 128,-1,10
 1553 782 1553 782 1553 698 c 0,11,12
 1553 609 1553 609 1532 523 c 128,-1,13
 1511 437 1511 437 1469 359.5 c 128,-1,14
 1427 282 1427 282 1363.5 216 c 128,-1,15
 1300 150 1300 150 1216.5 102 c 128,-1,16
 1133 54 1133 54 1028.5 27 c 128,-1,17
 924 0 924 0 799 0 c 2,18,-1
 187 0 l 1,19,-1
 187 618 l 1,20,-1
 3 618 l 1,0,-1
799 368 m 2,21,22
 871 368 871 368 926 396.5 c 128,-1,23
 981 425 981 425 1018 471.5 c 128,-1,24
 1055 518 1055 518 1074 578 c 128,-1,25
 1093 638 1093 638 1093 702 c 0,26,27
 1093 757 1093 757 1074.5 811.5 c 128,-1,28
 1056 866 1056 866 1019.5 909.5 c 128,-1,29
 983 953 983 953 927.5 980.5 c 128,-1,30
 872 1008 872 1008 799 1008 c 2,31,-1
 639 1008 l 1,32,-1
 639 792 l 1,33,-1
 801 792 l 1,34,-1
 801 618 l 1,35,-1
 639 618 l 1,36,-1
 639 368 l 1,37,-1
 799 368 l 2,21,22
EndSplineSet
EndChar

StartChar: multiply
Encoding: 215 215 147
Width: 941
GlyphClass: 2
Flags: W
LayerCount: 2
Fore
SplineSet
386 514 m 1,0,-1
 66 836 l 1,1,-1
 150 920 l 1,2,-1
 472 600 l 1,3,-1
 792 920 l 1,4,-1
 876 836 l 1,5,-1
 558 514 l 1,6,-1
 868 202 l 1,7,-1
 786 122 l 1,8,-1
 472 434 l 1,9,-1
 156 122 l 1,10,-1
 74 202 l 1,11,-1
 386 514 l 1,0,-1
EndSplineSet
EndChar

StartChar: Oslash
Encoding: 216 216 148
Width: 1636
GlyphClass: 2
Flags: W
LayerCount: 2
Fore
SplineSet
65 702 m 0,0,1
 65 799 65 799 87 891.5 c 128,-1,2
 109 984 109 984 152 1066 c 128,-1,3
 195 1148 195 1148 259 1216.5 c 128,-1,4
 323 1285 323 1285 407 1334.5 c 128,-1,5
 491 1384 491 1384 594 1411.5 c 128,-1,6
 697 1439 697 1439 819 1439 c 0,7,8
 851 1439 851 1439 882.5 1437 c 128,-1,9
 914 1435 914 1435 944 1431 c 1,10,-1
 1007 1677 l 1,11,-1
 1147 1677 l 1,12,-1
 1076 1402 l 1,13,14
 1197 1364 1197 1364 1289.5 1294 c 128,-1,15
 1382 1224 1382 1224 1444.5 1131 c 128,-1,16
 1507 1038 1507 1038 1539 928.5 c 128,-1,17
 1571 819 1571 819 1571 702 c 0,18,19
 1571 611 1571 611 1550 521.5 c 128,-1,20
 1529 432 1529 432 1487.5 350.5 c 128,-1,21
 1446 269 1446 269 1383.5 199 c 128,-1,22
 1321 129 1321 129 1237.5 77.5 c 128,-1,23
 1154 26 1154 26 1049 -3 c 128,-1,24
 944 -32 944 -32 819 -32 c 0,25,26
 761 -32 761 -32 709 -26 c 1,27,-1
 628 -340 l 1,28,-1
 492 -340 l 1,29,-1
 579 0 l 1,30,31
 451 36 451 36 354.5 108 c 128,-1,32
 258 180 258 180 193.5 274.5 c 128,-1,33
 129 369 129 369 97 479 c 128,-1,34
 65 589 65 589 65 702 c 0,0,1
819 1080 m 1,35,36
 744 1079 744 1079 688.5 1046.5 c 128,-1,37
 633 1014 633 1014 596 961.5 c 128,-1,38
 559 909 559 909 541 841.5 c 128,-1,39
 523 774 523 774 523 704 c 0,40,41
 523 654 523 654 532.5 606 c 128,-1,42
 542 558 542 558 561 515.5 c 128,-1,43
 580 473 580 473 608.5 438 c 128,-1,44
 637 403 637 403 675 379 c 1,45,-1
 853 1076 l 1,46,47
 845 1078 845 1078 836.5 1078.5 c 128,-1,48
 828 1079 828 1079 819 1080 c 1,35,36
819 340 m 2,49,50
 892 340 892 340 947.5 371 c 128,-1,51
 1003 402 1003 402 1039.5 453 c 128,-1,52
 1076 504 1076 504 1094.5 569.5 c 128,-1,53
 1113 635 1113 635 1113 704 c 0,54,55
 1113 752 1113 752 1104.5 798.5 c 128,-1,56
 1096 845 1096 845 1079.5 886.5 c 128,-1,57
 1063 928 1063 928 1038 963 c 128,-1,58
 1013 998 1013 998 979 1024 c 1,59,-1
 803 340 l 1,60,-1
 819 340 l 2,49,50
EndSplineSet
EndChar

StartChar: Thorn
Encoding: 222 222 154
Width: 1334
GlyphClass: 2
Flags: W
LayerCount: 2
Fore
SplineSet
134 1408 m 1,0,-1
 574 1408 l 1,1,-1
 574 1266 l 1,2,-1
 642 1266 l 2,3,4
 827 1266 827 1266 953.5 1227 c 128,-1,5
 1080 1188 1080 1188 1157.5 1123 c 128,-1,6
 1235 1058 1235 1058 1268.5 974 c 128,-1,7
 1302 890 1302 890 1302 800 c 0,8,9
 1302 714 1302 714 1262 631 c 128,-1,10
 1222 548 1222 548 1141.5 483.5 c 128,-1,11
 1061 419 1061 419 940.5 379.5 c 128,-1,12
 820 340 820 340 660 340 c 2,13,-1
 574 340 l 1,14,-1
 574 0 l 1,15,-1
 134 0 l 1,16,-1
 134 1408 l 1,0,-1
574 628 m 1,17,18
 597 625 597 625 619 624.5 c 128,-1,19
 641 624 641 624 662 624 c 0,20,21
 774 624 774 624 832 671.5 c 128,-1,22
 890 719 890 719 890 800 c 0,23,24
 890 833 890 833 875.5 864 c 128,-1,25
 861 895 861 895 832.5 919 c 128,-1,26
 804 943 804 943 761 957.5 c 128,-1,27
 718 972 718 972 662 972 c 2,28,-1
 574 972 l 1,29,-1
 574 628 l 1,17,18
EndSplineSet
EndChar

StartChar: germandbls
Encoding: 223 223 155
Width: 1448
GlyphClass: 2
Flags: W
LayerCount: 2
Fore
SplineSet
106 1104 m 2,0,1
 106 1168 106 1168 145.5 1228.5 c 128,-1,2
 185 1289 185 1289 260.5 1336 c 128,-1,3
 336 1383 336 1383 446 1411.5 c 128,-1,4
 556 1440 556 1440 698 1440 c 0,5,6
 827 1440 827 1440 923.5 1409.5 c 128,-1,7
 1020 1379 1020 1379 1084.5 1329.5 c 128,-1,8
 1149 1280 1149 1280 1181.5 1218 c 128,-1,9
 1214 1156 1214 1156 1214 1094 c 0,10,11
 1214 1006 1214 1006 1174.5 932.5 c 128,-1,12
 1135 859 1135 859 1060 814 c 1,13,14
 1141 790 1141 790 1206 746.5 c 128,-1,15
 1271 703 1271 703 1316 648 c 128,-1,16
 1361 593 1361 593 1385.5 529.5 c 128,-1,17
 1410 466 1410 466 1410 400 c 0,18,19
 1410 308 1410 308 1375.5 219.5 c 128,-1,20
 1341 131 1341 131 1267 62 c 128,-1,21
 1193 -7 1193 -7 1077.5 -49.5 c 128,-1,22
 962 -92 962 -92 800 -92 c 0,23,24
 764 -92 764 -92 732 -91 c 128,-1,25
 700 -90 700 -90 664 -90 c 1,26,-1
 664 240 l 1,27,28
 702 237 702 237 724 236.5 c 128,-1,29
 746 236 746 236 764 236 c 0,30,31
 816 236 816 236 855 256 c 128,-1,32
 894 276 894 276 919.5 308.5 c 128,-1,33
 945 341 945 341 957.5 382.5 c 128,-1,34
 970 424 970 424 970 468 c 0,35,36
 970 507 970 507 954.5 545 c 128,-1,37
 939 583 939 583 906.5 616.5 c 128,-1,38
 874 650 874 650 824 676.5 c 128,-1,39
 774 703 774 703 704 718 c 1,40,-1
 704 908 l 1,41,42
 744 915 744 915 776 929.5 c 128,-1,43
 808 944 808 944 829.5 963.5 c 128,-1,44
 851 983 851 983 862.5 1005 c 128,-1,45
 874 1027 874 1027 874 1050 c 0,46,47
 874 1072 874 1072 863 1093.5 c 128,-1,48
 852 1115 852 1115 829.5 1131.5 c 128,-1,49
 807 1148 807 1148 773.5 1158 c 128,-1,50
 740 1168 740 1168 694 1168 c 0,51,52
 653 1168 653 1168 625 1155 c 128,-1,53
 597 1142 597 1142 579.5 1121.5 c 128,-1,54
 562 1101 562 1101 554 1076.5 c 128,-1,55
 546 1052 546 1052 546 1030 c 2,56,-1
 546 0 l 1,57,-1
 106 -32 l 1,58,-1
 106 1104 l 2,0,1
EndSplineSet
EndChar

StartChar: ae
Encoding: 230 230 162
Width: 2162
GlyphClass: 2
Flags: W
LayerCount: 2
Fore
SplineSet
890 190 m 1,0,1
 863 133 863 133 826 91 c 128,-1,2
 789 49 789 49 745 22 c 128,-1,3
 701 -5 701 -5 652 -18.5 c 128,-1,4
 603 -32 603 -32 552 -32 c 0,5,6
 460 -32 460 -32 370.5 7.5 c 128,-1,7
 281 47 281 47 210 119 c 128,-1,8
 139 191 139 191 95.5 292.5 c 128,-1,9
 52 394 52 394 52 519 c 0,10,11
 52 600 52 600 73 671.5 c 128,-1,12
 94 743 94 743 130 802.5 c 128,-1,13
 166 862 166 862 214.5 909 c 128,-1,14
 263 956 263 956 319 989 c 128,-1,15
 375 1022 375 1022 435 1039 c 128,-1,16
 495 1056 495 1056 554 1056 c 0,17,18
 605 1056 605 1056 655.5 1038 c 128,-1,19
 706 1020 706 1020 751 987 c 128,-1,20
 796 954 796 954 832 907 c 128,-1,21
 868 860 868 860 890 802 c 1,22,-1
 890 1056 l 1,23,-1
 1290 1026 l 1,24,-1
 1290 936 l 1,25,26
 1327 970 1327 970 1376 996 c 0,27,28
 1418 1019 1418 1019 1478 1037.5 c 128,-1,29
 1538 1056 1538 1056 1613 1056 c 0,30,31
 1710 1056 1710 1056 1800.5 1024.5 c 128,-1,32
 1891 993 1891 993 1961.5 929 c 128,-1,33
 2032 865 2032 865 2074.5 767.5 c 128,-1,34
 2117 670 2117 670 2117 538 c 0,35,36
 2117 528 2117 528 2116 513 c 128,-1,37
 2115 498 2115 498 2113 486 c 1,38,-1
 1439 406 l 1,39,40
 1455 364 1455 364 1480.5 336 c 128,-1,41
 1506 308 1506 308 1538.5 291.5 c 128,-1,42
 1571 275 1571 275 1610 268.5 c 128,-1,43
 1649 262 1649 262 1693 262 c 0,44,45
 1736 262 1736 262 1782 268.5 c 128,-1,46
 1828 275 1828 275 1872.5 285.5 c 128,-1,47
 1917 296 1917 296 1956.5 309 c 128,-1,48
 1996 322 1996 322 2025 334 c 1,49,-1
 2075 52 l 1,50,51
 1968 10 1968 10 1850 -11 c 128,-1,52
 1732 -32 1732 -32 1597 -32 c 0,53,54
 1531 -32 1531 -32 1475 -13 c 128,-1,55
 1419 6 1419 6 1377 29 c 0,56,57
 1329 55 1329 55 1290 90 c 1,58,-1
 1290 0 l 1,59,-1
 890 -32 l 1,60,-1
 890 190 l 1,0,1
890 520 m 1,61,62
 888 559 888 559 871 594.5 c 128,-1,63
 854 630 854 630 826.5 657 c 128,-1,64
 799 684 799 684 763 700 c 128,-1,65
 727 716 727 716 688 716 c 0,66,67
 646 716 646 716 608.5 700 c 128,-1,68
 571 684 571 684 543 656 c 128,-1,69
 515 628 515 628 498.5 591 c 128,-1,70
 482 554 482 554 482 512 c 0,71,72
 482 471 482 471 498.5 434 c 128,-1,73
 515 397 515 397 543 369 c 128,-1,74
 571 341 571 341 608.5 324.5 c 128,-1,75
 646 308 646 308 688 308 c 0,76,77
 727 308 727 308 763 323.5 c 128,-1,78
 799 339 799 339 826.5 365.5 c 128,-1,79
 854 392 854 392 871 427.5 c 128,-1,80
 888 463 888 463 890 504 c 1,81,-1
 890 520 l 1,61,62
1799 664 m 1,82,83
 1776 733 1776 733 1724.5 762.5 c 128,-1,84
 1673 792 1673 792 1613 792 c 0,85,86
 1580 792 1580 792 1546.5 781 c 128,-1,87
 1513 770 1513 770 1486 746 c 128,-1,88
 1459 722 1459 722 1441 684.5 c 128,-1,89
 1423 647 1423 647 1421 594 c 1,90,-1
 1799 664 l 1,82,83
EndSplineSet
EndChar

StartChar: eth
Encoding: 240 240 172
Width: 1324
GlyphClass: 2
Flags: W
LayerCount: 2
Fore
SplineSet
569 1021 m 1,0,-1
 674 1058 l 1,1,2
 631 1080 631 1080 580 1080 c 0,3,4
 505 1080 505 1080 419.5 1065 c 128,-1,5
 334 1050 334 1050 240 1026 c 1,6,-1
 132 1330 l 1,7,8
 264 1387 264 1387 387.5 1413.5 c 128,-1,9
 511 1440 511 1440 632 1440 c 0,10,11
 774 1440 774 1440 895 1381 c 128,-1,12
 1016 1322 1016 1322 1102 1210 c 1,13,-1
 1247 1262 l 1,14,-1
 1293 1147 l 1,15,-1
 1170 1103 l 1,16,17
 1214 1018 1214 1018 1238 914.5 c 128,-1,18
 1262 811 1262 811 1262 690 c 0,19,20
 1262 593 1262 593 1244 502 c 128,-1,21
 1226 411 1226 411 1191 330.5 c 128,-1,22
 1156 250 1156 250 1103 183.5 c 128,-1,23
 1050 117 1050 117 980 69 c 128,-1,24
 910 21 910 21 823 -5.5 c 128,-1,25
 736 -32 736 -32 632 -32 c 0,26,27
 480 -32 480 -32 367.5 8.5 c 128,-1,28
 255 49 255 49 181 116 c 128,-1,29
 107 183 107 183 70 268.5 c 128,-1,30
 33 354 33 354 33 444 c 0,31,32
 33 527 33 527 60.5 605.5 c 128,-1,33
 88 684 88 684 148.5 745 c 128,-1,34
 209 806 209 806 305.5 843 c 128,-1,35
 402 880 402 880 540 880 c 0,36,37
 628 880 628 880 692.5 855 c 128,-1,38
 757 830 757 830 808 788 c 1,39,40
 793 894 793 894 762 958 c 1,41,-1
 615 906 l 1,42,-1
 569 1021 l 1,0,-1
806 564 m 1,43,44
 768 578 768 578 723.5 586 c 128,-1,45
 679 594 679 594 622 594 c 0,46,47
 582 594 582 594 551.5 580.5 c 128,-1,48
 521 567 521 567 501 546 c 128,-1,49
 481 525 481 525 470.5 498 c 128,-1,50
 460 471 460 471 460 444 c 0,51,52
 460 418 460 418 470.5 392.5 c 128,-1,53
 481 367 481 367 502 347 c 128,-1,54
 523 327 523 327 555.5 314.5 c 128,-1,55
 588 302 588 302 632 302 c 0,56,57
 706 302 706 302 748 368 c 128,-1,58
 790 434 790 434 806 564 c 1,43,44
EndSplineSet
EndChar

StartChar: divide
Encoding: 247 247 179
Width: 926
GlyphClass: 2
Flags: W
LayerCount: 2
Fore
SplineSet
50 580 m 1,0,-1
 876 580 l 1,1,-1
 876 466 l 1,2,-1
 50 466 l 1,3,-1
 50 580 l 1,0,-1
259 200 m 0,4,5
 259 237 259 237 275 270 c 128,-1,6
 291 303 291 303 319 328 c 128,-1,7
 347 353 347 353 384 367.5 c 128,-1,8
 421 382 421 382 462 382 c 0,9,10
 502 382 502 382 538.5 367.5 c 128,-1,11
 575 353 575 353 602.5 328 c 128,-1,12
 630 303 630 303 646 270 c 128,-1,13
 662 237 662 237 662 200 c 0,14,15
 662 162 662 162 646 129.5 c 128,-1,16
 630 97 630 97 602.5 72.5 c 128,-1,17
 575 48 575 48 538.5 34 c 128,-1,18
 502 20 502 20 462 20 c 0,19,20
 421 20 421 20 384 34 c 128,-1,21
 347 48 347 48 319 72.5 c 128,-1,22
 291 97 291 97 275 129.5 c 128,-1,23
 259 162 259 162 259 200 c 0,4,5
259 846 m 0,24,25
 259 882 259 882 275 915 c 128,-1,26
 291 948 291 948 319 973 c 128,-1,27
 347 998 347 998 384 1013 c 128,-1,28
 421 1028 421 1028 462 1028 c 0,29,30
 502 1028 502 1028 538.5 1013 c 128,-1,31
 575 998 575 998 602.5 973 c 128,-1,32
 630 948 630 948 646 915 c 128,-1,33
 662 882 662 882 662 846 c 0,34,35
 662 808 662 808 646 775 c 128,-1,36
 630 742 630 742 602.5 718 c 128,-1,37
 575 694 575 694 538.5 680 c 128,-1,38
 502 666 502 666 462 666 c 0,39,40
 421 666 421 666 384 680 c 128,-1,41
 347 694 347 694 319 718 c 128,-1,42
 291 742 291 742 275 775 c 128,-1,43
 259 808 259 808 259 846 c 0,24,25
EndSplineSet
EndChar

StartChar: oslash
Encoding: 248 248 180
Width: 1244
GlyphClass: 2
Flags: W
LayerCount: 2
Fore
SplineSet
432 -2 m 1,0,1
 354 23 354 23 285 68 c 128,-1,2
 216 113 216 113 165 177.5 c 128,-1,3
 114 242 114 242 84 326 c 128,-1,4
 54 410 54 410 54 514 c 0,5,6
 54 608 54 608 78 684.5 c 128,-1,7
 102 761 102 761 144 821.5 c 128,-1,8
 186 882 186 882 243.5 926 c 128,-1,9
 301 970 301 970 367.5 999 c 128,-1,10
 434 1028 434 1028 508 1042 c 128,-1,11
 582 1056 582 1056 656 1056 c 0,12,13
 664 1056 664 1056 671.5 1056 c 128,-1,14
 679 1056 679 1056 688 1054 c 1,15,-1
 690 1054 l 1,16,-1
 726 1202 l 1,17,-1
 844 1202 l 1,18,-1
 802 1032 l 1,19,20
 881 1008 881 1008 951.5 963 c 128,-1,21
 1022 918 1022 918 1075 853 c 128,-1,22
 1128 788 1128 788 1159 703 c 128,-1,23
 1190 618 1190 618 1190 514 c 0,24,25
 1190 420 1190 420 1165 343 c 128,-1,26
 1140 266 1140 266 1096.5 205.5 c 128,-1,27
 1053 145 1053 145 994 100.5 c 128,-1,28
 935 56 935 56 867 26.5 c 128,-1,29
 799 -3 799 -3 724 -17.5 c 128,-1,30
 649 -32 649 -32 575 -32 c 0,31,32
 567 -32 567 -32 559 -32 c 128,-1,33
 551 -32 551 -32 540 -30 c 1,34,-1
 506 -174 l 1,35,-1
 390 -174 l 1,36,-1
 432 -2 l 1,0,1
620 288 m 1,37,38
 658 294 658 294 692.5 314 c 128,-1,39
 727 334 727 334 753 364 c 128,-1,40
 779 394 779 394 794.5 432.5 c 128,-1,41
 810 471 810 471 810 514 c 0,42,43
 810 571 810 571 786 620.5 c 128,-1,44
 762 670 762 670 720 700 c 1,45,-1
 620 288 l 1,37,38
614 738 m 1,46,47
 575 736 575 736 541.5 717.5 c 128,-1,48
 508 699 508 699 483 668.5 c 128,-1,49
 458 638 458 638 444 598 c 128,-1,50
 430 558 430 558 430 514 c 0,51,52
 430 457 430 457 452.5 407.5 c 128,-1,53
 475 358 475 358 514 328 c 1,54,-1
 614 738 l 1,46,47
EndSplineSet
EndChar

StartChar: thorn
Encoding: 254 254 186
Width: 1427
GlyphClass: 2
Flags: W
LayerCount: 2
Fore
SplineSet
107 1350 m 1,0,-1
 539 1414 l 1,1,-1
 539 834 l 1,2,3
 593 949 593 949 681 1002.5 c 128,-1,4
 769 1056 769 1056 873 1056 c 0,5,6
 964 1056 964 1056 1053.5 1017.5 c 128,-1,7
 1143 979 1143 979 1214.5 908 c 128,-1,8
 1286 837 1286 837 1330.5 736.5 c 128,-1,9
 1375 636 1375 636 1375 512 c 0,10,11
 1374 388 1374 388 1330 288 c 128,-1,12
 1286 188 1286 188 1215 117 c 128,-1,13
 1144 46 1144 46 1055 7.5 c 128,-1,14
 966 -31 966 -31 875 -32 c 1,15,16
 770 -32 770 -32 681.5 22 c 128,-1,17
 593 76 593 76 539 190 c 1,18,-1
 539 -510 l 1,19,-1
 107 -510 l 1,20,-1
 107 1350 l 1,0,-1
539 512 m 2,21,22
 539 471 539 471 555.5 434 c 128,-1,23
 572 397 572 397 599.5 369 c 128,-1,24
 627 341 627 341 663.5 324.5 c 128,-1,25
 700 308 700 308 741 308 c 0,26,27
 783 308 783 308 820.5 324.5 c 128,-1,28
 858 341 858 341 886 369 c 128,-1,29
 914 397 914 397 930.5 434 c 128,-1,30
 947 471 947 471 947 512 c 0,31,32
 947 554 947 554 930.5 591 c 128,-1,33
 914 628 914 628 886 656 c 128,-1,34
 858 684 858 684 820.5 700 c 128,-1,35
 783 716 783 716 741 716 c 0,36,37
 700 716 700 716 664 700 c 128,-1,38
 628 684 628 684 600.5 657 c 128,-1,39
 573 630 573 630 556.5 594.5 c 128,-1,40
 540 559 540 559 539 520 c 1,41,-1
 539 512 l 2,21,22
EndSplineSet
EndChar

StartChar: Dcroat
Encoding: 272 272 204
Width: 1565
GlyphClass: 2
Flags: W
LayerCount: 2
Fore
SplineSet
78 766 m 1,0,-1
 134 766 l 1,1,-1
 134 1376 l 1,2,-1
 746 1376 l 2,3,4
 871 1376 871 1376 975 1349.5 c 128,-1,5
 1079 1323 1079 1323 1163 1275.5 c 128,-1,6
 1247 1228 1247 1228 1310 1163.5 c 128,-1,7
 1373 1099 1373 1099 1415.5 1024 c 128,-1,8
 1458 949 1458 949 1479 865.5 c 128,-1,9
 1500 782 1500 782 1500 698 c 0,10,11
 1500 609 1500 609 1479 523 c 128,-1,12
 1458 437 1458 437 1416 359.5 c 128,-1,13
 1374 282 1374 282 1310.5 216 c 128,-1,14
 1247 150 1247 150 1163.5 102 c 128,-1,15
 1080 54 1080 54 975.5 27 c 128,-1,16
 871 0 871 0 746 0 c 2,17,-1
 134 0 l 1,18,-1
 134 592 l 1,19,-1
 78 592 l 1,20,-1
 78 766 l 1,0,-1
746 368 m 2,21,22
 818 368 818 368 873 396.5 c 128,-1,23
 928 425 928 425 965 471.5 c 128,-1,24
 1002 518 1002 518 1021 578 c 128,-1,25
 1040 638 1040 638 1040 702 c 0,26,27
 1040 757 1040 757 1021.5 811.5 c 128,-1,28
 1003 866 1003 866 966.5 909.5 c 128,-1,29
 930 953 930 953 874.5 980.5 c 128,-1,30
 819 1008 819 1008 746 1008 c 2,31,-1
 586 1008 l 1,32,-1
 586 766 l 1,33,-1
 718 766 l 1,34,-1
 718 592 l 1,35,-1
 586 592 l 1,36,-1
 586 368 l 1,37,-1
 746 368 l 2,21,22
EndSplineSet
EndChar

StartChar: dcroat
Encoding: 273 273 205
Width: 1428
GlyphClass: 2
Flags: W
LayerCount: 2
Fore
SplineSet
889 190 m 1,0,1
 862 133 862 133 825 91 c 128,-1,2
 788 49 788 49 744.5 22 c 128,-1,3
 701 -5 701 -5 652 -18.5 c 128,-1,4
 603 -32 603 -32 551 -32 c 0,5,6
 461 -32 461 -32 372 7 c 128,-1,7
 283 46 283 46 212 117 c 128,-1,8
 141 188 141 188 97 288.5 c 128,-1,9
 53 389 53 389 53 512 c 0,10,11
 53 636 53 636 97 736.5 c 128,-1,12
 141 837 141 837 212 908 c 128,-1,13
 283 979 283 979 372.5 1017.5 c 128,-1,14
 462 1056 462 1056 553 1056 c 0,15,16
 605 1056 605 1056 653.5 1043 c 128,-1,17
 702 1030 702 1030 745.5 1003 c 128,-1,18
 789 976 789 976 825.5 934 c 128,-1,19
 862 892 862 892 889 834 c 1,20,-1
 889 1106 l 1,21,-1
 747 1106 l 1,22,-1
 747 1280 l 1,23,-1
 889 1280 l 1,24,-1
 889 1350 l 1,25,-1
 1321 1414 l 1,26,-1
 1321 1280 l 1,27,-1
 1387 1280 l 1,28,-1
 1387 1106 l 1,29,-1
 1321 1106 l 1,30,-1
 1321 0 l 1,31,-1
 889 0 l 1,32,-1
 889 190 l 1,0,1
889 520 m 1,33,34
 887 559 887 559 870 594.5 c 128,-1,35
 853 630 853 630 825.5 657 c 128,-1,36
 798 684 798 684 762 700 c 128,-1,37
 726 716 726 716 687 716 c 0,38,39
 645 716 645 716 608 700 c 128,-1,40
 571 684 571 684 543 656 c 128,-1,41
 515 628 515 628 499 591 c 128,-1,42
 483 554 483 554 483 512 c 0,43,44
 483 471 483 471 499 434 c 128,-1,45
 515 397 515 397 543 369 c 128,-1,46
 571 341 571 341 608 324.5 c 128,-1,47
 645 308 645 308 687 308 c 0,48,49
 728 308 728 308 765 324.5 c 128,-1,50
 802 341 802 341 829.5 369 c 128,-1,51
 857 397 857 397 873 434 c 128,-1,52
 889 471 889 471 889 512 c 2,53,-1
 889 520 l 1,33,34
EndSplineSet
EndChar

StartChar: Hbar
Encoding: 294 294 226
Width: 1647
GlyphClass: 2
Flags: W
LayerCount: 2
Fore
SplineSet
86 1152 m 1,0,-1
 144 1152 l 1,1,-1
 144 1376 l 1,2,-1
 604 1376 l 1,3,-1
 604 1152 l 1,4,-1
 1040 1152 l 1,5,-1
 1040 1376 l 1,6,-1
 1502 1376 l 1,7,-1
 1502 1152 l 1,8,-1
 1562 1152 l 1,9,-1
 1562 978 l 1,10,-1
 1502 978 l 1,11,-1
 1502 0 l 1,12,-1
 1040 0 l 1,13,-1
 1040 552 l 1,14,-1
 604 552 l 1,15,-1
 604 0 l 1,16,-1
 144 0 l 1,17,-1
 144 978 l 1,18,-1
 86 978 l 1,19,-1
 86 1152 l 1,0,-1
1040 848 m 1,20,-1
 1040 978 l 1,21,-1
 604 978 l 1,22,-1
 604 848 l 1,23,-1
 1040 848 l 1,20,-1
EndSplineSet
EndChar

StartChar: hbar
Encoding: 295 295 227
Width: 1413
GlyphClass: 2
Flags: W
LayerCount: 2
Fore
SplineSet
-15 1280 m 1,0,-1
 107 1280 l 1,1,-1
 107 1350 l 1,2,-1
 539 1414 l 1,3,-1
 539 1280 l 1,4,-1
 753 1280 l 1,5,-1
 753 1106 l 1,6,-1
 539 1106 l 1,7,-1
 539 798 l 1,8,9
 567 865 567 865 604.5 914 c 128,-1,10
 642 963 642 963 686 994.5 c 128,-1,11
 730 1026 730 1026 778.5 1041 c 128,-1,12
 827 1056 827 1056 877 1056 c 0,13,14
 959 1056 959 1056 1038 1021 c 128,-1,15
 1117 986 1117 986 1179 918 c 128,-1,16
 1241 850 1241 850 1279 750 c 128,-1,17
 1317 650 1317 650 1317 520 c 2,18,-1
 1317 0 l 1,19,-1
 887 0 l 1,20,-1
 887 512 l 2,21,22
 887 553 887 553 875.5 590 c 128,-1,23
 864 627 864 627 844.5 655 c 128,-1,24
 825 683 825 683 799 699.5 c 128,-1,25
 773 716 773 716 743 716 c 0,26,27
 699 716 699 716 662 698 c 128,-1,28
 625 680 625 680 597.5 650 c 128,-1,29
 570 620 570 620 554.5 580.5 c 128,-1,30
 539 541 539 541 539 498 c 2,31,-1
 539 0 l 1,32,-1
 107 0 l 1,33,-1
 107 1106 l 1,34,-1
 -15 1106 l 1,35,-1
 -15 1280 l 1,0,-1
EndSplineSet
EndChar

StartChar: dotlessi
Encoding: 305 305 237
Width: 748
GlyphClass: 2
Flags: W
LayerCount: 2
Fore
SplineSet
99 1026 m 1,0,-1
 533 1026 l 1,1,-1
 533 408 l 2,2,3
 533 349 533 349 559 324.5 c 128,-1,4
 585 300 585 300 621 300 c 0,5,6
 664 300 664 300 709 324 c 1,7,-1
 731 38 l 1,8,9
 668 2 668 2 600 -15 c 128,-1,10
 532 -32 532 -32 463 -32 c 0,11,12
 391 -32 391 -32 325 -8.5 c 128,-1,13
 259 15 259 15 209 64.5 c 128,-1,14
 159 114 159 114 129 191.5 c 128,-1,15
 99 269 99 269 99 378 c 2,16,-1
 99 1026 l 1,0,-1
EndSplineSet
EndChar

StartChar: kgreenlandic
Encoding: 312 312 244
Width: 1309
GlyphClass: 2
Flags: W
LayerCount: 2
Fore
SplineSet
1145 1024 m 1,0,-1
 1293 848 l 1,1,-1
 951 572 l 1,2,3
 964 510 964 510 978 462 c 128,-1,4
 992 414 992 414 1015.5 381 c 128,-1,5
 1039 348 1039 348 1075.5 331 c 128,-1,6
 1112 314 1112 314 1169 314 c 0,7,8
 1189 314 1189 314 1210 317.5 c 128,-1,9
 1231 321 1231 321 1257 326 c 1,10,-1
 1225 -24 l 1,11,12
 1165 -30 1165 -30 1113 -30 c 0,13,14
 998 -30 998 -30 922 -3.5 c 128,-1,15
 846 23 846 23 796 73 c 128,-1,16
 746 123 746 123 715 195 c 128,-1,17
 684 267 684 267 659 358 c 1,18,-1
 539 262 l 1,19,-1
 539 0 l 1,20,-1
 107 0 l 1,21,-1
 107 1024 l 1,22,-1
 539 1024 l 1,23,-1
 539 692 l 1,24,-1
 925 1024 l 1,25,-1
 1145 1024 l 1,0,-1
EndSplineSet
EndChar

StartChar: Lslash
Encoding: 321 321 253
Width: 1156
GlyphClass: 2
Flags: W
LayerCount: 2
Fore
SplineSet
6 788 m 1,0,-1
 190 835 l 1,1,-1
 190 1408 l 1,2,-1
 630 1408 l 1,3,-1
 630 947 l 1,4,-1
 936 1026 l 1,5,-1
 936 852 l 1,6,-1
 630 773 l 1,7,-1
 630 302 l 1,8,-1
 1120 302 l 1,9,-1
 1120 0 l 1,10,-1
 190 0 l 1,11,-1
 190 661 l 1,12,-1
 6 614 l 1,13,-1
 6 788 l 1,0,-1
EndSplineSet
EndChar

StartChar: lslash
Encoding: 322 322 254
Width: 863
GlyphClass: 2
Flags: W
LayerCount: 2
Fore
SplineSet
16 788 m 1,0,-1
 188 840 l 1,1,-1
 188 1350 l 1,2,-1
 620 1414 l 1,3,-1
 620 972 l 1,4,-1
 796 1026 l 1,5,-1
 796 852 l 1,6,-1
 620 798 l 1,7,-1
 620 408 l 2,8,9
 620 349 620 349 647 324.5 c 128,-1,10
 674 300 674 300 718 300 c 0,11,12
 761 300 761 300 806 324 c 1,13,-1
 828 38 l 1,14,15
 759 2 759 2 692 -15 c 128,-1,16
 625 -32 625 -32 550 -32 c 0,17,18
 478 -32 478 -32 412.5 -8.5 c 128,-1,19
 347 15 347 15 297 64.5 c 128,-1,20
 247 114 247 114 217.5 191.5 c 128,-1,21
 188 269 188 269 188 378 c 2,22,-1
 188 666 l 1,23,-1
 16 614 l 1,24,-1
 16 788 l 1,0,-1
EndSplineSet
EndChar

StartChar: Eng
Encoding: 330 330 262
Width: 1606
GlyphClass: 2
Flags: W
LayerCount: 2
Fore
SplineSet
134 1376 m 1,0,-1
 544 1376 l 1,1,-1
 1106 650 l 1,2,-1
 1106 1376 l 1,3,-1
 1472 1376 l 1,4,-1
 1472 -32 l 2,5,6
 1472 -155 1472 -155 1439.5 -245 c 128,-1,7
 1407 -335 1407 -335 1353.5 -393.5 c 128,-1,8
 1300 -452 1300 -452 1230.5 -480 c 128,-1,9
 1161 -508 1161 -508 1088 -508 c 0,10,11
 994 -508 994 -508 906.5 -483.5 c 128,-1,12
 819 -459 819 -459 738 -426 c 1,13,-1
 832 -172 l 1,14,15
 870 -184 870 -184 904 -193 c 128,-1,16
 938 -202 938 -202 974 -202 c 0,17,18
 1001 -202 1001 -202 1025.5 -194 c 128,-1,19
 1050 -186 1050 -186 1068.5 -166.5 c 128,-1,20
 1087 -147 1087 -147 1097.5 -114.5 c 128,-1,21
 1108 -82 1108 -82 1108 -32 c 1,22,-1
 498 734 l 1,23,-1
 498 0 l 1,24,-1
 134 0 l 1,25,-1
 134 1376 l 1,0,-1
EndSplineSet
EndChar

StartChar: eng
Encoding: 331 331 263
Width: 1406
GlyphClass: 2
Flags: W
LayerCount: 2
Fore
SplineSet
102 990 m 1,0,-1
 534 1056 l 1,1,-1
 534 802 l 1,2,3
 564 868 564 868 604.5 916 c 128,-1,4
 645 964 645 964 691.5 995 c 128,-1,5
 738 1026 738 1026 789 1041 c 128,-1,6
 840 1056 840 1056 890 1056 c 0,7,8
 967 1056 967 1056 1042.5 1019.5 c 128,-1,9
 1118 983 1118 983 1177.5 913 c 128,-1,10
 1237 843 1237 843 1273.5 742 c 128,-1,11
 1310 641 1310 641 1310 512 c 2,12,-1
 1310 0 l 2,13,14
 1310 -134 1310 -134 1272.5 -229.5 c 128,-1,15
 1235 -325 1235 -325 1172.5 -386 c 128,-1,16
 1110 -447 1110 -447 1028 -475.5 c 128,-1,17
 946 -504 946 -504 858 -504 c 0,18,19
 670 -504 670 -504 508 -396 c 1,20,-1
 602 -142 l 1,21,22
 638 -154 638 -154 672.5 -162 c 128,-1,23
 707 -170 707 -170 742 -170 c 0,24,25
 773 -170 773 -170 798.5 -161 c 128,-1,26
 824 -152 824 -152 842 -131.5 c 128,-1,27
 860 -111 860 -111 870 -79 c 128,-1,28
 880 -47 880 -47 880 0 c 2,29,-1
 880 512 l 2,30,31
 880 553 880 553 868.5 590 c 128,-1,32
 857 627 857 627 837.5 655 c 128,-1,33
 818 683 818 683 792 699.5 c 128,-1,34
 766 716 766 716 736 716 c 0,35,36
 695 716 695 716 659 700 c 128,-1,37
 623 684 623 684 595.5 657 c 128,-1,38
 568 630 568 630 551.5 594.5 c 128,-1,39
 535 559 535 559 534 520 c 1,40,-1
 534 0 l 1,41,-1
 102 0 l 1,42,-1
 102 990 l 1,0,-1
EndSplineSet
EndChar

StartChar: OE
Encoding: 338 338 270
Width: 2098
GlyphClass: 2
Flags: W
LayerCount: 2
Fore
SplineSet
1014 60 m 1,0,1
 838 -32 838 -32 696 -32 c 0,2,3
 593 -32 593 -32 506.5 -2.5 c 128,-1,4
 420 27 420 27 349.5 79 c 128,-1,5
 279 131 279 131 225.5 201 c 128,-1,6
 172 271 172 271 136.5 351.5 c 128,-1,7
 101 432 101 432 82.5 519 c 128,-1,8
 64 606 64 606 64 692 c 0,9,10
 64 773 64 773 83.5 858 c 128,-1,11
 103 943 103 943 141.5 1023.5 c 128,-1,12
 180 1104 180 1104 235.5 1175 c 128,-1,13
 291 1246 291 1246 363 1299 c 128,-1,14
 435 1352 435 1352 522.5 1383 c 128,-1,15
 610 1414 610 1414 712 1414 c 0,16,17
 784 1414 784 1414 859.5 1391 c 128,-1,18
 935 1368 935 1368 1020 1314 c 1,19,-1
 1020 1376 l 1,20,-1
 2000 1376 l 1,21,-1
 2000 1066 l 1,22,-1
 1508 1066 l 1,23,-1
 1508 842 l 1,24,-1
 1958 842 l 1,25,-1
 1958 584 l 1,26,-1
 1508 584 l 1,27,-1
 1508 308 l 1,28,-1
 2000 308 l 1,29,-1
 2000 0 l 1,30,-1
 1014 0 l 1,31,-1
 1014 60 l 1,0,1
1014 1018 m 1,32,33
 948 1033 948 1033 881 1041.5 c 128,-1,34
 814 1050 814 1050 748 1050 c 0,35,36
 700 1050 700 1050 659 1026 c 128,-1,37
 618 1002 618 1002 587.5 956.5 c 128,-1,38
 557 911 557 911 539.5 844.5 c 128,-1,39
 522 778 522 778 522 694 c 0,40,41
 522 608 522 608 539.5 542 c 128,-1,42
 557 476 557 476 587 430.5 c 128,-1,43
 617 385 617 385 658.5 361.5 c 128,-1,44
 700 338 700 338 748 338 c 0,45,46
 814 338 814 338 881 344.5 c 128,-1,47
 948 351 948 351 1014 368 c 1,48,-1
 1014 1018 l 1,32,33
EndSplineSet
EndChar

StartChar: oe
Encoding: 339 339 271
Width: 1894
GlyphClass: 2
Flags: W
LayerCount: 2
Fore
SplineSet
1806 52 m 1,0,1
 1620 -32 1620 -32 1386 -32 c 0,2,3
 1280 -32 1280 -32 1184.5 8.5 c 128,-1,4
 1089 49 1089 49 1008 134 c 1,5,6
 930 48 930 48 835 8 c 128,-1,7
 740 -32 740 -32 642 -32 c 0,8,9
 567 -32 567 -32 494.5 -16.5 c 128,-1,10
 422 -1 422 -1 356.5 30 c 128,-1,11
 291 61 291 61 235 107 c 128,-1,12
 179 153 179 153 138.5 213.5 c 128,-1,13
 98 274 98 274 75 349.5 c 128,-1,14
 52 425 52 425 52 514 c 0,15,16
 52 647 52 647 103 748 c 128,-1,17
 154 849 154 849 237 917.5 c 128,-1,18
 320 986 320 986 426.5 1021 c 128,-1,19
 533 1056 533 1056 644 1056 c 0,20,21
 744 1056 744 1056 837 1019 c 128,-1,22
 930 982 930 982 1008 910 c 1,23,24
 1086 982 1086 982 1180 1019 c 128,-1,25
 1274 1056 1274 1056 1374 1056 c 0,26,27
 1465 1056 1465 1056 1550.5 1024.5 c 128,-1,28
 1636 993 1636 993 1702 929 c 128,-1,29
 1768 865 1768 865 1808 767.5 c 128,-1,30
 1848 670 1848 670 1848 538 c 0,31,32
 1848 527 1848 527 1847 512.5 c 128,-1,33
 1846 498 1846 498 1844 486 c 1,34,-1
 1228 406 l 1,35,36
 1243 364 1243 364 1265.5 336 c 128,-1,37
 1288 308 1288 308 1317 291.5 c 128,-1,38
 1346 275 1346 275 1380.5 268.5 c 128,-1,39
 1415 262 1415 262 1454 262 c 0,40,41
 1495 262 1495 262 1536.5 269 c 128,-1,42
 1578 276 1578 276 1617.5 286.5 c 128,-1,43
 1657 297 1657 297 1692 310 c 128,-1,44
 1727 323 1727 323 1756 334 c 1,45,-1
 1806 52 l 1,0,1
644 310 m 0,46,47
 680 310 680 310 713 326.5 c 128,-1,48
 746 343 746 343 771.5 371 c 128,-1,49
 797 399 797 399 812.5 436 c 128,-1,50
 828 473 828 473 828 514 c 0,51,52
 828 556 828 556 812.5 593 c 128,-1,53
 797 630 797 630 771.5 658 c 128,-1,54
 746 686 746 686 713 702 c 128,-1,55
 680 718 680 718 644 718 c 0,56,57
 604 718 604 718 570.5 701.5 c 128,-1,58
 537 685 537 685 512.5 657 c 128,-1,59
 488 629 488 629 474 592 c 128,-1,60
 460 555 460 555 460 514 c 256,61,62
 460 473 460 473 474.5 436 c 128,-1,63
 489 399 489 399 514 371 c 128,-1,64
 539 343 539 343 572.5 326.5 c 128,-1,65
 606 310 606 310 644 310 c 0,46,47
1530 664 m 1,66,67
 1521 698 1521 698 1505 722.5 c 128,-1,68
 1489 747 1489 747 1468 762.5 c 128,-1,69
 1447 778 1447 778 1423 785 c 128,-1,70
 1399 792 1399 792 1374 792 c 0,71,72
 1344 792 1344 792 1316 780.5 c 128,-1,73
 1288 769 1288 769 1266 744.5 c 128,-1,74
 1244 720 1244 720 1229.5 682.5 c 128,-1,75
 1215 645 1215 645 1212 594 c 1,76,-1
 1530 664 l 1,66,67
EndSplineSet
EndChar

StartChar: Tbar
Encoding: 358 358 290
Width: 1202
GlyphClass: 2
Flags: W
LayerCount: 2
Fore
SplineSet
362 518 m 1,0,-1
 216 518 l 1,1,-1
 216 692 l 1,2,-1
 362 692 l 1,3,-1
 362 1078 l 1,4,-1
 70 1078 l 1,5,-1
 70 1376 l 1,6,-1
 1132 1376 l 1,7,-1
 1132 1078 l 1,8,-1
 840 1078 l 1,9,-1
 840 692 l 1,10,-1
 986 692 l 1,11,-1
 986 518 l 1,12,-1
 840 518 l 1,13,-1
 840 0 l 1,14,-1
 362 0 l 1,15,-1
 362 518 l 1,0,-1
EndSplineSet
EndChar

StartChar: tbar
Encoding: 359 359 291
Width: 921
GlyphClass: 2
Flags: W
LayerCount: 2
Fore
SplineSet
184 518 m 1,0,-1
 70 518 l 1,1,-1
 70 692 l 1,2,-1
 186 692 l 1,3,-1
 186 772 l 1,4,-1
 56 772 l 1,5,-1
 56 1026 l 1,6,-1
 186 1026 l 1,7,-1
 186 1274 l 1,8,-1
 616 1414 l 1,9,-1
 616 1026 l 1,10,-1
 852 1026 l 1,11,-1
 852 772 l 1,12,-1
 616 772 l 1,13,-1
 616 692 l 1,14,-1
 840 692 l 1,15,-1
 840 518 l 1,16,-1
 616 518 l 1,17,-1
 616 408 l 2,18,19
 616 379 616 379 626.5 358.5 c 128,-1,20
 637 338 637 338 655 325 c 128,-1,21
 673 312 673 312 696.5 306 c 128,-1,22
 720 300 720 300 746 300 c 0,23,24
 793 300 793 300 840 324 c 1,25,-1
 856 38 l 1,26,27
 784 2 784 2 705 -15 c 128,-1,28
 626 -32 626 -32 548 -32 c 0,29,30
 474 -32 474 -32 408 -8.5 c 128,-1,31
 342 15 342 15 292.5 64.5 c 128,-1,32
 243 114 243 114 213.5 191.5 c 128,-1,33
 184 269 184 269 184 378 c 2,34,-1
 184 518 l 1,0,-1
EndSplineSet
EndChar

StartChar: florin
Encoding: 402 402 316
Width: 891
GlyphClass: 2
Flags: W
LayerCount: 2
Fore
SplineSet
179 772 m 1,0,-1
 53 772 l 1,1,-1
 53 1026 l 1,2,-1
 179 1026 l 1,3,-1
 179 1136 l 2,4,5
 179 1257 179 1257 209 1340.5 c 128,-1,6
 239 1424 239 1424 290 1475.5 c 128,-1,7
 341 1527 341 1527 409.5 1549.5 c 128,-1,8
 478 1572 478 1572 555 1572 c 0,9,10
 636 1572 636 1572 720 1551 c 128,-1,11
 804 1530 804 1530 889 1494 c 1,12,-1
 875 1216 l 1,13,14
 842 1227 842 1227 803 1236.5 c 128,-1,15
 764 1246 764 1246 729 1246 c 0,16,17
 704 1246 704 1246 683 1240 c 128,-1,18
 662 1234 662 1234 646.5 1219.5 c 128,-1,19
 631 1205 631 1205 622 1181.5 c 128,-1,20
 613 1158 613 1158 613 1122 c 2,21,-1
 613 1026 l 1,22,-1
 871 1026 l 1,23,-1
 871 772 l 1,24,-1
 613 772 l 1,25,-1
 613 0 l 1,26,-1
 179 0 l 1,27,-1
 179 772 l 1,0,-1
EndSplineSet
EndChar

StartChar: circumflex
Encoding: 710 710 345
Width: 986
GlyphClass: 2
Flags: W
LayerCount: 2
Fore
SplineSet
300 1640 m 1,0,-1
 678 1640 l 1,1,-1
 930 1130 l 1,2,-1
 590 1130 l 1,3,-1
 512 1348 l 1,4,-1
 488 1426 l 1,5,-1
 466 1348 l 1,6,-1
 388 1130 l 1,7,-1
 48 1130 l 1,8,-1
 300 1640 l 1,0,-1
EndSplineSet
EndChar

StartChar: caron
Encoding: 711 711 346
Width: 986
GlyphClass: 2
Flags: W
LayerCount: 2
Fore
SplineSet
48 1640 m 1,0,-1
 388 1640 l 1,1,-1
 466 1422 l 1,2,-1
 488 1342 l 1,3,-1
 512 1422 l 1,4,-1
 590 1640 l 1,5,-1
 930 1640 l 1,6,-1
 678 1130 l 1,7,-1
 300 1130 l 1,8,-1
 48 1640 l 1,0,-1
EndSplineSet
EndChar

StartChar: breve
Encoding: 728 728 347
Width: 842
GlyphClass: 2
Flags: W
LayerCount: 2
Fore
SplineSet
296 1500 m 1,0,1
 296 1472 296 1472 306.5 1449 c 128,-1,2
 317 1426 317 1426 334 1410 c 128,-1,3
 351 1394 351 1394 374 1385 c 128,-1,4
 397 1376 397 1376 422 1376 c 0,5,6
 445 1376 445 1376 466.5 1383.5 c 128,-1,7
 488 1391 488 1391 504.5 1406.5 c 128,-1,8
 521 1422 521 1422 530.5 1445 c 128,-1,9
 540 1468 540 1468 540 1500 c 1,10,-1
 772 1500 l 1,11,12
 772 1412 772 1412 742 1346.5 c 128,-1,13
 712 1281 712 1281 663 1237.5 c 128,-1,14
 614 1194 614 1194 551 1172 c 128,-1,15
 488 1150 488 1150 422 1150 c 256,16,17
 356 1150 356 1150 292.5 1172 c 128,-1,18
 229 1194 229 1194 179.5 1237.5 c 128,-1,19
 130 1281 130 1281 100 1346.5 c 128,-1,20
 70 1412 70 1412 70 1500 c 1,21,-1
 296 1500 l 1,0,1
EndSplineSet
EndChar

StartChar: dotaccent
Encoding: 729 729 348
Width: 630
GlyphClass: 2
Flags: W
LayerCount: 2
Fore
SplineSet
86 1372 m 0,0,1
 86 1413 86 1413 104.5 1450.5 c 128,-1,2
 123 1488 123 1488 154.5 1516.5 c 128,-1,3
 186 1545 186 1545 227.5 1561.5 c 128,-1,4
 269 1578 269 1578 316 1578 c 0,5,6
 362 1578 362 1578 403.5 1561.5 c 128,-1,7
 445 1545 445 1545 476.5 1516.5 c 128,-1,8
 508 1488 508 1488 527 1450.5 c 128,-1,9
 546 1413 546 1413 546 1372 c 0,10,11
 546 1328 546 1328 527 1290.5 c 128,-1,12
 508 1253 508 1253 476.5 1224.5 c 128,-1,13
 445 1196 445 1196 403.5 1180 c 128,-1,14
 362 1164 362 1164 316 1164 c 0,15,16
 269 1164 269 1164 227.5 1180 c 128,-1,17
 186 1196 186 1196 154.5 1224.5 c 128,-1,18
 123 1253 123 1253 104.5 1290.5 c 128,-1,19
 86 1328 86 1328 86 1372 c 0,0,1
EndSplineSet
EndChar

StartChar: ring
Encoding: 730 730 349
Width: 842
GlyphClass: 2
Flags: W
LayerCount: 2
Fore
SplineSet
296 1500 m 0,0,1
 296 1472 296 1472 306.5 1449 c 128,-1,2
 317 1426 317 1426 334 1410 c 128,-1,3
 351 1394 351 1394 374 1385 c 128,-1,4
 397 1376 397 1376 422 1376 c 0,5,6
 445 1376 445 1376 466.5 1383.5 c 128,-1,7
 488 1391 488 1391 504.5 1406.5 c 128,-1,8
 521 1422 521 1422 530.5 1445 c 128,-1,9
 540 1468 540 1468 540 1500 c 256,10,11
 540 1532 540 1532 529.5 1556 c 128,-1,12
 519 1580 519 1580 501.5 1596 c 128,-1,13
 484 1612 484 1612 462 1620 c 128,-1,14
 440 1628 440 1628 418 1628 c 256,15,16
 396 1628 396 1628 374.5 1620 c 128,-1,17
 353 1612 353 1612 335.5 1596 c 128,-1,18
 318 1580 318 1580 307 1556 c 128,-1,19
 296 1532 296 1532 296 1500 c 0,0,1
70 1500 m 256,20,21
 70 1588 70 1588 100 1654.5 c 128,-1,22
 130 1721 130 1721 179.5 1765.5 c 128,-1,23
 229 1810 229 1810 292.5 1832 c 128,-1,24
 356 1854 356 1854 422 1854 c 256,25,26
 488 1854 488 1854 551 1832 c 128,-1,27
 614 1810 614 1810 663 1765.5 c 128,-1,28
 712 1721 712 1721 742 1654.5 c 128,-1,29
 772 1588 772 1588 772 1500 c 256,30,31
 772 1412 772 1412 742 1346.5 c 128,-1,32
 712 1281 712 1281 663 1237.5 c 128,-1,33
 614 1194 614 1194 551 1172 c 128,-1,34
 488 1150 488 1150 422 1150 c 256,35,36
 356 1150 356 1150 292.5 1172 c 128,-1,37
 229 1194 229 1194 179.5 1237.5 c 128,-1,38
 130 1281 130 1281 100 1346.5 c 128,-1,39
 70 1412 70 1412 70 1500 c 256,20,21
EndSplineSet
EndChar

StartChar: ogonek
Encoding: 731 731 350
Width: 642
GlyphClass: 2
Flags: W
LayerCount: 2
Fore
SplineSet
508 -464 m 1,0,1
 451 -488 451 -488 403 -498 c 128,-1,2
 355 -508 355 -508 310 -508 c 0,3,4
 259 -508 259 -508 217.5 -495 c 128,-1,5
 176 -482 176 -482 146.5 -458.5 c 128,-1,6
 117 -435 117 -435 101.5 -402.5 c 128,-1,7
 86 -370 86 -370 86 -332 c 0,8,9
 86 -291 86 -291 103 -256 c 128,-1,10
 120 -221 120 -221 154.5 -184 c 128,-1,11
 189 -147 189 -147 240.5 -103 c 128,-1,12
 292 -59 292 -59 362 0 c 1,13,-1
 474 0 l 1,14,15
 444 -61 444 -61 420.5 -103 c 128,-1,16
 397 -145 397 -145 378.5 -175 c 128,-1,17
 360 -205 360 -205 346.5 -225 c 128,-1,18
 333 -245 333 -245 324.5 -261 c 128,-1,19
 316 -277 316 -277 312 -292.5 c 128,-1,20
 308 -308 308 -308 308 -328 c 0,21,22
 308 -370 308 -370 336.5 -386 c 128,-1,23
 365 -402 365 -402 410 -402 c 0,24,25
 431 -402 431 -402 455.5 -398 c 128,-1,26
 480 -394 480 -394 506 -388 c 1,27,-1
 508 -464 l 1,0,1
EndSplineSet
EndChar

StartChar: tilde
Encoding: 732 732 351
Width: 1112
GlyphClass: 2
Flags: W
LayerCount: 2
Fore
SplineSet
62 1256 m 1,0,1
 98 1352 98 1352 140.5 1419.5 c 128,-1,2
 183 1487 183 1487 228.5 1530 c 128,-1,3
 274 1573 274 1573 321 1592.5 c 128,-1,4
 368 1612 368 1612 414 1612 c 0,5,6
 463 1612 463 1612 500.5 1594 c 128,-1,7
 538 1576 538 1576 572 1555 c 128,-1,8
 606 1534 606 1534 639 1516 c 128,-1,9
 672 1498 672 1498 712 1498 c 0,10,11
 733 1498 733 1498 749.5 1506 c 128,-1,12
 766 1514 766 1514 778 1527 c 128,-1,13
 790 1540 790 1540 799 1556.5 c 128,-1,14
 808 1573 808 1573 814 1590 c 1,15,-1
 1054 1492 l 1,16,17
 992 1315 992 1315 908.5 1233.5 c 128,-1,18
 825 1152 825 1152 720 1152 c 0,19,20
 681 1152 681 1152 650 1160.5 c 128,-1,21
 619 1169 619 1169 593.5 1181.5 c 128,-1,22
 568 1194 568 1194 546 1209 c 128,-1,23
 524 1224 524 1224 502.5 1236.5 c 128,-1,24
 481 1249 481 1249 459 1257.5 c 128,-1,25
 437 1266 437 1266 412 1266 c 0,26,27
 390 1266 390 1266 373 1256 c 128,-1,28
 356 1246 356 1246 343 1230.5 c 128,-1,29
 330 1215 330 1215 320.5 1195.5 c 128,-1,30
 311 1176 311 1176 304 1158 c 1,31,-1
 62 1256 l 1,0,1
EndSplineSet
EndChar

StartChar: hungarumlaut
Encoding: 733 733 352
Width: 1302
GlyphClass: 2
Flags: W
LayerCount: 2
Fore
SplineSet
258 2006 m 1,0,-1
 658 1888 l 1,1,-1
 358 1218 l 1,2,-1
 114 1288 l 1,3,-1
 258 2006 l 1,0,-1
860 2010 m 1,4,-1
 1234 1822 l 1,5,-1
 818 1216 l 1,6,-1
 592 1328 l 1,7,-1
 860 2010 l 1,4,-1
EndSplineSet
EndChar

StartChar: uni030F
Encoding: 783 783 353
Width: 1302
GlyphClass: 2
Flags: W
LayerCount: 2
Fore
SplineSet
642 1888 m 1,0,-1
 1044 2006 l 1,1,-1
 1188 1288 l 1,2,-1
 944 1218 l 1,3,-1
 642 1888 l 1,0,-1
68 1822 m 1,4,-1
 442 2010 l 1,5,-1
 710 1328 l 1,6,-1
 482 1216 l 1,7,-1
 68 1822 l 1,4,-1
EndSplineSet
EndChar

StartChar: uni0311
Encoding: 785 785 354
Width: 842
GlyphClass: 2
Flags: W
LayerCount: 2
Fore
SplineSet
422 1308 m 256,0,1
 399 1308 399 1308 376.5 1299.5 c 128,-1,2
 354 1291 354 1291 336 1274.5 c 128,-1,3
 318 1258 318 1258 307 1234.5 c 128,-1,4
 296 1211 296 1211 296 1182 c 1,5,-1
 50 1182 l 1,6,7
 50 1278 50 1278 82 1349.5 c 128,-1,8
 114 1421 114 1421 166 1468.5 c 128,-1,9
 218 1516 218 1516 285 1539 c 128,-1,10
 352 1562 352 1562 422 1562 c 256,11,12
 492 1562 492 1562 559 1539 c 128,-1,13
 626 1516 626 1516 678 1468.5 c 128,-1,14
 730 1421 730 1421 762 1349.5 c 128,-1,15
 794 1278 794 1278 794 1182 c 1,16,-1
 548 1182 l 1,17,18
 548 1211 548 1211 537 1234.5 c 128,-1,19
 526 1258 526 1258 508 1274.5 c 128,-1,20
 490 1291 490 1291 467.5 1299.5 c 128,-1,21
 445 1308 445 1308 422 1308 c 256,0,1
EndSplineSet
EndChar

StartChar: pi
Encoding: 960 960 356
Width: 1432
GlyphClass: 2
Flags: W
LayerCount: 2
Fore
SplineSet
674 378 m 2,0,1
 674 269 674 269 644 191.5 c 128,-1,2
 614 114 614 114 564 64.5 c 128,-1,3
 514 15 514 15 448 -8.5 c 128,-1,4
 382 -32 382 -32 310 -32 c 0,5,6
 241 -32 241 -32 173 -15 c 128,-1,7
 105 2 105 2 42 38 c 1,8,-1
 64 324 l 1,9,10
 109 300 109 300 152 300 c 0,11,12
 188 300 188 300 214 324.5 c 128,-1,13
 240 349 240 349 240 408 c 2,14,-1
 240 1026 l 1,15,-1
 1318 1026 l 1,16,-1
 1318 3 l 1,17,-1
 886 3 l 1,18,-1
 886 852 l 1,19,-1
 674 852 l 1,20,-1
 674 378 l 2,0,1
EndSplineSet
EndChar

StartChar: endash
Encoding: 8211 8211 357
Width: 972
GlyphClass: 2
Flags: W
LayerCount: 2
Fore
SplineSet
97 476 m 1,0,-1
 876 476 l 1,1,-1
 876 302 l 1,2,-1
 97 302 l 1,3,-1
 97 476 l 1,0,-1
EndSplineSet
EndChar

StartChar: emdash
Encoding: 8212 8212 358
Width: 1244
GlyphClass: 2
Flags: W
LayerCount: 2
Fore
SplineSet
97 476 m 1,0,-1
 1147 476 l 1,1,-1
 1147 302 l 1,2,-1
 97 302 l 1,3,-1
 97 476 l 1,0,-1
EndSplineSet
EndChar

StartChar: quoteleft
Encoding: 8216 8216 359
Width: 600
GlyphClass: 2
Flags: W
LayerCount: 2
Fore
SplineSet
504 1200 m 1,0,1
 432 1200 432 1200 393.5 1197.5 c 128,-1,2
 355 1195 355 1195 337 1184.5 c 128,-1,3
 319 1174 319 1174 316.5 1152.5 c 128,-1,4
 314 1131 314 1131 314 1094 c 1,5,-1
 504 1094 l 1,6,-1
 504 710 l 1,7,-1
 84 710 l 1,8,9
 88 874 88 874 91.5 992 c 128,-1,10
 95 1110 95 1110 107 1191 c 128,-1,11
 119 1272 119 1272 143.5 1321 c 128,-1,12
 168 1370 168 1370 213 1396.5 c 128,-1,13
 258 1423 258 1423 329 1431.5 c 128,-1,14
 400 1440 400 1440 504 1440 c 1,15,-1
 504 1200 l 1,0,1
EndSplineSet
EndChar

StartChar: quoteright
Encoding: 8217 8217 360
Width: 590
GlyphClass: 2
Flags: W
LayerCount: 2
Fore
SplineSet
100 918 m 1,0,1
 172 918 172 918 211 920.5 c 128,-1,2
 250 923 250 923 268 933.5 c 128,-1,3
 286 944 286 944 289 965 c 128,-1,4
 292 986 292 986 292 1024 c 1,5,-1
 100 1024 l 1,6,-1
 100 1408 l 1,7,-1
 520 1408 l 1,8,9
 516 1244 516 1244 512.5 1126 c 128,-1,10
 509 1008 509 1008 497 927 c 128,-1,11
 485 846 485 846 460.5 797 c 128,-1,12
 436 748 436 748 391 721.5 c 128,-1,13
 346 695 346 695 275 686.5 c 128,-1,14
 204 678 204 678 100 678 c 1,15,-1
 100 918 l 1,0,1
EndSplineSet
EndChar

StartChar: quotesinglbase
Encoding: 8218 8218 361
Width: 458
GlyphClass: 2
Flags: W
LayerCount: 2
Fore
SplineSet
82 253 m 1,0,-1
 378 253 l 1,1,-1
 320 -255 l 1,2,-1
 124 -255 l 1,3,-1
 82 253 l 1,0,-1
EndSplineSet
EndChar

StartChar: quotedblleft
Encoding: 8220 8220 362
Width: 1162
GlyphClass: 2
Flags: W
LayerCount: 2
Fore
SplineSet
504 1200 m 1,0,1
 432 1200 432 1200 393.5 1197.5 c 128,-1,2
 355 1195 355 1195 337 1184.5 c 128,-1,3
 319 1174 319 1174 316.5 1152.5 c 128,-1,4
 314 1131 314 1131 314 1094 c 1,5,-1
 504 1094 l 1,6,-1
 504 710 l 1,7,-1
 84 710 l 1,8,9
 88 874 88 874 91.5 992 c 128,-1,10
 95 1110 95 1110 107 1191 c 128,-1,11
 119 1272 119 1272 143.5 1321 c 128,-1,12
 168 1370 168 1370 213 1396.5 c 128,-1,13
 258 1423 258 1423 329 1431.5 c 128,-1,14
 400 1440 400 1440 504 1440 c 1,15,-1
 504 1200 l 1,0,1
1066 1200 m 1,16,17
 994 1200 994 1200 955 1197.5 c 128,-1,18
 916 1195 916 1195 898 1184.5 c 128,-1,19
 880 1174 880 1174 877 1152.5 c 128,-1,20
 874 1131 874 1131 874 1094 c 1,21,-1
 1066 1094 l 1,22,-1
 1066 710 l 1,23,-1
 646 710 l 1,24,25
 650 874 650 874 653.5 992 c 128,-1,26
 657 1110 657 1110 669 1191 c 128,-1,27
 681 1272 681 1272 705.5 1321 c 128,-1,28
 730 1370 730 1370 775 1396.5 c 128,-1,29
 820 1423 820 1423 890.5 1431.5 c 128,-1,30
 961 1440 961 1440 1066 1440 c 1,31,-1
 1066 1200 l 1,16,17
EndSplineSet
EndChar

StartChar: quotedblright
Encoding: 8221 8221 363
Width: 1152
GlyphClass: 2
Flags: W
LayerCount: 2
Fore
SplineSet
100 918 m 1,0,1
 172 918 172 918 211 920.5 c 128,-1,2
 250 923 250 923 268 933.5 c 128,-1,3
 286 944 286 944 289 965 c 128,-1,4
 292 986 292 986 292 1024 c 1,5,-1
 100 1024 l 1,6,-1
 100 1408 l 1,7,-1
 520 1408 l 1,8,9
 516 1244 516 1244 512.5 1126 c 128,-1,10
 509 1008 509 1008 497 927 c 128,-1,11
 485 846 485 846 460.5 797 c 128,-1,12
 436 748 436 748 391 721.5 c 128,-1,13
 346 695 346 695 275 686.5 c 128,-1,14
 204 678 204 678 100 678 c 1,15,-1
 100 918 l 1,0,1
662 918 m 1,16,17
 734 918 734 918 772.5 920.5 c 128,-1,18
 811 923 811 923 829 933.5 c 128,-1,19
 847 944 847 944 849.5 965 c 128,-1,20
 852 986 852 986 852 1024 c 1,21,-1
 662 1024 l 1,22,-1
 662 1408 l 1,23,-1
 1082 1408 l 1,24,25
 1078 1244 1078 1244 1074.5 1126 c 128,-1,26
 1071 1008 1071 1008 1059 927 c 128,-1,27
 1047 846 1047 846 1022.5 797 c 128,-1,28
 998 748 998 748 953 721.5 c 128,-1,29
 908 695 908 695 837 686.5 c 128,-1,30
 766 678 766 678 662 678 c 1,31,-1
 662 918 l 1,16,17
EndSplineSet
EndChar

StartChar: quotedblbase
Encoding: 8222 8222 364
Width: 838
GlyphClass: 2
Flags: W
LayerCount: 2
Fore
SplineSet
466 300 m 1,0,-1
 762 300 l 1,1,-1
 704 -208 l 1,2,-1
 508 -208 l 1,3,-1
 466 300 l 1,0,-1
80 300 m 1,4,-1
 374 300 l 1,5,-1
 316 -208 l 1,6,-1
 120 -208 l 1,7,-1
 80 300 l 1,4,-1
EndSplineSet
EndChar

StartChar: dagger
Encoding: 8224 8224 365
Width: 720
GlyphClass: 2
Flags: W
LayerCount: 2
Fore
SplineSet
48 1027 m 1,0,-1
 294 1027 l 1,1,-1
 294 1376 l 1,2,-1
 426 1376 l 1,3,-1
 426 1027 l 1,4,-1
 672 1027 l 1,5,-1
 672 901 l 1,6,-1
 426 901 l 1,7,-1
 426 0 l 1,8,-1
 294 0 l 1,9,-1
 294 901 l 1,10,-1
 48 901 l 1,11,-1
 48 1027 l 1,0,-1
EndSplineSet
EndChar

StartChar: daggerdbl
Encoding: 8225 8225 366
Width: 752
GlyphClass: 2
Flags: W
LayerCount: 2
Fore
SplineSet
64 530 m 1,0,-1
 310 530 l 1,1,-1
 310 901 l 1,2,-1
 64 901 l 1,3,-1
 64 1027 l 1,4,-1
 310 1027 l 1,5,-1
 310 1376 l 1,6,-1
 442 1376 l 1,7,-1
 442 1027 l 1,8,-1
 688 1027 l 1,9,-1
 688 901 l 1,10,-1
 442 901 l 1,11,-1
 442 530 l 1,12,-1
 688 530 l 1,13,-1
 688 406 l 1,14,-1
 442 406 l 1,15,-1
 442 0 l 1,16,-1
 310 0 l 1,17,-1
 310 406 l 1,18,-1
 64 406 l 1,19,-1
 64 530 l 1,0,-1
EndSplineSet
EndChar

StartChar: bullet
Encoding: 8226 8226 367
Width: 1036
GlyphClass: 2
Flags: W
LayerCount: 2
Fore
SplineSet
67 530 m 256,0,1
 67 633 67 633 106 710.5 c 128,-1,2
 145 788 145 788 208.5 840.5 c 128,-1,3
 272 893 272 893 353 919.5 c 128,-1,4
 434 946 434 946 519 946 c 256,5,6
 604 946 604 946 685 919.5 c 128,-1,7
 766 893 766 893 829 840.5 c 128,-1,8
 892 788 892 788 930.5 710.5 c 128,-1,9
 969 633 969 633 969 530 c 256,10,11
 969 427 969 427 930.5 349.5 c 128,-1,12
 892 272 892 272 828.5 219.5 c 128,-1,13
 765 167 765 167 683.5 140.5 c 128,-1,14
 602 114 602 114 517 114 c 0,15,16
 433 114 433 114 352 140.5 c 128,-1,17
 271 167 271 167 208 219.5 c 128,-1,18
 145 272 145 272 106 349.5 c 128,-1,19
 67 427 67 427 67 530 c 256,0,1
EndSplineSet
EndChar

StartChar: ellipsis
Encoding: 8230 8230 368
Width: 1838
GlyphClass: 2
Flags: W
LayerCount: 2
Fore
SplineSet
58 176 m 0,0,1
 58 217 58 217 76.5 254.5 c 128,-1,2
 95 292 95 292 126.5 320.5 c 128,-1,3
 158 349 158 349 199.5 365.5 c 128,-1,4
 241 382 241 382 288 382 c 0,5,6
 334 382 334 382 375.5 365.5 c 128,-1,7
 417 349 417 349 448.5 320.5 c 128,-1,8
 480 292 480 292 499 254.5 c 128,-1,9
 518 217 518 217 518 176 c 0,10,11
 518 132 518 132 499 94.5 c 128,-1,12
 480 57 480 57 448.5 28.5 c 128,-1,13
 417 0 417 0 375.5 -16 c 128,-1,14
 334 -32 334 -32 288 -32 c 0,15,16
 241 -32 241 -32 199.5 -16 c 128,-1,17
 158 0 158 0 126.5 28.5 c 128,-1,18
 95 57 95 57 76.5 94.5 c 128,-1,19
 58 132 58 132 58 176 c 0,0,1
688 176 m 0,20,21
 688 217 688 217 706.5 254.5 c 128,-1,22
 725 292 725 292 756.5 320.5 c 128,-1,23
 788 349 788 349 830.5 365.5 c 128,-1,24
 873 382 873 382 920 382 c 0,25,26
 966 382 966 382 1007.5 365.5 c 128,-1,27
 1049 349 1049 349 1080.5 320.5 c 128,-1,28
 1112 292 1112 292 1131 254.5 c 128,-1,29
 1150 217 1150 217 1150 176 c 0,30,31
 1150 132 1150 132 1131 94.5 c 128,-1,32
 1112 57 1112 57 1080.5 28.5 c 128,-1,33
 1049 0 1049 0 1007.5 -16 c 128,-1,34
 966 -32 966 -32 920 -32 c 0,35,36
 873 -32 873 -32 830.5 -16 c 128,-1,37
 788 0 788 0 756.5 28.5 c 128,-1,38
 725 57 725 57 706.5 94.5 c 128,-1,39
 688 132 688 132 688 176 c 0,20,21
1320 176 m 0,40,41
 1320 217 1320 217 1338 254.5 c 128,-1,42
 1356 292 1356 292 1387.5 320.5 c 128,-1,43
 1419 349 1419 349 1461 365.5 c 128,-1,44
 1503 382 1503 382 1550 382 c 0,45,46
 1596 382 1596 382 1638 365.5 c 128,-1,47
 1680 349 1680 349 1711.5 320.5 c 128,-1,48
 1743 292 1743 292 1761.5 254.5 c 128,-1,49
 1780 217 1780 217 1780 176 c 0,50,51
 1780 132 1780 132 1761.5 94.5 c 128,-1,52
 1743 57 1743 57 1711.5 28.5 c 128,-1,53
 1680 0 1680 0 1638 -16 c 128,-1,54
 1596 -32 1596 -32 1550 -32 c 0,55,56
 1503 -32 1503 -32 1461 -16 c 128,-1,57
 1419 0 1419 0 1387.5 28.5 c 128,-1,58
 1356 57 1356 57 1338 94.5 c 128,-1,59
 1320 132 1320 132 1320 176 c 0,40,41
EndSplineSet
EndChar

StartChar: perthousand
Encoding: 8240 8240 369
Width: 2660
GlyphClass: 2
Flags: W
LayerCount: 2
Fore
SplineSet
998 1376 m 1,0,-1
 1140 1376 l 1,1,-1
 800 0 l 1,2,-1
 662 0 l 1,3,-1
 998 1376 l 1,0,-1
1396 -32 m 0,4,5
 1304 -32 1304 -32 1234.5 2.5 c 128,-1,6
 1165 37 1165 37 1118.5 93 c 128,-1,7
 1072 149 1072 149 1049 221 c 128,-1,8
 1026 293 1026 293 1026 368 c 0,9,10
 1026 442 1026 442 1049.5 514 c 128,-1,11
 1073 586 1073 586 1119.5 643 c 128,-1,12
 1166 700 1166 700 1235 735 c 128,-1,13
 1304 770 1304 770 1396 770 c 256,14,15
 1488 770 1488 770 1558 735 c 128,-1,16
 1628 700 1628 700 1674.5 643 c 128,-1,17
 1721 586 1721 586 1744.5 514 c 128,-1,18
 1768 442 1768 442 1768 368 c 0,19,20
 1768 293 1768 293 1745 221 c 128,-1,21
 1722 149 1722 149 1675.5 93 c 128,-1,22
 1629 37 1629 37 1559.5 2.5 c 128,-1,23
 1490 -32 1490 -32 1396 -32 c 0,4,5
1396 172 m 256,24,25
 1425 172 1425 172 1447 189 c 128,-1,26
 1469 206 1469 206 1484 234 c 128,-1,27
 1499 262 1499 262 1506.5 297 c 128,-1,28
 1514 332 1514 332 1514 368 c 0,29,30
 1514 405 1514 405 1506.5 440 c 128,-1,31
 1499 475 1499 475 1484 502 c 128,-1,32
 1469 529 1469 529 1447 545.5 c 128,-1,33
 1425 562 1425 562 1396 562 c 256,34,35
 1367 562 1367 562 1345.5 545.5 c 128,-1,36
 1324 529 1324 529 1309.5 502 c 128,-1,37
 1295 475 1295 475 1287.5 440 c 128,-1,38
 1280 405 1280 405 1280 368 c 0,39,40
 1280 332 1280 332 1287.5 297 c 128,-1,41
 1295 262 1295 262 1309.5 234 c 128,-1,42
 1324 206 1324 206 1345.5 189 c 128,-1,43
 1367 172 1367 172 1396 172 c 256,24,25
420 614 m 0,44,45
 328 614 328 614 259 648 c 128,-1,46
 190 682 190 682 143.5 738 c 128,-1,47
 97 794 97 794 73.5 866 c 128,-1,48
 50 938 50 938 50 1014 c 256,49,50
 50 1090 50 1090 74 1162 c 128,-1,51
 98 1234 98 1234 145 1290 c 128,-1,52
 192 1346 192 1346 262.5 1380 c 128,-1,53
 333 1414 333 1414 425 1414 c 256,54,55
 517 1414 517 1414 586 1379 c 128,-1,56
 655 1344 655 1344 701.5 1287 c 128,-1,57
 748 1230 748 1230 771 1158.5 c 128,-1,58
 794 1087 794 1087 794 1014 c 0,59,60
 794 938 794 938 771 866 c 128,-1,61
 748 794 748 794 701.5 738 c 128,-1,62
 655 682 655 682 584.5 648 c 128,-1,63
 514 614 514 614 420 614 c 0,44,45
420 816 m 0,64,65
 450 816 450 816 472.5 833 c 128,-1,66
 495 850 495 850 510 878 c 128,-1,67
 525 906 525 906 532.5 941.5 c 128,-1,68
 540 977 540 977 540 1014 c 256,69,70
 540 1051 540 1051 532.5 1086 c 128,-1,71
 525 1121 525 1121 510 1148 c 128,-1,72
 495 1175 495 1175 472.5 1191.5 c 128,-1,73
 450 1208 450 1208 420 1208 c 0,74,75
 392 1208 392 1208 370.5 1191.5 c 128,-1,76
 349 1175 349 1175 334 1148 c 128,-1,77
 319 1121 319 1121 311.5 1086 c 128,-1,78
 304 1051 304 1051 304 1014 c 256,79,80
 304 977 304 977 311.5 941.5 c 128,-1,81
 319 906 319 906 334 878 c 128,-1,82
 349 850 349 850 370.5 833 c 128,-1,83
 392 816 392 816 420 816 c 0,64,65
2238 -32 m 0,84,85
 2146 -32 2146 -32 2076 2.5 c 128,-1,86
 2006 37 2006 37 1959.5 93 c 128,-1,87
 1913 149 1913 149 1889.5 221 c 128,-1,88
 1866 293 1866 293 1866 368 c 0,89,90
 1866 442 1866 442 1890 514 c 128,-1,91
 1914 586 1914 586 1960.5 643 c 128,-1,92
 2007 700 2007 700 2076.5 735 c 128,-1,93
 2146 770 2146 770 2238 770 c 0,94,95
 2329 770 2329 770 2399 735 c 128,-1,96
 2469 700 2469 700 2515.5 643 c 128,-1,97
 2562 586 2562 586 2586 514 c 128,-1,98
 2610 442 2610 442 2610 368 c 0,99,100
 2610 293 2610 293 2587 221 c 128,-1,101
 2564 149 2564 149 2517.5 93 c 128,-1,102
 2471 37 2471 37 2401.5 2.5 c 128,-1,103
 2332 -32 2332 -32 2238 -32 c 0,84,85
2238 172 m 256,104,105
 2267 172 2267 172 2289 189 c 128,-1,106
 2311 206 2311 206 2326 234 c 128,-1,107
 2341 262 2341 262 2348.5 297 c 128,-1,108
 2356 332 2356 332 2356 368 c 0,109,110
 2356 405 2356 405 2348.5 440 c 128,-1,111
 2341 475 2341 475 2326 502 c 128,-1,112
 2311 529 2311 529 2289 545.5 c 128,-1,113
 2267 562 2267 562 2238 562 c 256,114,115
 2209 562 2209 562 2187 545.5 c 128,-1,116
 2165 529 2165 529 2150 502 c 128,-1,117
 2135 475 2135 475 2127.5 440 c 128,-1,118
 2120 405 2120 405 2120 368 c 0,119,120
 2120 332 2120 332 2127.5 297 c 128,-1,121
 2135 262 2135 262 2150 234 c 128,-1,122
 2165 206 2165 206 2187 189 c 128,-1,123
 2209 172 2209 172 2238 172 c 256,104,105
EndSplineSet
EndChar

StartChar: guilsinglleft
Encoding: 8249 8249 370
Width: 577
GlyphClass: 2
Flags: W
LayerCount: 2
Fore
SplineSet
53 810 m 1,0,-1
 483 1116 l 1,1,-1
 483 744 l 1,2,-1
 285 626 l 1,3,-1
 483 502 l 1,4,-1
 483 128 l 1,5,-1
 53 442 l 1,6,-1
 53 810 l 1,0,-1
EndSplineSet
EndChar

StartChar: guilsinglright
Encoding: 8250 8250 371
Width: 577
GlyphClass: 2
Flags: W
LayerCount: 2
Fore
SplineSet
94 502 m 1,0,-1
 290 626 l 1,1,-1
 94 744 l 1,2,-1
 94 1116 l 1,3,-1
 524 810 l 1,4,-1
 524 442 l 1,5,-1
 94 128 l 1,6,-1
 94 502 l 1,0,-1
EndSplineSet
EndChar

StartChar: fraction
Encoding: 8260 8260 372
Width: 562
GlyphClass: 2
Flags: W
LayerCount: 2
Fore
SplineSet
349 1408 m 1,0,-1
 553 1408 l 1,1,-1
 213 0 l 1,2,-1
 13 0 l 1,3,-1
 349 1408 l 1,0,-1
EndSplineSet
EndChar

StartChar: Euro
Encoding: 8364 8364 373
Width: 1360
GlyphClass: 2
Flags: W
LayerCount: 2
Fore
SplineSet
1284 74 m 1,0,1
 1190 20 1190 20 1095 -6 c 128,-1,2
 1000 -32 1000 -32 900 -32 c 0,3,4
 780 -32 780 -32 666.5 4 c 128,-1,5
 553 40 553 40 459 108 c 128,-1,6
 365 176 365 176 295 273 c 128,-1,7
 225 370 225 370 192 492 c 1,8,-1
 54 492 l 1,9,-1
 54 614 l 1,10,-1
 170 614 l 1,11,12
 168 634 168 634 167 653.5 c 128,-1,13
 166 673 166 673 166 694 c 0,14,15
 166 730 166 730 169 766 c 1,16,-1
 54 766 l 1,17,-1
 54 892 l 1,18,-1
 191 892 l 1,19,20
 223 1013 223 1013 291 1109.5 c 128,-1,21
 359 1206 359 1206 452 1273.5 c 128,-1,22
 545 1341 545 1341 656.5 1377.5 c 128,-1,23
 768 1414 768 1414 888 1414 c 0,24,25
 988 1414 988 1414 1087 1388.5 c 128,-1,26
 1186 1363 1186 1363 1286 1306 c 1,27,-1
 1232 988 l 1,28,29
 1160 1015 1160 1015 1096 1029.5 c 128,-1,30
 1032 1044 1032 1044 966 1044 c 0,31,32
 866 1044 866 1044 789 1007 c 128,-1,33
 712 970 712 970 669 892 c 1,34,-1
 966 892 l 1,35,-1
 966 766 l 1,36,-1
 630 766 l 1,37,38
 628 749 628 749 627 731.5 c 128,-1,39
 626 714 626 714 626 696 c 0,40,41
 626 651 626 651 632 614 c 1,42,-1
 966 614 l 1,43,-1
 966 492 l 1,44,-1
 675 492 l 1,45,46
 720 413 720 413 799.5 375.5 c 128,-1,47
 879 338 879 338 978 338 c 0,48,49
 1041 338 1041 338 1102 353.5 c 128,-1,50
 1163 369 1163 369 1232 396 c 1,51,-1
 1284 74 l 1,0,1
EndSplineSet
EndChar

StartChar: trademark
Encoding: 8482 8482 374
Width: 1988
GlyphClass: 2
Flags: W
LayerCount: 2
Fore
SplineSet
275 1162 m 1,0,-1
 97 1162 l 1,1,-1
 97 1376 l 1,2,-1
 771 1376 l 1,3,-1
 771 1162 l 1,4,-1
 593 1162 l 1,5,-1
 593 614 l 1,6,-1
 275 614 l 1,7,-1
 275 1162 l 1,0,-1
889 1376 m 1,8,-1
 1205 1376 l 1,9,-1
 1381 1070 l 1,10,-1
 1555 1376 l 1,11,-1
 1869 1376 l 1,12,-1
 1869 614 l 1,13,-1
 1555 614 l 1,14,-1
 1555 1018 l 1,15,-1
 1441 798 l 1,16,-1
 1317 798 l 1,17,-1
 1205 1018 l 1,18,-1
 1205 614 l 1,19,-1
 889 614 l 1,20,-1
 889 1376 l 1,8,-1
EndSplineSet
EndChar

StartChar: Delta
Encoding: 916 916 376
Width: 1210
GlyphClass: 2
Flags: W
LayerCount: 2
Fore
SplineSet
421 1376 m 1,0,-1
 785 1376 l 1,1,-1
 1161 0 l 1,2,-1
 51 0 l 1,3,-1
 421 1376 l 1,0,-1
799 230 m 1,4,-1
 605 1060 l 1,5,-1
 417 230 l 1,6,-1
 799 230 l 1,4,-1
EndSplineSet
EndChar

StartChar: minus
Encoding: 8722 8722 377
Width: 1030
GlyphClass: 2
Flags: W
LayerCount: 2
Fore
SplineSet
102 114 m 1,0,-1
 928 114 l 1,1,-1
 928 0 l 1,2,-1
 102 0 l 1,3,-1
 102 114 l 1,0,-1
EndSplineSet
EndChar

StartChar: notequal
Encoding: 8800 8800 382
Width: 760
GlyphClass: 2
Flags: W
LayerCount: 2
Fore
SplineSet
68 442 m 1,0,-1
 290 442 l 1,1,-1
 330 594 l 1,2,-1
 68 594 l 1,3,-1
 68 720 l 1,4,-1
 363 720 l 1,5,-1
 444 1026 l 1,6,-1
 586 1026 l 1,7,-1
 504 720 l 1,8,-1
 692 720 l 1,9,-1
 692 594 l 1,10,-1
 470 594 l 1,11,-1
 430 442 l 1,12,-1
 692 442 l 1,13,-1
 692 318 l 1,14,-1
 397 318 l 1,15,-1
 312 0 l 1,16,-1
 174 0 l 1,17,-1
 257 318 l 1,18,-1
 68 318 l 1,19,-1
 68 442 l 1,0,-1
EndSplineSet
EndChar

StartChar: lessequal
Encoding: 8804 8804 383
Width: 986
GlyphClass: 2
Flags: W
LayerCount: 2
Fore
SplineSet
92 1154 m 1,0,-1
 872 1582 l 1,1,-1
 872 1274 l 1,2,-1
 264 970 l 1,3,-1
 872 682 l 1,4,-1
 872 350 l 1,5,-1
 92 806 l 1,6,-1
 92 1154 l 1,0,-1
68 114 m 1,7,-1
 894 114 l 1,8,-1
 894 0 l 1,9,-1
 68 0 l 1,10,-1
 68 114 l 1,7,-1
EndSplineSet
EndChar

StartChar: greaterequal
Encoding: 8805 8805 384
Width: 986
GlyphClass: 2
Flags: W
LayerCount: 2
Fore
SplineSet
114 682 m 1,0,-1
 722 970 l 1,1,-1
 114 1274 l 1,2,-1
 114 1582 l 1,3,-1
 894 1154 l 1,4,-1
 894 806 l 1,5,-1
 114 350 l 1,6,-1
 114 682 l 1,0,-1
90 114 m 1,7,-1
 916 114 l 1,8,-1
 916 0 l 1,9,-1
 90 0 l 1,10,-1
 90 114 l 1,7,-1
EndSplineSet
EndChar

StartChar: lozenge
Encoding: 9674 9674 385
Width: 1043
GlyphClass: 2
Flags: W
LayerCount: 2
Fore
SplineSet
686 710 m 1,0,-1
 518 1236 l 1,1,-1
 334 710 l 1,2,-1
 518 172 l 1,3,-1
 686 710 l 1,0,-1
56 710 m 1,4,-1
 314 1408 l 1,5,-1
 712 1408 l 1,6,-1
 988 710 l 1,7,-1
 712 0 l 1,8,-1
 314 0 l 1,9,-1
 56 710 l 1,4,-1
EndSplineSet
EndChar

StartChar: fi
Encoding: 64257 64257 387
Width: 1733
GlyphClass: 2
Flags: W
LayerCount: 2
Fore
SplineSet
180 772 m 1,0,-1
 52 772 l 1,1,-1
 52 1026 l 1,2,-1
 180 1026 l 1,3,-1
 180 1136 l 2,4,5
 180 1257 180 1257 209.5 1340.5 c 128,-1,6
 239 1424 239 1424 290 1475.5 c 128,-1,7
 341 1527 341 1527 409 1549.5 c 128,-1,8
 477 1572 477 1572 554 1572 c 0,9,10
 639 1572 639 1572 723 1551 c 128,-1,11
 807 1530 807 1530 888 1494 c 1,12,-1
 874 1216 l 1,13,14
 841 1227 841 1227 802.5 1236.5 c 128,-1,15
 764 1246 764 1246 728 1246 c 0,16,17
 704 1246 704 1246 683 1240 c 128,-1,18
 662 1234 662 1234 646.5 1219.5 c 128,-1,19
 631 1205 631 1205 621.5 1181.5 c 128,-1,20
 612 1158 612 1158 612 1122 c 2,21,-1
 612 1026 l 1,22,-1
 1518 1026 l 1,23,-1
 1518 408 l 2,24,25
 1518 349 1518 349 1544 324.5 c 128,-1,26
 1570 300 1570 300 1606 300 c 0,27,28
 1649 300 1649 300 1694 324 c 1,29,-1
 1716 38 l 1,30,31
 1653 2 1653 2 1585 -15 c 128,-1,32
 1517 -32 1517 -32 1448 -32 c 0,33,34
 1376 -32 1376 -32 1310.5 -8.5 c 128,-1,35
 1245 15 1245 15 1195 64.5 c 128,-1,36
 1145 114 1145 114 1115.5 191.5 c 128,-1,37
 1086 269 1086 269 1086 378 c 2,38,-1
 1086 772 l 1,39,-1
 612 772 l 1,40,-1
 612 0 l 1,41,-1
 180 0 l 1,42,-1
 180 772 l 1,0,-1
1076 1366 m 0,43,44
 1076 1407 1076 1407 1095 1444.5 c 128,-1,45
 1114 1482 1114 1482 1145.5 1510.5 c 128,-1,46
 1177 1539 1177 1539 1219 1555.5 c 128,-1,47
 1261 1572 1261 1572 1308 1572 c 0,48,49
 1354 1572 1354 1572 1395.5 1555.5 c 128,-1,50
 1437 1539 1437 1539 1468.5 1510.5 c 128,-1,51
 1500 1482 1500 1482 1519 1444.5 c 128,-1,52
 1538 1407 1538 1407 1538 1366 c 0,53,54
 1538 1322 1538 1322 1519 1284.5 c 128,-1,55
 1500 1247 1500 1247 1468.5 1218.5 c 128,-1,56
 1437 1190 1437 1190 1395.5 1174 c 128,-1,57
 1354 1158 1354 1158 1308 1158 c 0,58,59
 1261 1158 1261 1158 1219 1174 c 128,-1,60
 1177 1190 1177 1190 1145.5 1218.5 c 128,-1,61
 1114 1247 1114 1247 1095 1284.5 c 128,-1,62
 1076 1322 1076 1322 1076 1366 c 0,43,44
EndSplineSet
EndChar

StartChar: fl
Encoding: 64258 64258 388
Width: 1709
GlyphClass: 2
Flags: W
LayerCount: 2
Fore
SplineSet
180 772 m 1,0,-1
 52 772 l 1,1,-1
 52 1026 l 1,2,-1
 180 1026 l 1,3,-1
 180 1136 l 2,4,5
 180 1246 180 1246 227 1322 c 128,-1,6
 274 1398 274 1398 365.5 1445 c 128,-1,7
 457 1492 457 1492 591.5 1513 c 128,-1,8
 726 1534 726 1534 902 1534 c 0,9,10
 941 1534 941 1534 988 1529 c 128,-1,11
 1035 1524 1035 1524 1102.5 1513 c 128,-1,12
 1170 1502 1170 1502 1263.5 1483 c 128,-1,13
 1357 1464 1357 1464 1488 1436 c 1,14,-1
 1488 408 l 2,15,16
 1488 349 1488 349 1516 324.5 c 128,-1,17
 1544 300 1544 300 1586 300 c 0,18,19
 1629 300 1629 300 1674 324 c 1,20,-1
 1698 38 l 1,21,22
 1629 2 1629 2 1561 -15 c 128,-1,23
 1493 -32 1493 -32 1418 -32 c 0,24,25
 1347 -32 1347 -32 1281.5 -8.5 c 128,-1,26
 1216 15 1216 15 1166 64.5 c 128,-1,27
 1116 114 1116 114 1086 191.5 c 128,-1,28
 1056 269 1056 269 1056 378 c 2,29,-1
 1056 1228 l 1,30,31
 1041 1230 1041 1230 1015.5 1233 c 128,-1,32
 990 1236 990 1236 959.5 1239 c 128,-1,33
 929 1242 929 1242 894.5 1244 c 128,-1,34
 860 1246 860 1246 826 1246 c 0,35,36
 785 1246 785 1246 746.5 1240.5 c 128,-1,37
 708 1235 708 1235 678 1221.5 c 128,-1,38
 648 1208 648 1208 630 1183.5 c 128,-1,39
 612 1159 612 1159 612 1122 c 2,40,-1
 612 1026 l 1,41,-1
 870 1026 l 1,42,-1
 870 772 l 1,43,-1
 612 772 l 1,44,-1
 612 0 l 1,45,-1
 180 0 l 1,46,-1
 180 772 l 1,0,-1
EndSplineSet
EndChar

StartChar: dotlessj
Encoding: 567 567 389
Width: 646
Flags: W
LayerCount: 2
Fore
SplineSet
-171 -80 m 1,0,1
 -133 -92 -133 -92 -98.5 -101 c 128,-1,2
 -64 -110 -64 -110 -29 -110 c 0,3,4
 0 -110 0 -110 25 -101 c 128,-1,5
 50 -92 50 -92 68 -72 c 128,-1,6
 86 -52 86 -52 96.5 -19.5 c 128,-1,7
 107 13 107 13 107 60 c 2,8,-1
 107 1026 l 1,9,-1
 539 1026 l 1,10,-1
 539 60 l 2,11,12
 539 -74 539 -74 501 -169.5 c 128,-1,13
 463 -265 463 -265 400 -325.5 c 128,-1,14
 337 -386 337 -386 255 -414 c 128,-1,15
 173 -442 173 -442 85 -442 c 0,16,17
 -103 -442 -103 -442 -265 -334 c 1,18,-1
 -171 -80 l 1,0,1
EndSplineSet
EndChar

StartChar: foursuperior
Encoding: 8308 8308 390
Width: 746
Flags: W
LayerCount: 2
Fore
SplineSet
40 978 m 1,0,-1
 342 1376 l 1,1,-1
 598 1376 l 1,2,-1
 598 978 l 1,3,-1
 692 978 l 1,4,-1
 692 822 l 1,5,-1
 598 822 l 1,6,-1
 598 650 l 1,7,-1
 352 650 l 1,8,-1
 352 822 l 1,9,-1
 40 822 l 1,10,-1
 40 978 l 1,0,-1
352 978 m 1,11,-1
 352 1180 l 1,12,-1
 208 978 l 1,13,-1
 352 978 l 1,11,-1
EndSplineSet
EndChar

StartChar: periodcentered
Encoding: 183 183 391
Width: 630
Flags: W
LayerCount: 2
Fore
SplineSet
86 820 m 0,0,1
 86 862 86 862 104.5 899.5 c 128,-1,2
 123 937 123 937 154.5 965.5 c 128,-1,3
 186 994 186 994 227.5 1011 c 128,-1,4
 269 1028 269 1028 316 1028 c 0,5,6
 362 1028 362 1028 403.5 1011 c 128,-1,7
 445 994 445 994 476.5 965.5 c 128,-1,8
 508 937 508 937 527 899.5 c 128,-1,9
 546 862 546 862 546 820 c 0,10,11
 546 777 546 777 527 739.5 c 128,-1,12
 508 702 508 702 476.5 674 c 128,-1,13
 445 646 445 646 403.5 630 c 128,-1,14
 362 614 362 614 316 614 c 0,15,16
 269 614 269 614 227.5 630 c 128,-1,17
 186 646 186 646 154.5 674 c 128,-1,18
 123 702 123 702 104.5 739.5 c 128,-1,19
 86 777 86 777 86 820 c 0,0,1
EndSplineSet
EndChar

StartChar: currency
Encoding: 164 164 392
Width: 1145
Flags: W
LayerCount: 2
Fore
SplineSet
121 644 m 1,0,1
 122 725 122 725 147 790 c 128,-1,2
 172 855 172 855 215 906 c 1,3,-1
 74 1047 l 1,4,-1
 166 1138 l 1,5,-1
 315 989 l 1,6,7
 371 1022 371 1022 435.5 1039 c 128,-1,8
 500 1056 500 1056 568 1056 c 256,9,10
 636 1056 636 1056 702 1038 c 128,-1,11
 768 1020 768 1020 826 985 c 1,12,-1
 979 1138 l 1,13,-1
 1071 1047 l 1,14,-1
 926 902 l 1,15,16
 970 852 970 852 995 788 c 128,-1,17
 1020 724 1020 724 1020 644 c 0,18,19
 1020 562 1020 562 993.5 497 c 128,-1,20
 967 432 967 432 922 382 c 1,21,-1
 1071 233 l 1,22,-1
 980 141 l 1,23,-1
 819 301 l 1,24,25
 762 269 762 269 697.5 253 c 128,-1,26
 633 237 633 237 566 237 c 0,27,28
 500 237 500 237 438 252 c 128,-1,29
 376 267 376 267 322 298 c 1,30,-1
 165 141 l 1,31,-1
 74 233 l 1,32,-1
 219 378 l 1,33,34
 174 429 174 429 147.5 495 c 128,-1,35
 121 561 121 561 121 644 c 1,0,1
738 644 m 256,36,37
 738 687 738 687 723.5 719.5 c 128,-1,38
 709 752 709 752 685.5 773.5 c 128,-1,39
 662 795 662 795 631.5 806 c 128,-1,40
 601 817 601 817 570 817 c 0,41,42
 538 817 538 817 507.5 806 c 128,-1,43
 477 795 477 795 453 773.5 c 128,-1,44
 429 752 429 752 414.5 719.5 c 128,-1,45
 400 687 400 687 400 644 c 256,46,47
 400 601 400 601 414.5 568.5 c 128,-1,48
 429 536 429 536 452.5 514.5 c 128,-1,49
 476 493 476 493 506.5 482 c 128,-1,50
 537 471 537 471 569 471 c 0,51,52
 600 471 600 471 630.5 482 c 128,-1,53
 661 493 661 493 685 514.5 c 128,-1,54
 709 536 709 536 723.5 568.5 c 128,-1,55
 738 601 738 601 738 644 c 256,36,37
EndSplineSet
EndChar

